<?xml version="1.0" encoding="utf-8"?>
<!-- Generator: Adobe Illustrator 23.0.3, SVG Export Plug-In . SVG Version: 6.00 Build 0)  -->
<svg version="1.1" xmlns="http://www.w3.org/2000/svg" xmlns:xlink="http://www.w3.org/1999/xlink" x="0px" y="0px"
	 viewBox="0 0 227.19 228.27" style="enable-background:new 0 0 227.19 228.27;" xml:space="preserve">
<style type="text/css">
	.st0{display:none;}
	.st1{display:inline;}
	.st2{fill:#9ACAC3;}
	.st3{fill:#BF2E11;}
	.st4{fill:#6AB5B5;}
	.st5{fill:#9E6944;}
	.st6{fill:#FFFFFF;}
	.st7{fill:#FFF1E6;}
	.st8{fill:#6ECFC2;}
	.st9{fill:#67FF74;}
	.st10{fill:#0DAF9A;}
	.st11{fill:#F6CB85;}
	.st12{fill:#C69473;stroke:#FFFFFF;stroke-width:3;stroke-linecap:round;stroke-linejoin:round;stroke-miterlimit:10;}
	.st13{fill:#EAE0D5;stroke:#FFFFFF;stroke-width:3;stroke-linecap:round;stroke-linejoin:round;stroke-miterlimit:10;}
	.st14{fill:#1E94A0;}
	.st15{fill:#C69473;stroke:#FFFFFF;stroke-width:6;stroke-linecap:round;stroke-linejoin:round;stroke-miterlimit:10;}
	.st16{fill:#EAE0D5;stroke:#FFFFFF;stroke-width:6;stroke-linecap:round;stroke-linejoin:round;stroke-miterlimit:10;}
	.st17{fill:#F4BD61;}
	.st18{fill:#C6AC8F;}
	.st19{fill:#F0EFEB;}
	.st20{fill:#004E6D;}
	.st21{fill:#E7D8C9;}
	.st22{fill:#C69473;}
	.st23{fill:none;stroke:#CB8854;stroke-width:3;stroke-miterlimit:10;}
	.st24{fill:none;stroke:#CB8854;stroke-width:3;stroke-miterlimit:10;stroke-dasharray:4.7855,4.7855;}
	.st25{fill:#22333B;}
	.st26{fill:#EDDCD2;}
	.st27{fill:#F1CC8B;}
	.st28{fill:#7ABCBA;}
	.st29{fill:#FEFEFF;}
	.st30{fill:none;}
	.st31{fill:#D9A691;}
	.st32{fill:#F7EDE3;}
	.st33{fill:#6B6BCE;}
	.st34{fill:#E3C8B8;}
	.st35{fill:#F6F6F7;}
	.st36{fill:#E6BEAE;}
	.st37{fill:#59FFC0;}
	.st38{fill:none;stroke:#004E6D;stroke-width:0.5161;stroke-miterlimit:10;}
	.st39{fill:#F9F9F9;stroke:#6ECFC2;stroke-width:1.6578;stroke-miterlimit:10;}
	.st40{fill:#5EFF62;}
	.st41{fill:#EAE0D5;stroke:#FFFFFF;stroke-width:6;stroke-miterlimit:10;}
	.st42{fill:none;stroke:#FFFFFF;stroke-width:9;stroke-linecap:round;stroke-linejoin:round;stroke-miterlimit:10;}
	.st43{fill:#6AC600;}
	.st44{fill:none;stroke:#22333B;stroke-width:6;stroke-linecap:round;stroke-linejoin:round;stroke-miterlimit:10;}
	.st45{fill:#4BE8FF;}
	.st46{fill:#FFFFFF;stroke:#22333B;stroke-width:3;stroke-miterlimit:10;}
	.st47{fill:#EAE0D5;}
	.st48{fill:#5E503F;}
	.st49{fill:#FFFFFF;stroke:#9E6944;stroke-width:3;stroke-miterlimit:10;}
	.st50{fill:none;stroke:#9E6944;stroke-width:3;stroke-miterlimit:10;}
	.st51{fill:#CB8854;}
	.st52{fill:none;stroke:#CB8854;stroke-width:1.9198;stroke-miterlimit:10;}
	.st53{fill:none;stroke:#CB8854;stroke-width:1.9198;stroke-miterlimit:10;stroke-dasharray:4.9892,4.9892;}
	.st54{fill:none;stroke:#CB8854;stroke-width:0.9599;stroke-miterlimit:10;}
	.st55{fill:none;stroke:#CB8854;stroke-width:1.5;stroke-miterlimit:10;}
	.st56{fill:none;stroke:#CB8854;stroke-width:0.7199;stroke-miterlimit:10;}
	.st57{fill:none;stroke:#CB8854;stroke-width:0.7199;stroke-miterlimit:10;stroke-dasharray:4.4756,4.4756;}
	.st58{fill:none;stroke:#CB8854;stroke-width:1.9198;stroke-miterlimit:10;stroke-dasharray:4.8733,4.8733;}
	.st59{fill:none;stroke:#CB8854;stroke-width:0.7199;stroke-miterlimit:10;stroke-dasharray:4.6623,4.6623;}
	.st60{fill:none;stroke:#CB8854;stroke-width:2.3278;stroke-miterlimit:10;}
	.st61{fill:none;stroke:#CB8854;stroke-width:2.3278;stroke-miterlimit:10;stroke-dasharray:11.533,11.533;}
	.st62{display:inline;fill:none;stroke:#CB8854;stroke-width:2.3278;stroke-miterlimit:10;}
	.st63{display:inline;fill:#C69473;}
	.st64{fill:#DD6C52;}
	.st65{fill:none;stroke:#CB8854;stroke-width:15;stroke-miterlimit:10;}
</style>
<g id="_x38_-5" class="st0">
	<g class="st1">
		<g>
			<path class="st2" d="M160.28,49.53l63.22,54.73c-0.24-2.58-0.55-5.15-0.96-7.68c-8.6-52.69-54.33-92.91-109.45-92.91
				C51.82,3.68,2.17,53.34,2.17,114.6c0,53.01,37.2,97.31,86.92,108.28l-23.2-43.22L160.28,49.53z"/>
			<path class="st3" d="M89.09,222.89l0.01-0.01c-0.01,0-0.01,0-0.02,0L89.09,222.89z"/>
			<path class="st3" d="M223.51,104.28l-0.01-0.01C223.5,104.27,223.5,104.28,223.51,104.28L223.51,104.28z"/>
			<path class="st4" d="M223.5,104.28c0-0.01,0-0.01,0-0.02l-63.22-54.73L65.89,179.66l23.2,43.22c0.01,0,0.01,0,0.02,0
				c2.14,0.47,4.29,0.9,6.47,1.25c5.7,0.9,11.55,1.38,17.5,1.38c61.26,0,110.92-49.66,110.92-110.92
				C224,111.12,223.82,107.68,223.5,104.28z"/>
		</g>
		<g>
			<rect x="65.89" y="49.53" class="st5" width="94.39" height="130.13"/>
			<g>
				<g>
					<g>
						<rect x="75.58" y="62.87" class="st6" width="16.75" height="19.66"/>
						<rect x="104.71" y="62.87" class="st6" width="16.75" height="19.66"/>
						<rect x="133.83" y="62.87" class="st6" width="16.75" height="19.66"/>
					</g>
				</g>
				<g>
					<rect x="75.58" y="89.84" class="st6" width="16.75" height="19.66"/>
					<rect x="104.71" y="89.84" class="st6" width="16.75" height="19.66"/>
					<rect x="133.83" y="89.84" class="st6" width="16.75" height="19.66"/>
				</g>
				<g>
					<g>
						<rect x="75.58" y="116.82" class="st6" width="16.75" height="19.66"/>
						<rect x="104.71" y="116.82" class="st6" width="16.75" height="19.66"/>
						<rect x="133.83" y="116.82" class="st6" width="16.75" height="19.66"/>
					</g>
				</g>
			</g>
			<g>
				<rect x="96.58" y="145.3" class="st6" width="14.96" height="30.13"/>
				<rect x="114.55" y="145.3" class="st6" width="15.03" height="30.13"/>
			</g>
		</g>
	</g>
</g>
<g id="_x38_-0" class="st0">
	<g class="st1">
		<g>
			<g>
				<g>
					<path class="st2" d="M79.52,96.93l29.49-20.78l30.64,9.57l23.08-13.21l61.19,45.37c0.03-1.09,0.08-2.18,0.08-3.28
						c0-6.13-0.51-12.14-1.46-18.01c-8.6-52.69-54.33-92.91-109.45-92.91C51.82,3.68,2.17,53.34,2.17,114.6
						c0,52.23,36.12,96.01,84.73,107.78l-23.46-65.69L79.52,96.93z"/>
				</g>
				<path class="st2" d="M86.9,222.39l0.01-0.01c-0.01,0-0.01,0-0.02,0L86.9,222.39z"/>
				<path class="st2" d="M223.91,117.88c0,0.01,0,0.02,0,0.04l0.03-0.02L223.91,117.88z"/>
				<g>
					<path class="st4" d="M162.73,72.51l-23.08,13.21l-30.64-9.57L79.52,96.93l-16.08,59.76l23.46,65.69c0.01,0,0.01,0,0.02,0
						c2.85,0.69,5.73,1.29,8.66,1.75c5.7,0.9,11.55,1.38,17.5,1.38c60.14,0,109.07-47.88,110.83-107.6c0-0.01,0-0.02,0-0.04
						L162.73,72.51z"/>
				</g>
			</g>
		</g>
		<path class="st7" d="M171.49,125.87l-14.19-8.19c-0.05-0.03-0.1-0.02-0.15-0.05c0.07-1.01,0.15-2.01,0.15-3.03
			c0-1.59-0.09-3.15-0.26-4.69l13.69-7.9c3.72-2.15,5.01-6.95,2.86-10.67l-10.86-18.82c-2.15-3.72-6.95-5.01-10.67-2.86l-14.19,8.19
			c-0.03,0.02-0.05,0.05-0.08,0.07c-2.13-1.44-4.41-2.67-6.78-3.72V58.38c0-4.3-3.52-7.81-7.81-7.81h-21.73
			c-4.3,0-7.81,3.52-7.81,7.81v16.39c0,0.05,0.03,0.1,0.03,0.15c-2.32,1.14-4.53,2.47-6.6,3.98l-13.72-7.92
			c-3.72-2.15-8.52-0.86-10.67,2.86L51.81,92.65c-2.15,3.72-0.86,8.53,2.86,10.67l14.19,8.2c0.05,0.03,0.1,0.02,0.15,0.05
			c-0.07,1.01-0.15,2.01-0.15,3.03c0,1.59,0.09,3.15,0.26,4.69l-13.69,7.9c-3.72,2.15-5.01,6.95-2.86,10.67l10.86,18.82
			c2.15,3.72,6.95,5.01,10.67,2.86l14.19-8.19c0.03-0.02,0.05-0.05,0.08-0.07c2.13,1.44,4.41,2.67,6.78,3.72v15.82
			c0,4.3,3.52,7.81,7.81,7.81h21.73c4.3,0,7.81-3.52,7.81-7.81v-16.39c0-0.05-0.03-0.1-0.03-0.15c2.32-1.14,4.53-2.47,6.6-3.98
			l13.72,7.92c3.72,2.15,8.52,0.86,10.67-2.86l10.86-18.82C176.5,132.83,175.21,128.02,171.49,125.87z M113.08,138.92
			c-13.43,0-24.32-10.89-24.32-24.32s10.89-24.32,24.32-24.32s24.32,10.89,24.32,24.32S126.51,138.92,113.08,138.92z"/>
	</g>
</g>
<g id="_x37_-4" class="st0">
	<g class="st1">
		<g>
			<path class="st8" d="M178.44,75.95l44.98,27.57c-0.23-2.33-0.52-4.64-0.89-6.93c-8.6-52.69-54.33-92.91-109.45-92.91
				C51.82,3.68,2.17,53.34,2.17,114.6c0,45.05,26.86,83.81,65.43,101.18l-19.91-64.36L178.44,75.95z"/>
			<polygon class="st9" points="67.6,215.78 67.61,215.78 67.6,215.78 			"/>
			<path class="st9" d="M223.43,103.53l-0.01-0.01c0,0.01,0,0.01,0,0.02L223.43,103.53z"/>
			<path class="st10" d="M223.42,103.54c0-0.01,0-0.01,0-0.02l-44.98-27.57L47.69,151.42l19.91,64.36c0,0,0,0,0.01,0
				c8.78,3.95,18.16,6.8,27.97,8.36c5.7,0.9,11.55,1.38,17.5,1.38c61.26,0,110.92-49.66,110.92-110.92
				C224,110.86,223.79,107.18,223.42,103.54z"/>
		</g>
		<g>
			<g>
				<path class="st11" d="M174.1,74.35H52.06c-3.72,0-6.77,3.04-6.77,6.77v67.67c0,3.72,3.05,6.77,6.77,6.77h53.75v13.21H78.17v7.28
					h69.81v-7.28h-27.63v-13.21h53.74c3.72,0,6.77-3.04,6.77-6.77V81.11C180.87,77.39,177.82,74.35,174.1,74.35z"/>
				<rect x="45.29" y="139.08" class="st6" width="135.57" height="3.45"/>
				<g>
					<circle class="st6" cx="113.08" cy="149.04" r="3.76"/>
					<circle class="st6" cx="124" cy="149.04" r="2.38"/>
					<circle class="st6" cx="102.17" cy="149.04" r="2.38"/>
				</g>
			</g>
			<g>
				<rect x="62.44" y="66.72" class="st12" width="101.28" height="61.62"/>
				<path class="st13" d="M113.89,128.34l-4.75-2.2c-10.15-4.7-21.21-7.13-32.4-7.13h-3.18V53.16h8.37c9.79,0,19.33,3.09,27.25,8.83
					l4.7,3.4V128.34z"/>
				<path class="st13" d="M113.89,128.34l4.75-2.2c10.15-4.7,21.21-7.13,32.4-7.13h3.18V53.16h-8.37c-9.79,0-19.33,3.09-27.25,8.83
					l-4.7,3.4V128.34z"/>
			</g>
		</g>
	</g>
</g>
<g id="_x37_-3" class="st0">
	<g class="st1">
		<g>
			<path class="st8" d="M185.1,80.91L224,114.6c0-6.13-0.51-12.14-1.46-18.01c-8.6-52.69-54.33-92.91-109.45-92.91
				C51.82,3.68,2.17,53.34,2.17,114.6c0,44.46,26.17,82.79,63.94,100.48l-24.24-47.01L185.1,80.91z"/>
			<path class="st14" d="M66.11,215.08L66.11,215.08c0-0.01,0-0.01-0.01-0.01L66.11,215.08z"/>
			<path class="st10" d="M185.1,80.91L41.87,168.06l24.24,47.01c0,0,0.01,0,0.01,0.01c9.2,4.31,19.09,7.41,29.46,9.05
				c5.7,0.9,11.55,1.38,17.5,1.38c61.26,0,110.92-49.66,110.92-110.92L185.1,80.91z"/>
		</g>
		<g>
			<g>
				<rect x="41.87" y="80.91" class="st15" width="143.23" height="87.15"/>
				<path class="st16" d="M114.63,168.06l-6.72-3.11c-14.36-6.64-30-10.08-45.82-10.08h-4.5V61.73h11.84
					c13.84,0,27.33,4.37,38.54,12.49l6.64,4.81V168.06z"/>
				<path class="st16" d="M114.63,168.06l6.72-3.11c14.36-6.64,30-10.08,45.82-10.08h4.5V61.73h-11.84
					c-13.84,0-27.33,4.37-38.54,12.49l-6.64,4.81V168.06z"/>
			</g>
		</g>
		<path class="st17" d="M196.06,147.72l-8.02-4.63c-0.03-0.02-0.06-0.01-0.09-0.03c0.04-0.57,0.09-1.13,0.09-1.71
			c0-0.9-0.05-1.78-0.14-2.65l7.74-4.47c2.1-1.21,2.83-3.93,1.62-6.03l-6.14-10.63c-1.21-2.1-3.93-2.83-6.03-1.62l-8.02,4.63
			c-0.02,0.01-0.03,0.03-0.05,0.04c-1.2-0.81-2.49-1.51-3.83-2.1v-8.94c0-2.43-1.99-4.42-4.42-4.42h-12.28
			c-2.43,0-4.42,1.99-4.42,4.42v9.26c0,0.03,0.02,0.06,0.02,0.08c-1.31,0.64-2.56,1.39-3.73,2.25l-7.76-4.48
			c-2.1-1.21-4.82-0.49-6.03,1.62l-6.14,10.63c-1.21,2.1-0.49,4.82,1.62,6.03l8.02,4.63c0.03,0.02,0.06,0.01,0.09,0.03
			c-0.04,0.57-0.09,1.13-0.09,1.71c0,0.9,0.05,1.78,0.14,2.65l-7.74,4.47c-2.1,1.21-2.83,3.93-1.62,6.03l6.14,10.63
			c1.21,2.1,3.93,2.83,6.03,1.62l8.02-4.63c0.02-0.01,0.03-0.03,0.05-0.04c1.2,0.81,2.49,1.51,3.83,2.1v8.94
			c0,2.43,1.99,4.42,4.42,4.42h12.28c2.43,0,4.42-1.99,4.42-4.42v-9.26c0-0.03-0.02-0.05-0.02-0.08c1.31-0.64,2.56-1.39,3.73-2.25
			l7.76,4.48c2.1,1.21,4.82,0.49,6.03-1.62l6.14-10.63C198.89,151.65,198.17,148.93,196.06,147.72z M163.05,155.09
			c-7.59,0-13.74-6.15-13.74-13.74c0-7.59,6.15-13.74,13.74-13.74c7.59,0,13.74,6.15,13.74,13.74
			C176.8,148.93,170.64,155.09,163.05,155.09z"/>
	</g>
</g>
<g id="_x37_-2" class="st0">
	<g class="st1">
		<g>
			<path class="st8" d="M161.13,49.66l62.47,64.72C223.49,53.44,174.05,4.07,113.08,4.07C52.04,4.07,2.55,53.56,2.55,114.6
				c0,47.38,29.82,87.8,71.71,103.51l-24.63-38.27L161.13,49.66z"/>
			<path class="st10" d="M223.61,114.6c0-0.07,0-0.14,0-0.22l-62.47-64.72L49.64,179.84l24.63,38.27
				c12.08,4.53,25.15,7.01,38.81,7.01C174.12,225.12,223.61,175.64,223.61,114.6z"/>
		</g>
		<g>
			<g>
				<g>
					<g>
						<path class="st18" d="M113.08,103.63h60.75c2.67,0,3.76-4.56,1.58-6.61L147.76,71L119.6,44.5c-3.65-3.43-9.39-3.43-13.04,0
							L78.4,71L50.75,97.02c-2.18,2.05-1.09,6.61,1.58,6.61H113.08z"/>
					</g>
					<g>
						<rect x="50.73" y="99.76" class="st18" width="125.03" height="65.09"/>
					</g>
				</g>
			</g>
			<path class="st19" d="M154.61,162.92H71.55c-4.73,0-8.59-3.87-8.59-8.59V55.51c0-4.73,3.87-8.59,8.59-8.59h83.06
				c4.73,0,8.59,3.87,8.59,8.59v98.82C163.21,159.05,159.34,162.92,154.61,162.92z"/>
			<g>
				<g>
					<path class="st20" d="M113.22,63.19h3.64c3.2,0.23,6.28,0.92,9.24,2.08c3.54,1.5,6.47,4.06,8.78,7.68
						c2.39,4.47,2.93,9.23,1.62,14.27c-0.69,3.24-2.83,6.51-6.41,9.82c-3.51,2.93-6.86,4.01-10.05,3.24
						c-1.19-0.23-2.16-0.69-2.89-1.39c-0.77-0.92-1.62-1.02-2.54-0.29c-3.35,2.16-7.09,2.45-11.21,0.87
						c-0.69-0.23-1.46-0.73-2.31-1.5c-2.7-2.77-3.76-6.12-3.18-10.05c0.46-3.12,1.98-6.2,4.56-9.24c4.35-4.97,8.99-6.86,13.92-5.66
						c0.77,0.15,1.46,0.4,2.08,0.75c0.92,0.66,1.44,0.79,1.56,0.4c0.5-1.08,1.42-1.62,2.77-1.62c1.62,0.12,2.75,1.02,3.41,2.72
						c0.19,0.39,0.17,0.77-0.06,1.16l-4.74,16.18c-0.19,0.35-0.04,0.71,0.46,1.1c2.2,0.96,4.35-0.06,6.47-3.06
						c2.35-3.27,3.24-6.8,2.66-10.57c-0.39-2.58-1.91-5.03-4.56-7.34c-2.81-2.04-5.89-3.16-9.24-3.35
						c-5.35-0.5-10.4,1.02-15.14,4.56c-1.62,1.16-2.97,2.56-4.04,4.22c-1.93,3.39-2.77,6.99-2.54,10.8
						c0.19,3.43,1.08,6.51,2.66,9.24c1.46,2.43,3.47,4.26,6.01,5.49c2.54,1.08,5.16,1.68,7.86,1.79h3.06
						c5.39-0.19,10.03-2.08,13.92-5.66c0.88-1.12,1.94-1.66,3.18-1.62c0.92,0.04,1.69,0.4,2.31,1.1c1.27,1.85,1.1,3.54-0.52,5.08
						c-4.01,3.7-8.63,5.91-13.87,6.64c-5.59,0.92-10.88,0.65-15.89-0.81c-3.39-0.92-6.39-2.73-9.01-5.43
						c-2.66-2.89-4.41-5.97-5.26-9.24c-0.54-1.96-0.87-3.99-0.98-6.07v-3.12c0.27-3.35,1.12-6.43,2.54-9.24
						c2.89-5.16,7.09-9.03,12.59-11.61c2.35-1.08,4.66-1.73,6.93-1.96C111.72,63.46,112.45,63.35,113.22,63.19z M112.82,78.38
						c-1.81,0.31-3.39,1.31-4.74,3c-2.39,3.04-3.47,6.2-3.24,9.47c0.12,0.85,0.38,1.62,0.81,2.31c0.54,0.89,1.25,1.44,2.14,1.68
						c2.7,0.35,5.03-0.71,6.99-3.18c0.42-0.5,0.65-0.88,0.69-1.16c0.73-2.7,1.5-5.39,2.31-8.09c0.15-0.42,0.13-1-0.06-1.73
						c-0.12-0.81-0.67-1.5-1.68-2.08C115.25,78.23,114.17,78.15,112.82,78.38z"/>
				</g>
			</g>
			<path class="st7" d="M176.27,98.52c0.56,1.49,0.38,3.46-0.86,4.63l-27.65,26.02l-28.16,26.5c-3.65,3.43-9.39,3.43-13.04,0
				l-28.16-26.5l-27.65-26.02c-1.58-1.49-1.43-4.29-0.22-5.72c-1.15,0.84-1.9,2.19-1.9,3.71v76.29c0,2.58,2.11,4.69,4.69,4.69
				h119.52c2.58,0,4.69-2.11,4.69-4.69v-75.42C177.53,100.69,177.05,99.47,176.27,98.52z"/>
			<path class="st21" d="M113.08,180.97h60.75c2.67,0,3.76-4.56,1.58-6.61l-27.65-26.02l-28.16-26.5c-3.65-3.43-9.39-3.43-13.04,0
				l-28.16,26.5l-27.65,26.02c-2.18,2.05-1.09,6.61,1.58,6.61H113.08z"/>
		</g>
	</g>
</g>
<g id="_x37_-1" class="st0">
	<g class="st1">
		<g>
			<g>
				<g>
					<path class="st8" d="M180.42,68.01l43.3,39.2c-0.24-3.59-0.63-7.13-1.2-10.62c-8.6-52.69-54.33-92.91-109.45-92.91
						C51.82,3.68,2.17,53.34,2.17,114.6c0,47.77,30.21,88.46,72.55,104.07l-28.07-76.63L180.42,68.01z"/>
				</g>
				<path class="st8" d="M74.73,218.7l0.02-0.02c-0.01,0-0.02-0.01-0.03-0.01L74.73,218.7z"/>
				<path class="st8" d="M223.75,107.23l-0.02-0.02c0,0.01,0,0.02,0,0.03L223.75,107.23z"/>
				<g>
					<path class="st10" d="M223.73,107.24c0-0.01,0-0.02,0-0.03l-43.3-39.2L46.65,142.03l28.07,76.63c0.01,0,0.02,0.01,0.03,0.01
						c6.67,2.46,13.63,4.31,20.82,5.45c5.7,0.9,11.55,1.38,17.5,1.38c61.26,0,110.92-49.66,110.92-110.92
						C224,112.12,223.89,109.67,223.73,107.24z"/>
				</g>
			</g>
		</g>
		<g>
			<g>
				<path class="st17" d="M174.1,63.58H52.06c-3.72,0-6.77,3.04-6.77,6.77v67.67c0,3.72,3.05,6.77,6.77,6.77h53.75v13.21H78.17v7.28
					h69.81v-7.28h-27.63v-13.21h53.74c3.72,0,6.77-3.04,6.77-6.77V70.35C180.87,66.63,177.82,63.58,174.1,63.58z"/>
				<rect x="45.29" y="128.32" class="st6" width="135.57" height="3.45"/>
				<g>
					<circle class="st6" cx="113.08" cy="138.28" r="3.76"/>
					<circle class="st6" cx="124" cy="138.28" r="2.38"/>
					<circle class="st6" cx="102.17" cy="138.28" r="2.38"/>
				</g>
			</g>
			<g>
				<rect x="68.94" y="73.38" class="st5" width="73.53" height="47.1"/>
				<rect x="68.94" y="80.46" class="st21" width="73.53" height="40.02"/>
			</g>
			<circle class="st22" cx="83.87" cy="99.7" r="10.91"/>
			<g>
				<g>
					<g>
						<g>
							<g>
								<line class="st23" x1="99" y1="88.79" x2="101.4" y2="88.79"/>
								<line class="st24" x1="106.19" y1="88.79" x2="132.51" y2="88.79"/>
								<line class="st23" x1="134.9" y1="88.79" x2="137.3" y2="88.79"/>
							</g>
						</g>
						<g>
							<g>
								<line class="st23" x1="99" y1="99.7" x2="101.4" y2="99.7"/>
								<line class="st24" x1="106.19" y1="99.7" x2="132.51" y2="99.7"/>
								<line class="st23" x1="134.9" y1="99.7" x2="137.3" y2="99.7"/>
							</g>
						</g>
						<g>
							<g>
								<line class="st23" x1="99" y1="110.62" x2="101.4" y2="110.62"/>
								<line class="st24" x1="106.19" y1="110.62" x2="132.51" y2="110.62"/>
								<line class="st23" x1="134.9" y1="110.62" x2="137.3" y2="110.62"/>
							</g>
						</g>
					</g>
				</g>
			</g>
			<g>
				<path class="st25" d="M136.12,113.17l2.21,35.98c0.09,1.49,1.67,2.41,3.02,1.75l5.47-2.68c1.04-0.51,2.3-0.08,2.81,0.96
					l7.5,15.27c0.51,1.04,1.77,1.47,2.81,0.96l6.44-3.17c1.04-0.51,1.47-1.77,0.96-2.81l-7.5-15.27c-0.51-1.04-0.08-2.3,0.96-2.81
					l5.47-2.68c1.34-0.66,1.58-2.47,0.46-3.46l-27.12-23.74C138.19,110.23,136.01,111.31,136.12,113.17z"/>
			</g>
		</g>
	</g>
</g>
<g id="_x37_-0" class="st0">
	<g class="st1">
		<path class="st8" d="M120.28,114.86l54.9-62.67l47.35,44.4c-8.6-52.69-54.33-92.91-109.45-92.91C51.82,3.68,2.17,53.34,2.17,114.6
			c0,55.3,40.47,101.14,93.41,109.54L44.3,166.99L120.28,114.86z"/>
		<path class="st10" d="M224,114.6c0-6.13-0.51-12.14-1.46-18.01l-47.35-44.4l-54.9,62.67L44.3,166.99l51.28,57.14
			c5.7,0.9,11.55,1.38,17.5,1.38C174.34,225.51,224,175.85,224,114.6z"/>
		<g>
			<g>
				<path class="st26" d="M155.51,169.48H49.44c-3.14,0-5.71-2.57-5.71-5.71V90.52c0-3.14,2.57-5.71,5.71-5.71h106.07
					c3.14,0,5.71,2.57,5.71,5.71v73.25C161.22,166.91,158.65,169.48,155.51,169.48z"/>
				<path class="st26" d="M90.18,89.57H55.51c-2.7,0-4.92-2.21-4.92-4.92v-5.39c0-2.7,2.21-4.92,4.92-4.92h34.67
					c2.7,0,4.92,2.21,4.92,4.92v5.39C95.1,87.35,92.89,89.57,90.18,89.57z"/>
				<path class="st27" d="M151.39,169.48h-94.5c-2.79,0-5.08-2.28-5.08-5.08v-65c0-2.79,2.28-5.08,5.08-5.08h94.5
					c2.79,0,5.08,2.28,5.08,5.08v65C156.46,167.19,154.18,169.48,151.39,169.48z"/>
			</g>
			<g>
				<path class="st19" d="M143.24,39.75c-21.64,0-39.19,12.1-39.19,27.03c0,10.63,8.91,19.83,21.85,24.24
					c-0.97,2.78-2.55,5.87-5.09,7.65c0,0,10.1,0.91,15.49-5.3c2.25,0.28,4.57,0.43,6.94,0.43c21.64,0,39.19-12.1,39.19-27.03
					S164.89,39.75,143.24,39.75z"/>
				<g>
					<g>
						<circle class="st20" cx="127.03" cy="66.24" r="3.78"/>
						<circle class="st20" cx="143.24" cy="66.24" r="3.78"/>
						<circle class="st20" cx="159.46" cy="66.24" r="3.78"/>
					</g>
				</g>
			</g>
			<path class="st7" d="M155.97,169.48H50.24c-3.23,0-5.27-2.22-4.52-4.93l15.73-57.2c0.75-2.71,4-4.93,7.23-4.93h105.74
				c3.23,0,5.27,2.22,4.52,4.93l-15.73,57.2C162.46,167.26,159.21,169.48,155.97,169.48z"/>
		</g>
	</g>
</g>
<g id="_x36_-4" class="st0">
	<g class="st1">
		<path class="st28" d="M78.56,157.95l63.61-9.79l17.94-54.91l56.67,57.58c3.97-11.35,6.13-23.54,6.13-36.24
			c0-60.65-49.17-109.82-109.82-109.82S3.26,53.95,3.26,114.6c0,57.79,44.64,105.16,101.33,109.5L49.2,164.48L78.56,157.95z"/>
		<path class="st14" d="M216.77,150.84L160.1,93.26l-17.94,54.91l-63.61,9.79l-29.36,6.52l55.39,59.61c2.8,0.21,5.63,0.32,8.49,0.32
			C161.03,224.42,201.8,193.68,216.77,150.84z"/>
		<g>
			<g>
				<g>
					<g>
						<g>
							<circle class="st7" cx="149.77" cy="106.88" r="16.69"/>
						</g>
						<path class="st7" d="M176.8,164.44c0.01-0.48,0.03-0.96,0.03-1.44c0-20.19-12.37-36.55-27.63-36.55s-27.63,16.36-27.63,36.55
							c0,0.48,0.01,0.96,0.03,1.44H176.8z"/>
					</g>
				</g>
				<g>
					<g>
						<g>
							<circle class="st7" cx="77.82" cy="106.88" r="16.69"/>
						</g>
						<path class="st7" d="M104.85,164.44c0.01-0.48,0.03-0.96,0.03-1.44c0-20.19-12.37-36.55-27.63-36.55S49.62,142.81,49.62,163
							c0,0.48,0.01,0.96,0.03,1.44H104.85z"/>
					</g>
				</g>
			</g>
			<g>
				<circle class="st29" cx="113.8" cy="124.72" r="16.69"/>
				<path class="st29" d="M140.83,182.28c0.01-0.48,0.03-0.96,0.03-1.44c0-20.19-12.37-36.55-27.63-36.55s-27.63,16.36-27.63,36.55
					c0,0.48,0.01,0.96,0.03,1.44H140.83z"/>
			</g>
			<g>
				<path class="st29" d="M140.06,47.02c-18.32,0-33.17,8.73-33.17,19.49c0,7.67,7.54,14.3,18.49,17.48c-0.82,2-2.16,4.24-4.31,5.52
					c0,0,8.55,0.66,13.11-3.82c1.91,0.2,3.87,0.31,5.87,0.31c18.32,0,33.17-8.73,33.17-19.49S158.38,47.02,140.06,47.02z"/>
				<g>
					<ellipse class="st25" cx="126.34" cy="66.12" rx="3.2" ry="2.73"/>
					<ellipse class="st25" cx="140.06" cy="66.12" rx="3.2" ry="2.73"/>
					<ellipse class="st25" cx="153.79" cy="66.12" rx="3.2" ry="2.73"/>
				</g>
			</g>
			<g>
				<path class="st7" d="M75.88,40.39c14.66,0,26.55,8.2,26.55,18.31c0,7.2-6.03,13.43-14.8,16.42c0.65,1.88,1.73,3.98,3.45,5.18
					c0,0-6.84,0.62-10.5-3.59c-1.53,0.19-3.1,0.29-4.7,0.29c-14.66,0-26.55-8.2-26.55-18.31S61.22,40.39,75.88,40.39z"/>
				<g>
					<circle class="st25" cx="86.87" cy="58.33" r="2.56"/>
					<circle class="st25" cx="75.88" cy="58.33" r="2.56"/>
					<circle class="st25" cx="64.9" cy="58.33" r="2.56"/>
				</g>
			</g>
		</g>
	</g>
</g>
<g id="_x36_-2" class="st0">
	<g class="st1">
		<g>
			<polygon class="st30" points="49.05,164.6 56.07,163.03 56.07,163.03 49.05,164.6 			"/>
			<path class="st28" d="M49.05,164.6L49.05,164.6l7.02-1.56l-6.58-12.98l52.67-1.15l40.69-26.57l20.68-39.57l55.02,63.08
				c2.94-9.92,4.6-20.38,4.6-31.25c0-60.79-49.28-110.08-110.08-110.08C52.29,4.52,3,53.8,3,114.6c0,51.26,35.06,94.27,82.49,106.52
				l-29.42-58.09L49.05,164.6z"/>
			<path class="st31" d="M218.56,145.84c-0.01,0.04-0.03,0.08-0.04,0.12l0.1-0.05L218.56,145.84z"/>
			<path class="st31" d="M85.53,221.19l0.08-0.05c-0.04-0.01-0.08-0.02-0.12-0.03L85.53,221.19z"/>
			<polygon class="st31" points="78.47,158.06 56.07,163.03 56.07,163.03 			"/>
			<path class="st14" d="M163.54,82.76l-20.68,39.57l-40.69,26.57l-52.67,1.15l6.58,12.98l29.42,58.09
				c0.04,0.01,0.08,0.02,0.12,0.03c6.14,1.58,12.46,2.71,18.96,3.2c2.81,0.21,5.65,0.32,8.51,0.32c48.06,0,88.93-30.81,103.93-73.75
				c0.57-1.62,1.01-3.3,1.51-4.96c0.01-0.04,0.03-0.08,0.04-0.12L163.54,82.76z"/>
		</g>
		<g>
			<g>
				<g>
					<g>
						<g>
							<circle class="st7" cx="149.86" cy="92.36" r="16.73"/>
						</g>
						<path class="st7" d="M176.95,150.05c0.01-0.48,0.03-0.96,0.03-1.44c0-20.23-12.4-36.64-27.69-36.64s-27.69,16.4-27.69,36.64
							c0,0.48,0.01,0.96,0.03,1.44H176.95z"/>
					</g>
				</g>
				<g>
					<g>
						<g>
							<circle class="st7" cx="77.74" cy="92.36" r="16.73"/>
						</g>
						<path class="st7" d="M104.83,150.05c0.01-0.48,0.03-0.96,0.03-1.44c0-20.23-12.4-36.64-27.69-36.64s-27.69,16.4-27.69,36.64
							c0,0.48,0.01,0.96,0.03,1.44H104.83z"/>
					</g>
				</g>
			</g>
			<g>
				<circle class="st29" cx="113.8" cy="110.24" r="16.73"/>
				<path class="st29" d="M140.89,167.94c0.01-0.48,0.03-0.96,0.03-1.44c0-20.23-12.4-36.64-27.69-36.64s-27.69,16.4-27.69,36.64
					c0,0.48,0.01,0.96,0.03,1.44H140.89z"/>
			</g>
		</g>
	</g>
</g>
<g id="_x36_-1" class="st0">
	<g class="st1">
		<g>
			<path class="st28" d="M169.76,49.26l51.98,43.07C211.43,41.75,166.71,3.68,113.08,3.68C51.82,3.68,2.17,53.34,2.17,114.6
				c0,55.3,40.47,101.14,93.41,109.54c1.22,0.19,2.46,0.36,3.69,0.51l-30.62-44.71L169.76,49.26z"/>
			<polygon class="st9" points="99.28,224.65 99.28,224.65 99.27,224.65 			"/>
			<path class="st9" d="M221.75,92.34L221.75,92.34C221.74,92.34,221.74,92.34,221.75,92.34L221.75,92.34z"/>
			<path class="st14" d="M222.53,96.59c-0.23-1.43-0.51-2.84-0.79-4.24c0,0,0-0.01,0-0.01l-51.98-43.07L68.66,179.93l30.62,44.71
				c0,0,0.01,0,0.01,0c4.52,0.56,9.12,0.87,13.8,0.87c61.26,0,110.92-49.66,110.92-110.92C224,108.47,223.49,102.45,222.53,96.59z"
				/>
		</g>
		<g>
			
				<rect x="53.87" y="64.04" transform="matrix(6.123234e-17 -1 1 6.123234e-17 4.6105 233.806)" class="st21" width="130.67" height="101.11"/>
			<g>
				<path class="st25" d="M80.4,154.24L80.4,154.24c0,2.81-2.3,5.11-5.11,5.11H61.51c-2.81,0-5.11-2.3-5.11-5.11l0,0
					c0-2.81,2.3-5.11,5.11-5.11h13.79C78.1,149.13,80.4,151.43,80.4,154.24z"/>
				<path class="st25" d="M80.4,114.6L80.4,114.6c0,2.81-2.3,5.11-5.11,5.11H61.51c-2.81,0-5.11-2.3-5.11-5.11v0
					c0-2.81,2.3-5.11,5.11-5.11h13.79C78.1,109.49,80.4,111.79,80.4,114.6z"/>
				<path class="st25" d="M80.4,74.96L80.4,74.96c0,2.81-2.3,5.11-5.11,5.11H61.51c-2.81,0-5.11-2.3-5.11-5.11v0
					c0-2.81,2.3-5.11,5.11-5.11h13.79C78.1,69.85,80.4,72.15,80.4,74.96z"/>
			</g>
			
				<rect x="104.15" y="61.15" transform="matrix(6.123234e-17 -1 1 6.123234e-17 26.4118 218.7445)" class="st32" width="36.86" height="70.03"/>
			
				<rect x="68.66" y="49.26" transform="matrix(-1 -1.224647e-16 1.224647e-16 -1 238.4165 106.9051)" class="st25" width="101.11" height="8.38"/>
			
				<rect x="68.66" y="171.55" transform="matrix(-1 -1.224647e-16 1.224647e-16 -1 238.4165 351.486)" class="st25" width="101.11" height="8.38"/>
			<g>
				<line class="st23" x1="122.02" y1="124.53" x2="157.59" y2="124.53"/>
				<line class="st23" x1="122.02" y1="133.62" x2="157.59" y2="133.62"/>
			</g>
		</g>
	</g>
</g>
<g id="_x36_-0" class="st0">
	<g class="st1">
		<g>
			<g>
				<g>
					<path class="st28" d="M109.65,50.7l113.8,74.83c0.35-3.6,0.54-7.24,0.54-10.93c0-6.13-0.51-12.14-1.46-18.01
						c-8.6-52.69-54.33-92.91-109.45-92.91C51.82,3.68,2.17,53.34,2.17,114.6c0,44.21,25.88,82.36,63.31,100.17l-19.14-59.41
						L109.65,50.7z"/>
				</g>
				<path class="st28" d="M65.48,214.79l0.01-0.01c-0.01,0-0.01-0.01-0.02-0.01L65.48,214.79z"/>
				<polygon class="st28" points="223.45,125.53 223.45,125.54 223.46,125.53 				"/>
				<g>
					<path class="st14" d="M109.65,50.7L46.33,155.36l19.14,59.41c0.01,0,0.01,0.01,0.02,0.01c9.38,4.46,19.48,7.67,30.08,9.35
						c5.7,0.9,11.55,1.38,17.5,1.38c57.56,0,104.88-43.85,110.37-99.97c0,0,0-0.01,0-0.01L109.65,50.7z"/>
				</g>
			</g>
		</g>
		<g>
			<g>
				<path class="st5" d="M106.29,105.35l-4.22,5.47l-7.43,9.62l-7.43-9.62L83,105.35c-20.98,5.57-36.56,25.83-36.67,50.02h96.63
					C142.86,131.17,127.28,110.91,106.29,105.35z"/>
				<g>
					<circle class="st29" cx="94.65" cy="73.16" r="27.01"/>
					<path class="st29" d="M94.64,120.43l7.43-9.62l4.22-5.47c-3.73-0.99-7.63-1.52-11.64-1.52c-4.02,0-7.92,0.53-11.65,1.52
						l4.22,5.46L94.64,120.43z"/>
				</g>
			</g>
			<path class="st17" d="M190.38,153.23l-8.02-4.63c-0.03-0.02-0.06-0.01-0.09-0.03c0.04-0.57,0.09-1.13,0.09-1.71
				c0-0.9-0.05-1.78-0.14-2.65l7.74-4.47c2.1-1.21,2.83-3.93,1.62-6.03l-6.14-10.63c-1.21-2.1-3.93-2.83-6.03-1.62l-8.02,4.63
				c-0.02,0.01-0.03,0.03-0.05,0.04c-1.2-0.81-2.49-1.51-3.83-2.1v-8.94c0-2.43-1.99-4.42-4.42-4.42H150.8
				c-2.43,0-4.42,1.99-4.42,4.42v9.26c0,0.03,0.02,0.06,0.02,0.08c-1.31,0.64-2.56,1.39-3.73,2.25l-7.76-4.48
				c-2.1-1.21-4.82-0.49-6.03,1.62l-6.14,10.63c-1.21,2.1-0.49,4.82,1.62,6.03l8.02,4.63c0.03,0.02,0.06,0.01,0.09,0.03
				c-0.04,0.57-0.09,1.13-0.09,1.71c0,0.9,0.05,1.78,0.14,2.65l-7.74,4.47c-2.1,1.21-2.83,3.93-1.62,6.03l6.14,10.63
				c1.21,2.1,3.93,2.83,6.03,1.62l8.02-4.63c0.02-0.01,0.03-0.03,0.05-0.04c1.2,0.81,2.49,1.51,3.83,2.1v8.94
				c0,2.43,1.99,4.42,4.42,4.42h12.28c2.43,0,4.42-1.99,4.42-4.42v-9.26c0-0.03-0.02-0.05-0.02-0.08c1.31-0.64,2.56-1.39,3.73-2.25
				l7.76,4.48c2.1,1.21,4.82,0.49,6.03-1.62l6.14-10.63C193.21,157.16,192.48,154.44,190.38,153.23z M157.37,160.6
				c-7.59,0-13.74-6.15-13.74-13.74c0-7.59,6.15-13.74,13.74-13.74s13.74,6.15,13.74,13.74C171.11,154.45,164.96,160.6,157.37,160.6
				z"/>
		</g>
	</g>
</g>
<g id="_x35_-5" class="st0">
	<g class="st1">
		<g>
			<path class="st2" d="M139.75,143.39l-19.43,9.81l-40.77-47.06l48.03-79.8l93.36,76.05c-1.43-12.52-5-24.39-10.32-35.25
				c-17.49-36.31-54.63-61.37-97.63-61.37C60.51,5.78,16.76,43.09,6.8,92.63c-1.49,7.18-2.29,14.61-2.29,22.23
				c0,39.87,21.51,74.7,53.54,93.58c0.83,0.5,1.66,0.97,2.5,1.44c0.28,0.16,0.56,0.33,0.84,0.48c2.79,1.53,5.65,2.87,8.54,4.11
				l9.57-18.14L139.75,143.39z"/>
			<path class="st33" d="M210.01,163.73l0.02-0.01l-0.01-0.01C210.02,163.72,210.01,163.72,210.01,163.73z"/>
			<path class="st33" d="M98.32,222.41l0.02-0.01c-0.01,0-0.02,0-0.03,0L98.32,222.41z"/>
			<polygon class="st33" points="220.93,102.4 220.93,102.4 220.93,102.4 			"/>
			<path class="st33" d="M122.03,223.05l-0.01-0.03c-0.04,0-0.07,0.01-0.11,0.01L122.03,223.05z"/>
			<path class="st33" d="M69.91,214.51l0.24,0.04c-0.07-0.03-0.15-0.06-0.22-0.09L69.91,214.51z"/>
			<path class="st4" d="M220.93,102.4C220.93,102.4,220.93,102.4,220.93,102.4l-93.36-76.06l-48.03,79.8l40.77,47.06l19.43-9.81
				l-60.24,52.94l-9.57,18.14c0.07,0.03,0.15,0.06,0.22,0.09c1.63,0.7,3.26,1.41,4.93,2.01c0.48,0.18,0.96,0.35,1.44,0.52
				c0.32,0.11,0.64,0.22,0.97,0.33c6.67,2.32,13.64,3.99,20.83,4.98c0.01,0,0.02,0,0.03,0c4.82,0.66,9.74,1.02,14.74,1.02
				c2.97,0,5.91-0.15,8.83-0.38c0.04,0,0.07-0.01,0.11-0.01c38.55-3.14,71.38-26.41,88-59.29c0-0.01,0.01-0.01,0.01-0.02
				c7.42-14.69,11.62-31.28,11.62-48.86C221.64,110.64,221.4,106.49,220.93,102.4z"/>
		</g>
		<g>
			<g>
				<path class="st34" d="M104.58,152.84l6.53,1.98c1.08,0.33,2.23,0.34,3.31,0.04l39.06-11c3.06-0.86,6.27,0.87,7.2,3.89l0,0
					c0.86,2.8-0.57,5.77-3.3,6.88l-33.87,13.72l-49.06,21.15c-2.09,0.9-4.54,0.5-6.25-1.02l-2.29-2.05L104.58,152.84z"/>
				<path class="st26" d="M106.89,147.28l7.18,1.59c1.18,0.26,2.42,0.18,3.55-0.23l41.03-15.03c3.21-1.18,6.81,0.42,8.05,3.58h0
					c1.15,2.94-0.13,6.24-2.98,7.66l-35.24,17.51L77.55,189.1c-2.17,1.14-4.84,0.91-6.79-0.59l-2.63-2.01L106.89,147.28z"/>
				<path class="st29" d="M38.8,171.57l7.82-29.65c0.23-0.88,0.64-1.69,1.21-2.4l21.52-26.99c2.07-2.6,5.77-3.22,8.58-1.45l1.58,1
					c2.81,1.78,3.83,5.38,2.38,8.37l-7.25,14.88c-2.07,4.25,0.93,9.22,5.65,9.37l30.83,1c1.26,0.04,2.51-0.29,3.59-0.94l39.14-23.76
					c3.06-1.86,7.06-0.9,8.93,2.16l0,0c1.75,2.84,1.07,6.54-1.57,8.58l-32.73,25.22l-47.02,37.93c-2.01,1.62-4.78,1.9-7.07,0.72
					l-32.26-16.57C39.4,177.63,38.02,174.53,38.8,171.57z"/>
			</g>
			<path class="st35" d="M41.11,181.76l29.17,15.47c3.79,2.01,5.23,6.71,3.22,10.5l-3.56,6.71c-15.13-7.04-28.47-17.22-39.22-29.66
				C32.79,181.15,37.39,179.78,41.11,181.76z"/>
		</g>
		<g>
			<g>
				<g>
					<g>
						<g>
							<circle class="st29" cx="113.78" cy="41.19" r="20.28"/>
							<path class="st29" d="M146.62,106.14c0.02-0.52,0.03-1.04,0.03-1.56c0-21.88-15.03-39.62-33.57-39.62
								S79.51,82.7,79.51,104.58c0,0.52,0.02,1.04,0.03,1.56H146.62z"/>
						</g>
					</g>
				</g>
			</g>
		</g>
	</g>
</g>
<g id="_x35_-3" class="st0">
	<g class="st1">
		<g>
			<path class="st2" d="M223.86,109.98c-1.41-32.39-16.9-63.87-45.08-84.55c-6.27-4.6-12.86-8.43-19.66-11.53
				C112.36-7.81,55.26,5.66,23.59,48.82c-25.95,35.37-27.76,81.05-8.44,117.35c1.61,3.08,3.41,6.08,5.32,9.02L184.88,125
				L223.86,109.98z"/>
			<polygon class="st36" points="20.44,175.2 20.47,175.2 20.47,175.19 			"/>
			<path class="st36" d="M215.15,158.14l0-0.02C215.15,158.13,215.15,158.14,215.15,158.14L215.15,158.14z"/>
			<path class="st37" d="M223.91,109.96l-0.04,0.02c0,0.05,0.01,0.11,0.01,0.16L223.91,109.96z"/>
			<path class="st4" d="M223.87,110.14c0-0.05-0.01-0.11-0.01-0.16L184.88,125l-164.4,50.19c0,0,0,0,0,0.01
				c7.08,10.88,16.18,20.72,27.27,28.85c49.32,36.19,118.64,25.54,154.83-23.79c5.15-7.01,9.31-14.44,12.58-22.12
				c0-0.01,0.01-0.01,0.01-0.02c1.51-3.54,2.84-7.13,3.96-10.77c0.11-0.33,0.21-0.66,0.32-1c0.15-0.5,0.29-0.99,0.44-1.49
				c1.42-4.88,2.48-9.89,3.14-15.01c0.05-0.33,0.07-0.66,0.11-0.99c0.12-0.97,0.23-1.94,0.32-2.91
				C223.98,120.69,224.09,115.4,223.87,110.14z"/>
		</g>
		<g>
			<g>
				<path class="st34" d="M149.64,130.68l-2.31,6.57c-0.38,1.08-1.06,2.04-1.97,2.74l-32.63,25.49c-2.55,2-3.07,5.69-1.15,8.27l0,0
					c1.79,2.4,5.09,3.02,7.65,1.44l31.73-19.59l47.01-27.6c2.01-1.18,3.15-3.43,2.93-5.76l-0.3-3.12L149.64,130.68z"/>
				<path class="st26" d="M143.67,129.22l-3.02,6.86c-0.5,1.13-1.31,2.1-2.34,2.78l-37.13,24.69c-2.91,1.93-3.76,5.85-1.91,8.78l0,0
					c1.72,2.72,5.22,3.66,8.1,2.17l35.68-18.42l52.73-25.76c2.25-1.1,3.67-3.43,3.62-5.94l-0.07-3.38L143.67,129.22z"/>
				<path class="st29" d="M204.75,87.86L175.64,76.4c-0.86-0.34-1.78-0.49-2.7-0.46l-35.19,1.41c-3.39,0.14-6.13,2.8-6.37,6.19
					l-0.13,1.9c-0.23,3.38,2.11,6.4,5.45,7l16.61,3.01c4.74,0.86,7.03,6.33,4.3,10.3l-17.79,25.97c-0.73,1.06-1.75,1.89-2.94,2.39
					l-43.17,17.86c-3.38,1.4-5,5.26-3.62,8.65v0c1.28,3.15,4.74,4.83,8.01,3.88l40.5-11.7l59.59-15.79
					c2.54-0.67,4.45-2.78,4.86-5.38l5.84-36.54C209.38,92.02,207.66,89.01,204.75,87.86z"/>
			</g>
			<path class="st35" d="M211.73,95.91l-4.88,33.34c-0.63,4.33,2.36,8.36,6.69,8.99l7.67,1.12c3.34-16.7,3.02-33.81-0.72-50.17
				C216.26,88.7,212.36,91.66,211.73,95.91z"/>
		</g>
		<g>
			<g>
				<path class="st34" d="M78.53,138.08l1.84-5.64c0.3-0.93,0.87-1.75,1.62-2.37l27.29-22.33c2.14-1.75,2.5-4.9,0.82-7.06l0,0
					c-1.57-2.01-4.39-2.47-6.54-1.08l-26.64,17.28l-39.49,24.39c-1.68,1.04-2.62,2.98-2.38,4.96l0.32,2.65L78.53,138.08z"/>
				<path class="st26" d="M83.65,139.2l2.44-5.9c0.4-0.97,1.08-1.81,1.94-2.41l31.13-21.73c2.44-1.7,3.09-5.06,1.46-7.51l0,0
					c-1.52-2.28-4.51-3.02-6.93-1.69l-30.02,16.36l-44.4,22.94c-1.89,0.98-3.06,2.99-2.97,5.13l0.12,2.87L83.65,139.2z"/>
				<path class="st29" d="M32.44,175.58l25,9.2c0.74,0.27,1.53,0.39,2.31,0.34l29.93-1.88c2.88-0.18,5.17-2.5,5.3-5.39l0.08-1.62
					c0.13-2.88-1.92-5.41-4.77-5.86l-14.2-2.25c-4.06-0.64-6.1-5.25-3.86-8.69l14.65-22.45c0.6-0.92,1.46-1.65,2.46-2.09
					l36.41-16.03c2.85-1.26,4.15-4.58,2.92-7.43v0c-1.15-2.66-4.13-4.02-6.89-3.15l-34.25,10.74L37.09,133.6
					c-2.15,0.62-3.73,2.45-4.04,4.67l-4.27,31.22C28.42,172.13,29.94,174.66,32.44,175.58z"/>
			</g>
			<path class="st35" d="M26.34,168.86l3.51-28.47c0.46-3.7-2.17-7.07-5.87-7.53l-20.34-0.81c-2.52,14.28,12.99,36.86,16.8,43.15
				C24.07,175.54,25.89,172.49,26.34,168.86z"/>
		</g>
	</g>
</g>
<g id="_x35_-2" class="st0">
	<g class="st1">
		<g>
			<g>
				<g>
					<path class="st2" d="M161.13,49.66l62.47,64.72C223.49,53.44,174.05,4.07,113.08,4.07C52.04,4.07,2.55,53.56,2.55,114.6
						c0,47.38,29.82,87.8,71.71,103.51l-24.63-38.27L161.13,49.66z"/>
				</g>
				<g>
					<path class="st4" d="M223.61,114.6c0-0.07,0-0.14,0-0.22l-62.47-64.72L49.64,179.84l24.63,38.27
						c12.08,4.53,25.15,7.01,38.81,7.01C174.12,225.12,223.61,175.64,223.61,114.6z"/>
				</g>
			</g>
		</g>
		<g>
			<g>
				<g>
					<g>
						<path class="st18" d="M113.08,103.63h60.75c2.67,0,3.76-4.56,1.58-6.61L147.76,71L119.6,44.5c-3.65-3.43-9.39-3.43-13.04,0
							L78.4,71L50.75,97.02c-2.18,2.05-1.09,6.61,1.58,6.61H113.08z"/>
					</g>
					<g>
						<rect x="50.73" y="99.76" class="st18" width="125.03" height="65.09"/>
					</g>
				</g>
			</g>
			<path class="st19" d="M154.61,162.92H71.55c-4.73,0-8.59-3.87-8.59-8.59V55.51c0-4.73,3.87-8.59,8.59-8.59h83.06
				c4.73,0,8.59,3.87,8.59,8.59v98.82C163.21,159.05,159.34,162.92,154.61,162.92z"/>
			<path class="st7" d="M176.27,98.52c0.56,1.49,0.38,3.46-0.86,4.63l-27.65,26.02l-28.16,26.5c-3.65,3.43-9.39,3.43-13.04,0
				l-28.16-26.5l-27.65-26.02c-1.58-1.49-1.43-4.29-0.22-5.72c-1.15,0.84-1.9,2.19-1.9,3.71v76.29c0,2.58,2.11,4.69,4.69,4.69
				h119.52c2.58,0,4.69-2.11,4.69-4.69v-75.42C177.53,100.69,177.05,99.47,176.27,98.52z"/>
			<g>
				<g>
					<circle class="st29" cx="113.08" cy="91.35" r="37.85"/>
					<g>
						<g>
							<path class="st20" d="M113.33,68.47c0.7-0.07,1.42,0.19,2.15,0.79c0.74,0.74,1.05,1.49,0.95,2.26c0,0.84,0.42,1.35,1.26,1.52
								c2,0.35,4.03,1.12,6.09,2.31c2.59,1.89,3.95,4.27,4.1,7.14c-0.21,1.68-1.28,2.61-3.2,2.78c-1.75,0.04-2.87-0.82-3.36-2.57
								c-0.7-1.64-1.91-2.82-3.62-3.52c-0.84-0.21-1.26,0.11-1.26,0.95v6.51c0,0.84,0.42,1.35,1.26,1.52
								c2.56,0.53,4.59,1.16,6.09,1.89c0.87,0.42,1.68,1.03,2.42,1.84c2.06,2.28,2.94,4.94,2.63,7.98
								c-0.42,3.15-2.21,5.67-5.36,7.56c-1.68,0.95-3.61,1.59-5.78,1.94c-0.84,0.14-1.26,0.63-1.26,1.47
								c0.21,1.37-0.4,2.42-1.84,3.15c-1.26,0.53-2.45,0.16-3.57-1.1c-0.39-0.67-0.56-1.35-0.53-2.05c0-0.84-0.42-1.33-1.26-1.47
								c-2.45-0.49-4.48-1.24-6.09-2.26c-2-1.37-3.4-2.84-4.2-4.41c-0.63-1.12-1.16-2.52-1.58-4.2c-0.18-0.87-0.12-1.68,0.16-2.42
								c0.17-0.53,0.61-0.98,1.31-1.37c1.26-0.59,2.42-0.51,3.47,0.26c0.63,0.53,1.03,1.21,1.21,2.05c0.91,3.19,2.82,5.23,5.72,6.14
								c0.84,0.18,1.26-0.16,1.26-1V94c0-0.84-0.42-1.35-1.26-1.52c-1.16-0.24-2.49-0.66-3.99-1.26c-2.7-1.12-4.5-2.77-5.41-4.94
								c-0.63-1.58-0.84-3.17-0.63-4.78c0.28-2.24,1.58-4.32,3.89-6.25c1.71-1.26,3.74-2.03,6.09-2.31
								c0.87-0.07,1.31-0.53,1.31-1.37C110.53,69.86,111.48,68.83,113.33,68.47z M108.92,79.03l-0.58,0.16
								c-1.61,0.49-2.68,1.51-3.2,3.05c-0.11,1.37,0.59,2.59,2.1,3.68c0.77,0.42,1.42,0.7,1.94,0.84c0.87,0.28,1.31,0.02,1.31-0.79
								v-5.83C110.5,79.29,109.97,78.92,108.92,79.03z M120.95,95.36c-0.67-0.63-1.72-1.16-3.15-1.58
								c-0.91-0.14-1.37,0.18-1.37,0.95v7.46c0,0.84,0.42,1.19,1.26,1.05c1.64-0.38,2.98-1,3.99-1.84c1.26-1.16,1.58-2.5,0.95-4.04
								C122.21,96.55,121.65,95.89,120.95,95.36z"/>
						</g>
					</g>
					<circle class="st38" cx="113.08" cy="91.35" r="31.53"/>
				</g>
			</g>
			<path class="st21" d="M113.08,180.97h60.75c2.67,0,3.76-4.56,1.58-6.61l-27.65-26.02l-28.16-26.5c-3.65-3.43-9.39-3.43-13.04,0
				l-28.16,26.5l-27.65,26.02c-2.18,2.05-1.09,6.61,1.58,6.61H113.08z"/>
		</g>
	</g>
</g>
<g id="_x35_-0" class="st0">
	<g class="st1">
		<g>
			<circle class="st2" cx="113.08" cy="114.86" r="110.28"/>
			<path class="st2" d="M73.23,140.47l8.32-10.04l35.58,21.54l-16.07-37.11l-4.7-0.52l-8.36-13.07l9.24,10.23l46.55-56.23
				l77.15,81.11c1.48-7.21,2.27-14.67,2.27-22.31c0-60.76-49.26-110.01-110.01-110.01C52.43,4.06,3.17,53.32,3.17,114.08
				c0,60.76,49.25,110.01,110.01,110.01c1.82,0,3.63-0.05,5.43-0.13l-45.91-65.72L73.23,140.47z"/>
			<path class="st4" d="M220.94,136.39l-77.68-89.99L97.24,111.5L75.97,94.48l41.16,57.49l-35.58-21.54l-8.32,10.04l-7.71,12.54
				l60.06,70.52C169.3,221.49,210.98,184.73,220.94,136.39z"/>
		</g>
		<g>
			<g>
				<circle class="st29" cx="113.19" cy="70.93" r="43.87"/>
				<g>
					<path class="st20" d="M113.48,44.42c0.81-0.08,1.64,0.22,2.5,0.91c0.85,0.85,1.22,1.72,1.1,2.62c0,0.97,0.49,1.56,1.46,1.76
						c2.31,0.41,4.67,1.3,7.06,2.68c3,2.19,4.58,4.95,4.75,8.28c-0.24,1.95-1.48,3.02-3.71,3.23c-2.03,0.04-3.33-0.95-3.89-2.98
						c-0.81-1.91-2.21-3.27-4.2-4.08c-0.97-0.24-1.46,0.12-1.46,1.1v7.55c0,0.97,0.49,1.56,1.46,1.76c2.96,0.61,5.31,1.34,7.06,2.19
						c1.01,0.49,1.95,1.2,2.8,2.13c2.39,2.64,3.41,5.72,3.04,9.25c-0.49,3.65-2.56,6.57-6.21,8.76c-1.95,1.1-4.18,1.85-6.69,2.25
						c-0.97,0.16-1.46,0.73-1.46,1.7c0.24,1.58-0.47,2.8-2.13,3.65c-1.46,0.61-2.84,0.18-4.14-1.28c-0.45-0.77-0.65-1.56-0.61-2.37
						c0-0.97-0.49-1.54-1.46-1.7c-2.84-0.57-5.19-1.44-7.06-2.62c-2.31-1.58-3.94-3.29-4.87-5.11c-0.73-1.3-1.34-2.92-1.83-4.87
						c-0.2-1.01-0.14-1.95,0.18-2.8c0.2-0.61,0.71-1.14,1.52-1.58c1.46-0.69,2.8-0.59,4.02,0.3c0.73,0.61,1.2,1.4,1.4,2.37
						c1.05,3.69,3.27,6.07,6.63,7.12c0.97,0.2,1.46-0.18,1.46-1.16v-9.49c0-0.97-0.49-1.56-1.46-1.76
						c-1.34-0.28-2.88-0.77-4.63-1.46c-3.12-1.3-5.21-3.2-6.27-5.72c-0.73-1.83-0.97-3.67-0.73-5.54c0.32-2.6,1.83-5.01,4.5-7.24
						c1.99-1.46,4.34-2.35,7.06-2.68c1.01-0.08,1.52-0.61,1.52-1.58C110.24,46.02,111.33,44.82,113.48,44.42z M108.37,56.65
						l-0.67,0.18c-1.87,0.57-3.1,1.75-3.71,3.53c-0.12,1.58,0.69,3,2.43,4.26c0.89,0.49,1.64,0.81,2.25,0.97
						c1.01,0.33,1.52,0.02,1.52-0.91v-6.76C110.2,56.95,109.59,56.53,108.37,56.65z M122.31,75.58c-0.77-0.73-1.99-1.34-3.65-1.83
						c-1.06-0.16-1.58,0.2-1.58,1.1v8.64c0,0.97,0.49,1.38,1.46,1.22c1.91-0.45,3.45-1.16,4.63-2.13c1.46-1.34,1.83-2.9,1.1-4.69
						C123.77,76.96,123.12,76.18,122.31,75.58z"/>
				</g>
				<circle class="st38" cx="113.19" cy="70.93" r="36.54"/>
			</g>
			<g>
				<path class="st34" d="M121.71,153.45l-6.63,2.01c-1.1,0.33-2.26,0.34-3.36,0.04l-39.68-11.18c-3.11-0.88-6.37,0.89-7.31,3.95h0
					c-0.87,2.85,0.57,5.86,3.35,6.99l34.41,13.94l49.83,21.48c2.13,0.92,4.61,0.51,6.35-1.04l2.33-2.08L121.71,153.45z"/>
				<path class="st26" d="M119.37,147.79l-7.29,1.61c-1.2,0.27-2.46,0.18-3.61-0.24L66.79,133.9c-3.26-1.2-6.91,0.43-8.17,3.64l0,0
					c-1.17,2.99,0.13,6.34,3.02,7.78l35.79,17.79l51.73,27.16c2.21,1.16,4.91,0.93,6.9-0.59l2.67-2.04L119.37,147.79z"/>
				<path class="st29" d="M188.53,172.47l-7.94-30.12c-0.23-0.89-0.65-1.72-1.23-2.44l-21.86-27.42c-2.11-2.64-5.86-3.27-8.72-1.47
					l-1.61,1.02c-2.85,1.8-3.89,5.46-2.41,8.5l7.36,15.11c2.1,4.32-0.94,9.36-5.74,9.52l-31.32,1.01c-1.28,0.04-2.55-0.29-3.65-0.96
					l-39.76-24.14c-3.11-1.89-7.17-0.91-9.08,2.19l0,0c-1.78,2.89-1.09,6.65,1.6,8.72l33.24,25.62l47.77,38.53
					c2.04,1.64,4.85,1.93,7.18,0.74l32.77-16.83C187.92,178.63,189.33,175.48,188.53,172.47z"/>
			</g>
			<path class="st35" d="M186.18,182.82l-29.63,15.72c-3.85,2.04-5.32,6.82-3.27,10.67l3.62,6.82
				c15.37-7.15,28.92-17.49,39.84-30.12C194.64,182.2,189.97,180.81,186.18,182.82z"/>
		</g>
	</g>
</g>
<g id="_x34_-1" class="st0">
	<g class="st1">
		<g>
			<path class="st8" d="M160.28,49.53l63.22,54.73c-0.24-2.58-0.55-5.15-0.96-7.68c-8.6-52.69-54.33-92.91-109.45-92.91
				C51.82,3.68,2.17,53.34,2.17,114.6c0,53.01,37.2,97.31,86.92,108.28l-23.2-43.22L160.28,49.53z"/>
			<path class="st3" d="M89.09,222.89l0.01-0.01c-0.01,0-0.01,0-0.02,0L89.09,222.89z"/>
			<path class="st3" d="M223.51,104.28l-0.01-0.01C223.5,104.27,223.5,104.28,223.51,104.28L223.51,104.28z"/>
			<path class="st10" d="M223.5,104.28c0-0.01,0-0.01,0-0.02l-63.22-54.73L65.89,179.66l23.2,43.22c0.01,0,0.01,0,0.02,0
				c2.14,0.47,4.29,0.9,6.47,1.25c5.7,0.9,11.55,1.38,17.5,1.38c61.26,0,110.92-49.66,110.92-110.92
				C224,111.12,223.82,107.68,223.5,104.28z"/>
		</g>
		<g>
			<g>
				<rect x="65.89" y="49.53" class="st5" width="94.39" height="130.13"/>
				<g>
					<g>
						<g>
							<rect x="75.58" y="62.87" class="st6" width="16.75" height="19.66"/>
							<rect x="104.71" y="62.87" class="st6" width="16.75" height="19.66"/>
							<rect x="133.83" y="62.87" class="st6" width="16.75" height="19.66"/>
						</g>
					</g>
					<g>
						<rect x="75.58" y="89.84" class="st6" width="16.75" height="19.66"/>
						<rect x="104.71" y="89.84" class="st6" width="16.75" height="19.66"/>
						<rect x="133.83" y="89.84" class="st6" width="16.75" height="19.66"/>
					</g>
					<g>
						<g>
							<rect x="75.58" y="116.82" class="st6" width="16.75" height="19.66"/>
							<rect x="104.71" y="116.82" class="st6" width="16.75" height="19.66"/>
							<rect x="133.83" y="116.82" class="st6" width="16.75" height="19.66"/>
						</g>
					</g>
				</g>
				<g>
					<rect x="96.59" y="145.3" class="st6" width="15" height="30.13"/>
					<rect x="114.58" y="145.3" class="st6" width="14.99" height="30.13"/>
				</g>
			</g>
			<path class="st17" d="M183.6,160.53l-8.02-4.63c-0.03-0.02-0.06-0.01-0.09-0.03c0.04-0.57,0.09-1.13,0.09-1.71
				c0-0.9-0.05-1.78-0.14-2.65l7.74-4.47c2.1-1.21,2.83-3.93,1.62-6.03l-6.14-10.63c-1.21-2.1-3.93-2.83-6.03-1.62l-8.02,4.63
				c-0.02,0.01-0.03,0.03-0.05,0.04c-1.2-0.81-2.49-1.51-3.83-2.1v-8.94c0-2.43-1.99-4.42-4.42-4.42h-12.28
				c-2.43,0-4.42,1.99-4.42,4.42v9.26c0,0.03,0.02,0.05,0.02,0.08c-1.31,0.64-2.56,1.39-3.73,2.25l-7.76-4.48
				c-2.1-1.21-4.82-0.49-6.03,1.62l-6.14,10.63c-1.21,2.1-0.49,4.82,1.62,6.03l8.02,4.63c0.03,0.02,0.06,0.01,0.09,0.03
				c-0.04,0.57-0.09,1.13-0.09,1.71c0,0.9,0.05,1.78,0.14,2.65l-7.74,4.47c-2.1,1.21-2.83,3.93-1.62,6.03l6.14,10.63
				c1.21,2.1,3.93,2.83,6.03,1.62l8.02-4.63c0.02-0.01,0.03-0.03,0.05-0.04c1.2,0.81,2.49,1.51,3.83,2.1v8.94
				c0,2.43,1.99,4.42,4.42,4.42h12.28c2.43,0,4.42-1.99,4.42-4.42v-9.26c0-0.03-0.02-0.05-0.02-0.08c1.31-0.64,2.56-1.39,3.73-2.25
				l7.76,4.48c2.1,1.21,4.82,0.49,6.03-1.62l6.14-10.63C186.43,164.46,185.7,161.75,183.6,160.53z M150.58,167.91
				c-7.59,0-13.74-6.15-13.74-13.74c0-7.59,6.15-13.74,13.74-13.74s13.74,6.15,13.74,13.74
				C164.33,161.75,158.17,167.91,150.58,167.91z"/>
		</g>
	</g>
</g>
<g id="_x34_-0" class="st0">
	<g class="st1">
		<path class="st8" d="M57.19,166.51l112.05-3.26V52.83l51.04,38.87c-10.53-49.54-54.52-86.71-107.2-86.71
			C52.55,4.99,3.47,54.06,3.47,114.6c0,55.78,41.67,101.82,95.57,108.72l-45.66-48.64L57.19,166.51z"/>
		<path class="st10" d="M222.69,114.6c0-7.85-0.83-15.51-2.4-22.9l-51.04-38.87v110.42l-112.05,3.26l-3.81,8.16l45.66,48.64
			c4.6,0.59,9.28,0.89,14.04,0.89C173.61,224.2,222.69,175.13,222.69,114.6z"/>
		<g>
			<g>
				<path class="st29" d="M105.87,122.27c-5.19,1.67-9.76,3.85-13.51,6.41v17.11h13.51V122.27z"/>
				<path class="st20" d="M158.67,145.57c0-14.07-16.68-25.48-37.25-25.48c-4.92,0-9.62,0.65-13.92,1.84v23.86h51.16
					C158.67,145.71,158.67,145.64,158.67,145.57z"/>
				<path class="st29" d="M87.72,145.78H65.5c-1.18,0-2.15-0.97-2.15-2.15v-0.26c0-1.18,0.97-2.15,2.15-2.15h22.23
					c1.18,0,2.15,0.97,2.15,2.15v0.26C89.87,144.82,88.9,145.78,87.72,145.78z"/>
				<circle class="st39" cx="79.51" cy="134.18" r="10.36"/>
			</g>
			<rect x="60.03" y="145.78" class="st39" width="104.44" height="24.87"/>
			<g>
				<path class="st29" d="M105.87,57.61c-5.19,1.67-9.76,3.85-13.51,6.41v17.11h13.51V57.61z"/>
				<path class="st20" d="M158.67,80.91c0-14.07-16.68-25.48-37.25-25.48c-4.92,0-9.62,0.65-13.92,1.84v23.86h51.16
					C158.67,81.06,158.67,80.99,158.67,80.91z"/>
				<path class="st29" d="M87.72,81.13H65.5c-1.18,0-2.15-0.97-2.15-2.15v-0.26c0-1.18,0.97-2.15,2.15-2.15h22.23
					c1.18,0,2.15,0.97,2.15,2.15v0.26C89.87,80.16,88.9,81.13,87.72,81.13z"/>
				<circle class="st39" cx="79.51" cy="69.53" r="10.36"/>
			</g>
			<rect x="60.03" y="81.13" class="st39" width="104.44" height="24.87"/>
			<path class="st39" d="M57.12,177.9h-0.38c-2.53,0-4.57-2.05-4.57-4.57V55.87c0-2.53,2.05-4.57,4.57-4.57h0.38
				c2.53,0,4.57,2.05,4.57,4.57v117.46C61.69,175.86,59.64,177.9,57.12,177.9z"/>
			<path class="st39" d="M169.43,177.9h-0.38c-2.53,0-4.57-2.05-4.57-4.57V55.87c0-2.53,2.05-4.57,4.57-4.57h0.38
				c2.53,0,4.57,2.05,4.57,4.57v117.46C174,175.86,171.96,177.9,169.43,177.9z"/>
		</g>
	</g>
</g>
<g id="_x33_-4新生英文檢定與抵免" class="st0">
	<g class="st1">
		<g>
			<path class="st28" d="M144.95,57.64l78.69,65.48c0.21-2.82,0.36-5.65,0.36-8.52c0-6.13-0.51-12.14-1.46-18.01
				c-8.6-52.69-54.33-92.91-109.45-92.91C51.82,3.68,2.17,53.34,2.17,114.6c0,53.86,38.39,98.73,89.29,108.79l-25.81-70.04
				L144.95,57.64z"/>
			<path class="st40" d="M223.64,123.12c-0.02,0.2-0.03,0.4-0.05,0.6l0.4-0.31L223.64,123.12z"/>
			<path class="st40" d="M91.47,223.4l0.02-0.01c-0.01,0-0.02,0-0.02,0L91.47,223.4z"/>
			<path class="st14" d="M144.95,57.64l-79.3,95.7l25.81,70.04c0.01,0,0.02,0,0.02,0c1.36,0.27,2.72,0.53,4.09,0.74
				c5.7,0.9,11.55,1.38,17.5,1.38c58.18,0,105.86-44.8,110.51-101.79c0.02-0.2,0.03-0.4,0.05-0.6L144.95,57.64z"/>
		</g>
		<g>
			<g>
				<path class="st22" d="M149.98,175.49H89.4c-6.96,0-12.6-5.64-12.6-12.6V81.62c0-6.96,5.64-12.6,12.6-12.6h60.58
					c6.96,0,12.6,5.64,12.6,12.6v81.26C162.58,169.85,156.94,175.49,149.98,175.49z"/>
				<g>
					<path class="st41" d="M86.9,53.7h48.24c7.86,0,14.23,6.37,14.23,14.23v78.02c0,7.86-6.37,14.23-14.23,14.23H77.8
						c-7.86,0-14.23-6.37-14.23-14.23V76.68L86.9,53.7z"/>
					<path class="st41" d="M82.22,55.63c4.09-4.09,11.09-1.23,11.14,4.56v0v15.54c0,4.37-3.54,7.91-7.91,7.91H69.91
						c-0.04,0-0.09,0-0.13,0c-5.7-0.09-8.28-7.29-4.25-11.32L82.22,55.63z"/>
				</g>
				<g>
					<line class="st42" x1="84.83" y1="93.15" x2="128.11" y2="93.15"/>
					<line class="st42" x1="84.83" y1="111.92" x2="128.11" y2="111.92"/>
					<line class="st42" x1="84.83" y1="130.68" x2="128.11" y2="130.68"/>
				</g>
			</g>
		</g>
		<g>
			
				<rect x="134.14" y="98.95" transform="matrix(0.866 0.5 -0.5 0.866 85.6022 -54.3671)" class="st25" width="20.22" height="67.2"/>
			<path class="st25" d="M175.61,89.88l-10.08-5.82c-2.05-1.18-4.67-0.48-5.86,1.57l-1.62,2.8l-1.62,2.8l-2.14,3.71L158,97.1
				l10.08,5.82l3.71,2.14l2.14-3.71l1.62-2.8l1.62-2.8C178.36,93.69,177.66,91.07,175.61,89.88z"/>
			<path class="st25" d="M134.24,170.12l-2.57-1.49l-12.36-7.14l-2.57-1.49l-1.6,12.44l0,0l-1.14,8.87
				c-0.22,1.74,1.77,2.89,3.16,1.83l5.98-4.56l0,0L134.24,170.12z"/>
			
				<rect x="151.94" y="99.74" transform="matrix(0.866 0.5 -0.5 0.866 72.5757 -67.3936)" class="st6" width="20.22" height="3.98"/>
			
				<rect x="116.35" y="161.38" transform="matrix(0.866 0.5 -0.5 0.866 98.6287 -41.3406)" class="st6" width="20.22" height="3.98"/>
		</g>
	</g>
</g>
<g id="_x33_-3新_x28_轉學_x29_生學分抵免" class="st0">
	<g class="st1">
		<g>
			<path class="st28" d="M141.46,55.56l81.66,45.08c-0.17-1.36-0.36-2.71-0.58-4.05c-8.6-52.69-54.33-92.91-109.45-92.91
				C51.82,3.68,2.17,53.34,2.17,114.6c0,51.65,35.31,95.04,83.1,107.38l-24.47-72.72L141.46,55.56z"/>
			<polygon class="st43" points="85.27,221.99 85.27,221.98 85.26,221.98 			"/>
			<polygon class="st43" points="223.12,100.64 223.11,100.64 223.11,100.64 			"/>
			<path class="st14" d="M223.11,100.64C223.11,100.64,223.11,100.64,223.11,100.64l-81.66-45.08l-80.66,93.7l24.47,72.72
				c0,0,0.01,0,0.01,0c3.38,0.87,6.81,1.6,10.3,2.15c5.7,0.9,11.55,1.38,17.5,1.38c61.26,0,110.92-49.66,110.92-110.92
				C224,109.87,223.69,105.22,223.11,100.64z"/>
		</g>
		<g>
			<g>
				<path class="st22" d="M145.82,172.72H85.24c-6.96,0-12.6-5.64-12.6-12.6V78.85c0-6.96,5.64-12.6,12.6-12.6h60.58
					c6.96,0,12.6,5.64,12.6,12.6v81.26C158.42,167.08,152.78,172.72,145.82,172.72z"/>
				<g>
					<path class="st41" d="M82.73,50.93h48.24c7.86,0,14.23,6.37,14.23,14.23v78.02c0,7.86-6.37,14.23-14.23,14.23H73.64
						c-7.86,0-14.23-6.37-14.23-14.23V73.91L82.73,50.93z"/>
					<path class="st41" d="M78.05,52.86c4.09-4.09,11.09-1.23,11.14,4.56v0v15.54c0,4.37-3.54,7.91-7.91,7.91H65.75
						c-0.04,0-0.09,0-0.13,0c-5.7-0.09-8.28-7.29-4.25-11.32L78.05,52.86z"/>
				</g>
				<g>
					<line class="st42" x1="80.67" y1="90.38" x2="123.95" y2="90.38"/>
					<line class="st42" x1="80.67" y1="109.14" x2="123.95" y2="109.14"/>
					<line class="st42" x1="80.67" y1="127.91" x2="115.53" y2="127.91"/>
				</g>
			</g>
			<circle class="st7" cx="143.86" cy="155.37" r="22.89"/>
			<polyline class="st44" points="131.67,156.19 139.25,163.77 156.05,146.98 			"/>
		</g>
	</g>
</g>
<g id="_x33_-2課程地圖" class="st0">
	<g class="st1">
		<g>
			<path class="st28" d="M165.96,66.27L224,114.6c0-6.13-0.51-12.14-1.46-18.01c-8.6-52.69-54.33-92.91-109.45-92.91
				C51.82,3.68,2.17,53.34,2.17,114.6c0,49.11,31.93,90.73,76.15,105.32l-30.34-56.99L165.96,66.27z"/>
			<path class="st45" d="M78.33,219.94l0.02-0.01c-0.01,0-0.02-0.01-0.03-0.01L78.33,219.94z"/>
			<path class="st14" d="M165.96,66.27L47.97,162.93l30.34,56.99c0.01,0,0.02,0.01,0.03,0.01c5.57,1.83,11.32,3.27,17.23,4.2
				c5.7,0.9,11.55,1.38,17.5,1.38c29.96,0,57.12-11.9,77.08-31.2c4.07-3.94,7.85-8.17,11.28-12.69
				C215.58,163.01,224,139.79,224,114.6L165.96,66.27z"/>
		</g>
		<g>
			<rect x="47.97" y="83.7" class="st15" width="130.21" height="79.22"/>
			<path class="st16" d="M114.12,162.93l-6.11-2.82c-13.06-6.04-27.27-9.17-41.65-9.17h-4.09V66.27h10.77
				c12.58,0,24.85,3.97,35.04,11.36l6.04,4.37V162.93z"/>
			<path class="st16" d="M114.12,162.93l6.11-2.82c13.06-6.04,27.27-9.17,41.65-9.17h4.09V66.27H155.2
				c-12.58,0-24.85,3.97-35.04,11.36L114.12,82V162.93z"/>
		</g>
		<g>
			<path class="st25" d="M201.43,181.63l-18.09-22.8c-1.81-2.28-5.12-2.66-7.4-0.85l-4.85,3.85c-2.28,1.81-2.66,5.12-0.85,7.4
				l19.91,25.09C194.23,190.38,198,186.14,201.43,181.63z"/>
			<circle class="st46" cx="157.39" cy="139.58" r="36.05"/>
			<circle class="st25" cx="157.39" cy="139.58" r="25.95"/>
			<circle class="st6" cx="159.77" cy="117.37" r="7.23"/>
			<circle class="st6" cx="158.84" cy="130.57" r="4.01"/>
		</g>
	</g>
</g>
<g id="_x33_-1新生選課" class="st0">
	<g class="st1">
		<g>
			<g>
				<g>
					<path class="st28" d="M146.27,53.15l77.04,73.66c0.44-4.01,0.68-8.08,0.68-12.21c0-6.13-0.51-12.14-1.46-18.01
						c-8.6-52.69-54.33-92.91-109.45-92.91C51.82,3.68,2.17,53.34,2.17,114.6c0,55.3,40.47,101.14,93.41,109.54
						c3.12,0.49,6.28,0.85,9.48,1.08l-42.73-78.36L146.27,53.15z"/>
				</g>
				<path class="st28" d="M105.22,225.51l0.33-0.27c-0.16-0.01-0.33-0.02-0.49-0.03L105.22,225.51z"/>
				<path class="st28" d="M223.31,126.81c0,0.01,0,0.02,0,0.03l0.02-0.02L223.31,126.81z"/>
				<g>
					<path class="st14" d="M146.27,53.15l-83.94,93.7l42.73,78.36c0.16,0.01,0.33,0.02,0.49,0.03c2.49,0.17,5,0.27,7.53,0.27
						c57.12,0,104.13-43.18,110.23-98.67c0-0.01,0-0.02,0-0.03L146.27,53.15z"/>
				</g>
			</g>
		</g>
		<g>
			<g>
				<path class="st22" d="M148.74,169.48H88.15c-6.96,0-12.6-5.64-12.6-12.6V75.62c0-6.96,5.64-12.6,12.6-12.6h60.58
					c6.96,0,12.6,5.64,12.6,12.6v81.26C161.34,163.84,155.7,169.48,148.74,169.48z"/>
				<g>
					<path class="st41" d="M85.65,47.7h48.24c7.86,0,14.23,6.37,14.23,14.23v78.02c0,7.86-6.37,14.23-14.23,14.23H76.55
						c-7.86,0-14.23-6.37-14.23-14.23V70.67L85.65,47.7z"/>
					<path class="st41" d="M80.97,49.62c4.09-4.09,11.09-1.23,11.14,4.56v0v15.54c0,4.37-3.54,7.91-7.91,7.91H68.66
						c-0.04,0-0.09,0-0.13,0c-5.7-0.09-8.28-7.29-4.25-11.32L80.97,49.62z"/>
				</g>
				<g>
					<line class="st42" x1="83.58" y1="87.14" x2="126.86" y2="87.14"/>
					<line class="st42" x1="83.58" y1="105.91" x2="126.86" y2="105.91"/>
					<line class="st42" x1="83.58" y1="124.67" x2="126.86" y2="124.67"/>
				</g>
			</g>
			<path class="st25" d="M132.41,129.06l2.21,35.98c0.09,1.49,1.67,2.41,3.02,1.75l5.47-2.68c1.04-0.51,2.3-0.08,2.81,0.96
				l7.5,15.27c0.51,1.04,1.77,1.47,2.81,0.96l6.44-3.17c1.04-0.51,1.47-1.77,0.96-2.81l-7.5-15.27c-0.51-1.04-0.08-2.3,0.96-2.81
				l5.47-2.68c1.34-0.66,1.58-2.47,0.46-3.46l-27.12-23.74C134.48,126.12,132.29,127.2,132.41,129.06z"/>
		</g>
	</g>
</g>
<g id="_x33_-0選課" class="st0">
	<g class="st1">
		<g>
			<path class="st28" d="M174.92,58.01l48.11,63.01c0.12-2.13,0.19-4.27,0.19-6.43c0-60.83-49.31-110.14-110.14-110.14
				S2.94,53.77,2.94,114.6c0,57.6,44.21,104.86,100.55,109.72L33.86,163.1L174.92,58.01z"/>
			<path class="st14" d="M223.03,121.03l-48.11-63.01L33.86,163.1l69.63,61.22c3.16,0.27,6.36,0.42,9.59,0.42
				C171.75,224.74,219.7,178.86,223.03,121.03z"/>
		</g>
		<g>
			<g>
				<g>
					<path class="st47" d="M170.51,155.41H45.95c-2.9,0-5.27-2.37-5.27-5.27V60.9c0-2.9,2.37-5.27,5.27-5.27h124.56
						c2.9,0,5.27,2.37,5.27,5.27v89.24C175.78,153.04,173.41,155.41,170.51,155.41z"/>
					<path class="st22" d="M180.63,163.29H35.83c-1.08,0-1.97-0.89-1.97-1.97v-8.75c0-1.08,0.89-1.97,1.97-1.97h144.8
						c1.08,0,1.97,0.89,1.97,1.97v8.75C182.6,162.4,181.71,163.29,180.63,163.29z"/>
				</g>
				<g>
					<g>
						<g>
							<g>
								<path class="st25" d="M63.66,112.12c-0.28-0.28-0.43-0.63-0.43-1.03V91.93c0-0.4,0.14-0.75,0.43-1.04
									c0.28-0.29,0.63-0.44,1.03-0.44h12.66c0.38,0,0.7,0.14,0.98,0.41c0.27,0.27,0.41,0.6,0.41,0.98s-0.14,0.7-0.41,0.96
									c-0.27,0.26-0.6,0.39-0.98,0.39h-10.8c-0.25,0-0.38,0.13-0.38,0.38v6.54h10.04c0.38,0,0.7,0.14,0.98,0.41
									c0.27,0.27,0.41,0.6,0.41,0.98c0,0.38-0.14,0.7-0.41,0.96c-0.27,0.26-0.6,0.39-0.98,0.39H66.17v6.57
									c0,0.25,0.13,0.38,0.38,0.38h10.8c0.38,0,0.7,0.14,0.98,0.41c0.27,0.27,0.41,0.6,0.41,0.98s-0.14,0.7-0.41,0.96
									c-0.27,0.26-0.6,0.39-0.98,0.39H64.69C64.29,112.55,63.94,112.41,63.66,112.12z"/>
								<path class="st25" d="M83,99.41c-0.25-0.25-0.38-0.55-0.38-0.88c0-0.36,0.13-0.66,0.38-0.9c0.25-0.24,0.55-0.36,0.88-0.36
									h15.41c0.36,0,0.66,0.12,0.9,0.36c0.24,0.24,0.36,0.54,0.36,0.9c0,0.34-0.12,0.63-0.36,0.88c-0.24,0.25-0.54,0.38-0.9,0.38
									H83.88C83.55,99.79,83.25,99.66,83,99.41z M83,106.49c-0.25-0.25-0.38-0.55-0.38-0.88c0-0.36,0.13-0.66,0.38-0.9
									c0.25-0.24,0.55-0.36,0.88-0.36h15.41c0.36,0,0.66,0.12,0.9,0.36c0.24,0.24,0.36,0.54,0.36,0.9c0,0.34-0.12,0.63-0.36,0.88
									c-0.24,0.25-0.54,0.38-0.9,0.38H83.88C83.55,106.86,83.25,106.74,83,106.49z"/>
								<path class="st25" d="M128.93,99.19c0.39,0.93,0.58,1.92,0.58,2.97v9.09c0,0.4-0.15,0.74-0.44,1.03
									c-0.3,0.28-0.64,0.43-1.04,0.43c-0.4,0-0.74-0.14-1.03-0.43s-0.43-0.63-0.43-1.03v-8.53c0-1.41-0.25-2.42-0.74-3.03
									c-0.49-0.61-1.31-0.92-2.45-0.92c-1.01,0-1.86,0.26-2.56,0.77c-0.69,0.52-1.35,1.26-1.96,2.23v9.47
									c0,0.4-0.15,0.74-0.44,1.03c-0.3,0.28-0.64,0.43-1.04,0.43c-0.4,0-0.74-0.14-1.03-0.43c-0.28-0.28-0.43-0.63-0.43-1.03
									v-8.53c0-1.41-0.25-2.42-0.74-3.03c-0.49-0.61-1.31-0.92-2.45-0.92c-1.01,0-1.86,0.26-2.56,0.77
									c-0.69,0.52-1.35,1.26-1.96,2.23v9.47c0,0.4-0.15,0.74-0.44,1.03c-0.3,0.28-0.64,0.43-1.04,0.43c-0.4,0-0.74-0.14-1.03-0.43
									c-0.28-0.28-0.43-0.63-0.43-1.03V97.71c0-0.4,0.14-0.75,0.43-1.04c0.28-0.29,0.63-0.44,1.03-0.44c0.4,0,0.75,0.15,1.04,0.44
									c0.29,0.3,0.44,0.64,0.44,1.04v1.17c0.65-0.88,1.4-1.57,2.24-2.07c0.84-0.49,1.87-0.74,3.09-0.74c1.14,0,2.13,0.3,2.98,0.9
									c0.85,0.6,1.47,1.37,1.85,2.32c1.3-2.15,3.24-3.22,5.81-3.22c1.22,0,2.22,0.3,3,0.88
									C127.97,97.52,128.54,98.27,128.93,99.19z"/>
								<path class="st25" d="M137.56,111.85c-1.33-0.69-2.37-1.68-3.13-2.97c-0.76-1.28-1.14-2.76-1.14-4.42
									c0-1.71,0.39-3.2,1.17-4.48c0.76-1.24,1.77-2.2,3.05-2.89c1.27-0.68,2.69-1.03,4.25-1.03c1.05,0,1.98,0.13,2.78,0.39
									c0.8,0.26,1.6,0.64,2.4,1.12c0.42,0.3,0.63,0.67,0.63,1.14c0,0.32-0.13,0.61-0.38,0.88c-0.25,0.27-0.54,0.41-0.85,0.41
									c-0.21,0-0.44-0.06-0.69-0.19c-0.74-0.38-1.35-0.64-1.83-0.79c-0.48-0.15-1.08-0.22-1.8-0.22c-1.77,0-3.17,0.51-4.22,1.53
									c-1.04,1.02-1.56,2.4-1.56,4.12c0,1.73,0.52,3.1,1.56,4.12c1.04,1.02,2.45,1.53,4.22,1.53c0.72,0,1.32-0.07,1.8-0.22
									c0.48-0.15,1.09-0.41,1.83-0.79c0.25-0.13,0.48-0.19,0.69-0.19c0.32,0,0.6,0.14,0.85,0.41c0.25,0.27,0.38,0.57,0.38,0.88
									c0,0.46-0.21,0.84-0.63,1.14c-0.8,0.48-1.6,0.86-2.4,1.12c-0.8,0.26-1.73,0.39-2.78,0.39
									C140.27,112.86,138.87,112.53,137.56,111.85z"/>
							</g>
						</g>
						<g>
							<path class="st25" d="M149.21,93.19c-0.16-0.16-0.24-0.36-0.24-0.62c0-0.57,0.17-1.09,0.5-1.57c0.3-0.44,0.67-0.84,1.1-1.19
								c0.43-0.35,1.08-0.8,1.94-1.35c0.63-0.4,1.15-0.76,1.57-1.07c0.91-0.68,1.36-1.36,1.36-2.04c0-0.65-0.21-1.14-0.64-1.48
								c-0.43-0.34-1.06-0.51-1.9-0.51c-0.97,0-1.89,0.19-2.77,0.58c-0.13,0.05-0.23,0.08-0.31,0.08c-0.17,0-0.32-0.06-0.44-0.19
								c-0.12-0.12-0.19-0.28-0.19-0.46c0-0.27,0.12-0.47,0.37-0.61c1.1-0.55,2.3-0.83,3.59-0.83c0.71,0,1.34,0.13,1.89,0.4
								c0.58,0.28,1.04,0.67,1.36,1.17c0.32,0.5,0.49,1.08,0.49,1.72c0,0.66-0.18,1.25-0.55,1.78c-0.35,0.51-0.76,0.96-1.24,1.36
								c-0.48,0.4-1.19,0.9-2.13,1.51c-0.82,0.56-1.41,0.98-1.76,1.27c-0.35,0.29-0.6,0.57-0.74,0.87h5.6c0.19,0,0.36,0.07,0.5,0.21
								c0.14,0.14,0.21,0.31,0.21,0.5c0,0.19-0.07,0.36-0.21,0.49c-0.14,0.14-0.31,0.2-0.5,0.2h-6.25
								C149.59,93.42,149.38,93.35,149.21,93.19z"/>
						</g>
					</g>
				</g>
			</g>
			<g>
				<g>
					<g>
						<path class="st48" d="M187.08,155.97h-55.75c-1.61,0-2.93-1.32-2.93-2.93v-2.69c0-1.61,1.32-2.93,2.93-2.93h55.75
							c1.61,0,2.93,1.32,2.93,2.93v2.69C190.01,154.65,188.69,155.97,187.08,155.97z"/>
						<path class="st48" d="M181.95,175.77h-45.5c-0.67,0-1.21-0.54-1.21-1.21V158.4c0-0.67,0.54-1.21,1.21-1.21h45.5
							c0.67,0,1.21,0.54,1.21,1.21v16.16C183.16,175.23,182.62,175.77,181.95,175.77z"/>
					</g>
				</g>
				<g>
					<circle class="st29" cx="159.2" cy="116.95" r="9.23"/>
					<g>
						<path class="st20" d="M163.18,127.95l-1.44,1.87l-2.54,3.29l-2.54-3.29l-1.44-1.87c-7.17,1.9-12.49,8.82-12.52,17.08h33.01
							C175.67,136.77,170.35,129.85,163.18,127.95z"/>
						<path class="st29" d="M159.2,133.1l2.54-3.29l1.44-1.87c-1.27-0.34-2.61-0.52-3.98-0.52c-1.37,0-2.7,0.18-3.98,0.52l1.44,1.87
							L159.2,133.1z"/>
					</g>
				</g>
			</g>
		</g>
	</g>
</g>
<g id="_x32_-2註冊繳費單列印" class="st0">
	<g class="st1">
		<g>
			<g>
				<g>
					<path class="st2" d="M148.02,69.7l75.92,42.39c-0.12-5.26-0.59-10.44-1.41-15.5c-8.6-52.69-54.33-92.91-109.45-92.91
						C51.82,3.68,2.17,53.34,2.17,114.6c0,46.4,28.49,86.12,68.93,102.67l-20.45-78.31L148.02,69.7z"/>
				</g>
				<path class="st2" d="M223.97,112.1l-0.02-0.01c0,0.01,0,0.02,0,0.03L223.97,112.1z"/>
				<polygon class="st2" points="71.1,217.28 71.11,217.27 71.1,217.27 				"/>
				<g>
					<path class="st4" d="M223.94,112.12c0-0.01,0-0.02,0-0.03L148.02,69.7l-97.37,69.27l20.45,78.31c0,0,0.01,0,0.01,0
						c7.76,3.17,15.95,5.51,24.47,6.86c5.7,0.9,11.55,1.38,17.5,1.38c61.26,0,110.92-49.66,110.92-110.92
						C224,113.77,223.96,112.94,223.94,112.12z"/>
				</g>
			</g>
		</g>
		<g>
			<path class="st49" d="M73.29,93.71v-13c0-7.05,5.72-12.77,12.77-12.77h55.51c7.05,0,12.77,5.72,12.77,12.77v13
				c0,7.05-5.72,12.77-12.77,12.77H86.06C79.01,106.47,73.29,100.76,73.29,93.71z"/>
			<path class="st5" d="M163.89,146.47H62.27c-7.05,0-12.77-5.72-12.77-12.77V96.5c0-7.05,5.72-12.77,12.77-12.77h101.62
				c7.05,0,12.77,5.72,12.77,12.77v37.2C176.65,140.75,170.94,146.47,163.89,146.47z"/>
			<g>
				<g>
					<g>
						<path class="st6" d="M73.29,169.25V123.7c0-7.05,5.72-12.77,12.77-12.77h55.51c7.05,0,12.77,5.72,12.77,12.77v45.55
							c0,7.05-5.72,12.77-12.77,12.77H86.06C79.01,182.01,73.29,176.3,73.29,169.25z"/>
						<path class="st50" d="M73.29,169.25V123.7c0-7.05,5.72-12.77,12.77-12.77h55.51c7.05,0,12.77,5.72,12.77,12.77v45.55
							c0,7.05-5.72,12.77-12.77,12.77H86.06C79.01,182.01,73.29,176.3,73.29,169.25z"/>
					</g>
					<g>
						<g>
							<g>
								<g>
									<line class="st50" x1="113.72" y1="142.78" x2="145.1" y2="142.78"/>
								</g>
								<g>
									<line class="st50" x1="113.72" y1="150.28" x2="145.1" y2="150.28"/>
								</g>
								<g>
									<line class="st50" x1="113.72" y1="157.77" x2="145.1" y2="157.77"/>
								</g>
								<g>
									<line class="st50" x1="113.72" y1="165.27" x2="145.1" y2="165.27"/>
								</g>
							</g>
						</g>
						<g>
							<ellipse class="st5" cx="96.21" cy="154.02" rx="13.68" ry="13.41"/>
						</g>
					</g>
				</g>
			</g>
			<path class="st6" d="M63.71,100.37h-3.67c-1.34,0-2.43-1.09-2.43-2.43v-3.67c0-1.34,1.09-2.43,2.43-2.43h3.67
				c1.34,0,2.43,1.09,2.43,2.43v3.67C66.14,99.28,65.05,100.37,63.71,100.37z"/>
			<path class="st6" d="M74.97,100.37H71.3c-1.34,0-2.43-1.09-2.43-2.43v-3.67c0-1.34,1.09-2.43,2.43-2.43h3.67
				c1.34,0,2.43,1.09,2.43,2.43v3.67C77.4,99.28,76.31,100.37,74.97,100.37z"/>
			<rect x="49.51" y="108.88" class="st5" width="127.15" height="23.12"/>
		</g>
	</g>
</g>
<g id="_x32_-1註冊須知" class="st0">
	<g class="st1">
		<g>
			<path class="st2" d="M156.45,42.36l67.05,61.75C218.22,47.78,170.8,3.68,113.08,3.68C51.82,3.68,2.17,53.34,2.17,114.6
				c0,59.81,47.35,108.56,106.6,110.82l-45.99-50.31L156.45,42.36z"/>
			<path class="st4" d="M224,114.6c0-3.54-0.17-7.03-0.5-10.48l-59.64-65.05L60.46,188.43l48.31,36.99
				c1.43,0.05,2.87,0.09,4.31,0.09C174.34,225.51,224,175.85,224,114.6z"/>
		</g>
		<g>
			<g>
				<g>
					<path class="st29" d="M156.48,192.3h-86.8c-7.88,0-14.33-6.45-14.33-14.33V51.22c0-7.88,6.45-14.33,14.33-14.33h86.8
						c7.88,0,14.33,6.45,14.33,14.33v126.76C170.8,185.86,164.36,192.3,156.48,192.3z"/>
					<path class="st5" d="M138.93,52.55H87.24c-0.85,0-1.55-0.7-1.55-1.55v-9.62c0-0.85,0.7-1.55,1.55-1.55h51.69
						c0.85,0,1.55,0.7,1.55,1.55V51C140.47,51.85,139.78,52.55,138.93,52.55z"/>
					<path class="st21" d="M154.3,178.83H71.86c-3.57,0-6.5-2.92-6.5-6.5V56.86c0-3.57,2.92-6.5,6.5-6.5h82.44
						c3.57,0,6.5,2.92,6.5,6.5v115.47C160.8,175.91,157.87,178.83,154.3,178.83z"/>
					<path class="st51" d="M134.29,41.78H91.87c-2.06,0-3.74,1.19-3.74,2.64v11.36c0,1.45,1.68,2.64,3.74,2.64h42.41
						c2.06,0,3.74-1.19,3.74-2.64V44.42C138.03,42.97,136.35,41.78,134.29,41.78z M133.78,54.1c0,1.13-1.31,2.05-2.91,2.05H95.29
						c-1.6,0-2.91-0.92-2.91-2.05V46.1c0-1.13,1.31-2.05,2.91-2.05h35.57c1.6,0,2.91,0.92,2.91,2.05V54.1z"/>
				</g>
				<g>
					<g>
						<g>
							<g>
								<line class="st52" x1="88.13" y1="77.24" x2="90.53" y2="77.24"/>
								<line class="st53" x1="95.52" y1="77.24" x2="142.92" y2="77.24"/>
								<line class="st52" x1="145.41" y1="77.24" x2="147.81" y2="77.24"/>
							</g>
						</g>
						<line class="st54" x1="71.5" y1="118.86" x2="154.66" y2="118.86"/>
						<line class="st54" x1="71.5" y1="67.09" x2="154.66" y2="67.09"/>
						<rect x="75.05" y="73.02" class="st55" width="8.44" height="8.44"/>
						<g>
							<g>
								<line class="st52" x1="88.13" y1="92.17" x2="90.53" y2="92.17"/>
								<line class="st53" x1="95.52" y1="92.17" x2="142.92" y2="92.17"/>
								<line class="st52" x1="145.41" y1="92.17" x2="147.81" y2="92.17"/>
							</g>
						</g>
						<g>
							<g>
								<line class="st52" x1="88.13" y1="107.09" x2="90.53" y2="107.09"/>
								<line class="st53" x1="95.52" y1="107.09" x2="142.92" y2="107.09"/>
								<line class="st52" x1="145.41" y1="107.09" x2="147.81" y2="107.09"/>
							</g>
						</g>
						<rect x="75.05" y="87.95" class="st55" width="8.44" height="8.44"/>
						<rect x="75.05" y="102.87" class="st55" width="8.44" height="8.44"/>
					</g>
					<g>
						<g>
							<g>
								<g>
									<line class="st56" x1="88.13" y1="129.04" x2="90.53" y2="129.04"/>
									<line class="st57" x1="95.01" y1="129.04" x2="146.48" y2="129.04"/>
									<line class="st56" x1="148.71" y1="129.04" x2="151.11" y2="129.04"/>
								</g>
							</g>
							<g>
								<g>
									<line class="st56" x1="88.13" y1="133.26" x2="90.53" y2="133.26"/>
									<line class="st57" x1="95.01" y1="133.26" x2="146.48" y2="133.26"/>
									<line class="st56" x1="148.71" y1="133.26" x2="151.11" y2="133.26"/>
								</g>
							</g>
						</g>
						<rect x="75.05" y="126.93" class="st55" width="8.44" height="8.44"/>
						<g>
							<g>
								<g>
									<line class="st56" x1="88.13" y1="147.12" x2="90.53" y2="147.12"/>
									<line class="st57" x1="95.01" y1="147.12" x2="146.48" y2="147.12"/>
									<line class="st56" x1="148.71" y1="147.12" x2="151.11" y2="147.12"/>
								</g>
							</g>
							<g>
								<g>
									<line class="st56" x1="88.13" y1="151.35" x2="90.53" y2="151.35"/>
									<line class="st57" x1="95.01" y1="151.35" x2="146.48" y2="151.35"/>
									<line class="st56" x1="148.71" y1="151.35" x2="151.11" y2="151.35"/>
								</g>
							</g>
						</g>
						<rect x="75.05" y="145.01" class="st55" width="8.44" height="8.44"/>
						<g>
							<g>
								<g>
									<line class="st56" x1="88.13" y1="165.21" x2="90.53" y2="165.21"/>
									<line class="st57" x1="95.01" y1="165.21" x2="146.48" y2="165.21"/>
									<line class="st56" x1="148.71" y1="165.21" x2="151.11" y2="165.21"/>
								</g>
							</g>
							<g>
								<g>
									<line class="st56" x1="88.13" y1="169.43" x2="90.53" y2="169.43"/>
									<line class="st57" x1="95.01" y1="169.43" x2="146.48" y2="169.43"/>
									<line class="st56" x1="148.71" y1="169.43" x2="151.11" y2="169.43"/>
								</g>
							</g>
						</g>
						<rect x="75.05" y="163.1" class="st55" width="8.44" height="8.44"/>
					</g>
				</g>
			</g>
			<g>
				<circle class="st6" cx="154.66" cy="165.21" r="29.54"/>
				<g>
					<g>
						<path class="st5" d="M152.09,185.55c-0.73-0.73-1.09-1.59-1.09-2.6c0-0.97,0.36-1.81,1.09-2.54c0.73-0.73,1.57-1.09,2.54-1.09
							c1.01,0,1.87,0.36,2.6,1.09c0.73,0.73,1.09,1.57,1.09,2.54c0,1.01-0.36,1.87-1.09,2.6c-0.73,0.73-1.59,1.09-2.6,1.09
							C153.66,186.64,152.82,186.27,152.09,185.55z M153.15,174.25c-0.38-0.32-0.59-0.77-0.63-1.33l-1.09-19.95v-5.98
							c0-0.89,0.31-1.64,0.94-2.27c0.62-0.62,1.38-0.94,2.27-0.94c0.89,0,1.63,0.31,2.24,0.94c0.6,0.62,0.91,1.38,0.91,2.27v5.98
							l-1.09,19.95c-0.04,0.56-0.24,1.01-0.6,1.33c-0.36,0.32-0.85,0.48-1.45,0.48C154.03,174.73,153.53,174.57,153.15,174.25z"/>
					</g>
				</g>
			</g>
		</g>
	</g>
</g>
<g id="_x32_-0註冊" class="st0">
	<g class="st1">
		<path class="st2" d="M155.63,43.73l65.78,60.59c-5.18-55.28-51.7-98.54-108.33-98.54C52.98,5.78,4.26,54.5,4.26,114.6
			c0,58.68,46.45,106.51,104.59,108.73l-45.12-49.36L155.63,43.73z"/>
		<path class="st4" d="M221.9,114.6c0-3.47-0.17-6.9-0.49-10.28L162.9,40.5L61.46,187.04l47.4,36.29c1.4,0.05,2.81,0.09,4.23,0.09
			C173.18,223.42,221.9,174.7,221.9,114.6z"/>
		<g>
			<path class="st29" d="M155.39,190.83H70.77c-7.88,0-14.33-6.45-14.33-14.33V52.69c0-7.88,6.45-14.33,14.33-14.33h84.62
				c7.88,0,14.33,6.45,14.33,14.33v123.82C169.71,184.39,163.27,190.83,155.39,190.83z"/>
			<path class="st5" d="M138.41,53.72H87.75c-0.85,0-1.55-0.7-1.55-1.55v-9.38c0-0.85,0.7-1.55,1.55-1.55h50.66
				c0.85,0,1.55,0.7,1.55,1.55v9.38C139.96,53.02,139.26,53.72,138.41,53.72z"/>
			<path class="st21" d="M153.4,177.62H72.76c-3.57,0-6.5-2.92-6.5-6.5V58.08c0-3.57,2.92-6.5,6.5-6.5h80.63
				c3.57,0,6.5,2.92,6.5,6.5v113.04C159.9,174.69,156.97,177.62,153.4,177.62z"/>
			<path class="st51" d="M133.89,43.16H92.27c-2.02,0-3.67,1.16-3.67,2.59v11.15c0,1.42,1.65,2.59,3.67,2.59h41.61
				c2.02,0,3.67-1.16,3.67-2.59V45.75C137.56,44.32,135.91,43.16,133.89,43.16z M133.38,55.25c0,1.1-1.28,2.01-2.85,2.01h-34.9
				c-1.57,0-2.85-0.9-2.85-2.01v-7.86c0-1.1,1.28-2.01,2.85-2.01h34.9c1.57,0,2.85,0.9,2.85,2.01V55.25z"/>
		</g>
		<g>
			<g>
				<g>
					<g>
						<line class="st52" x1="79" y1="85.74" x2="81.4" y2="85.74"/>
						<line class="st58" x1="86.28" y1="85.74" x2="142.32" y2="85.74"/>
						<line class="st52" x1="144.76" y1="85.74" x2="147.16" y2="85.74"/>
					</g>
				</g>
				<g>
					<g>
						<line class="st52" x1="79" y1="97.26" x2="81.4" y2="97.26"/>
						<line class="st58" x1="86.28" y1="97.26" x2="142.32" y2="97.26"/>
						<line class="st52" x1="144.76" y1="97.26" x2="147.16" y2="97.26"/>
					</g>
				</g>
				<line class="st54" x1="72.29" y1="114.06" x2="153.88" y2="114.06"/>
				<line class="st54" x1="72.29" y1="67.98" x2="153.88" y2="67.98"/>
			</g>
			<g>
				<g>
					<g>
						<line class="st56" x1="112.96" y1="131.22" x2="115.36" y2="131.22"/>
						<line class="st59" x1="120.02" y1="131.22" x2="145.67" y2="131.22"/>
						<line class="st56" x1="148" y1="131.22" x2="150.4" y2="131.22"/>
					</g>
				</g>
				<g>
					<g>
						<line class="st56" x1="112.96" y1="140.33" x2="115.36" y2="140.33"/>
						<line class="st59" x1="120.02" y1="140.33" x2="145.67" y2="140.33"/>
						<line class="st56" x1="148" y1="140.33" x2="150.4" y2="140.33"/>
					</g>
				</g>
				<g>
					<g>
						<line class="st56" x1="112.96" y1="149.45" x2="115.36" y2="149.45"/>
						<line class="st59" x1="120.02" y1="149.45" x2="145.67" y2="149.45"/>
						<line class="st56" x1="148" y1="149.45" x2="150.4" y2="149.45"/>
					</g>
				</g>
				<g>
					<g>
						<line class="st56" x1="112.96" y1="158.57" x2="115.36" y2="158.57"/>
						<line class="st59" x1="120.02" y1="158.57" x2="145.67" y2="158.57"/>
						<line class="st56" x1="148" y1="158.57" x2="150.4" y2="158.57"/>
					</g>
				</g>
			</g>
			<circle class="st22" cx="92.08" cy="144.89" r="16.32"/>
		</g>
		<g class="st0">
			<g class="st1">
				<path class="st32" d="M156.25,190.58H69.91c-7.93,0-14.42-6.49-14.42-14.42V53.03c0-7.93,6.49-14.42,14.42-14.42h86.34
					c7.93,0,14.42,6.49,14.42,14.42v123.13C170.67,184.09,164.18,190.58,156.25,190.58z"/>
				<path class="st5" d="M138.85,53.92H87.31c-0.86,0-1.56-0.7-1.56-1.56v-9.32c0-0.86,0.7-1.56,1.56-1.56h51.54
					c0.86,0,1.56,0.7,1.56,1.56v9.32C140.41,53.22,139.71,53.92,138.85,53.92z"/>
				<path class="st21" d="M154.14,177.41H72.02c-3.6,0-6.54-2.94-6.54-6.54V58.33c0-3.6,2.94-6.54,6.54-6.54h82.13
					c3.6,0,6.54,2.94,6.54,6.54v112.54C160.69,174.47,157.74,177.41,154.14,177.41z"/>
				<path class="st51" d="M134.24,43.4H91.92c-2.05,0-3.73,1.16-3.73,2.58v11.11c0,1.42,1.68,2.58,3.73,2.58h42.31
					c2.05,0,3.73-1.16,3.73-2.58V45.97C137.97,44.56,136.29,43.4,134.24,43.4z M133.73,55.44c0,1.1-1.31,2-2.9,2H95.33
					c-1.6,0-2.9-0.9-2.9-2v-7.83c0-1.1,1.31-2,2.9-2h35.49c1.6,0,2.9,0.9,2.9,2V55.44z"/>
			</g>
			<g class="st1">
				<g>
					<line class="st60" x1="78.43" y1="85.84" x2="84.25" y2="85.84"/>
					<line class="st61" x1="95.78" y1="85.84" x2="136.15" y2="85.84"/>
					<line class="st60" x1="141.91" y1="85.84" x2="147.73" y2="85.84"/>
				</g>
			</g>
			<g class="st1">
				<g>
					<line class="st60" x1="78.43" y1="97.32" x2="84.25" y2="97.32"/>
					<line class="st61" x1="95.78" y1="97.32" x2="136.15" y2="97.32"/>
					<line class="st60" x1="141.91" y1="97.32" x2="147.73" y2="97.32"/>
				</g>
			</g>
			<line class="st62" x1="71.6" y1="114.06" x2="154.57" y2="114.06"/>
			<line class="st62" x1="71.6" y1="68.14" x2="154.57" y2="68.14"/>
			<g class="st1">
				<g>
					<g>
						<line class="st60" x1="112.96" y1="131.16" x2="151.03" y2="131.16"/>
					</g>
					<g>
						<line class="st60" x1="112.96" y1="140.25" x2="151.03" y2="140.25"/>
					</g>
					<g>
						<line class="st60" x1="112.96" y1="149.34" x2="151.03" y2="149.34"/>
					</g>
					<g>
						<line class="st60" x1="112.96" y1="158.43" x2="151.03" y2="158.43"/>
					</g>
				</g>
			</g>
			<ellipse class="st63" cx="91.73" cy="144.79" rx="16.59" ry="16.26"/>
		</g>
	</g>
</g>
<g id="_x31_-2新生資料登錄" class="st0">
	<g class="st1">
		<g>
			<path class="st8" d="M121.62,55.44l97.61,26.93c-13.81-45.53-56.1-78.68-106.14-78.68C51.82,3.68,2.17,53.34,2.17,114.6
				c0,45.97,27.98,85.37,67.82,102.2l-24.69-67.22L121.62,55.44z"/>
			<polygon class="st64" points="219.23,82.37 219.23,82.37 219.23,82.37 			"/>
			<polygon class="st64" points="69.98,216.8 69.99,216.8 69.98,216.79 			"/>
			<path class="st10" d="M222.53,96.59c-0.79-4.86-1.91-9.6-3.31-14.23v0l-97.61-26.93l-76.33,94.14l24.69,67.22c0,0,0,0,0,0
				c8.09,3.41,16.66,5.92,25.59,7.34c5.7,0.9,11.55,1.38,17.5,1.38c61.26,0,110.92-49.66,110.92-110.92
				C224,108.47,223.49,102.45,222.53,96.59z"/>
		</g>
		<g>
			<g>
				<path class="st11" d="M174.1,75.14H52.06c-3.72,0-6.77,3.04-6.77,6.77v67.67c0,3.72,3.04,6.77,6.77,6.77h53.74v13.21H78.17v7.28
					h69.81v-7.28h-27.63v-13.21h53.74c3.72,0,6.77-3.04,6.77-6.77V81.91C180.87,78.19,177.82,75.14,174.1,75.14z"/>
				<rect x="45.29" y="139.88" class="st6" width="135.57" height="3.45"/>
				<g>
					<circle class="st6" cx="113.08" cy="149.83" r="3.76"/>
					<circle class="st6" cx="124" cy="149.83" r="2.38"/>
					<circle class="st6" cx="102.17" cy="149.83" r="2.38"/>
				</g>
			</g>
			<g>
				<circle class="st29" cx="111.76" cy="69.75" r="17.39"/>
				<path class="st29" d="M139.91,129.7c0.01-0.5,0.03-1,0.03-1.5c0-21.02-12.88-38.07-28.78-38.07s-28.78,17.04-28.78,38.07
					c0,0.5,0.01,1,0.03,1.5H139.91z"/>
			</g>
			<path class="st25" d="M132.62,116.02l2.21,35.98c0.09,1.49,1.67,2.41,3.02,1.75l5.47-2.68c1.04-0.51,2.3-0.08,2.81,0.96
				l7.5,15.27c0.51,1.04,1.77,1.47,2.81,0.96l6.44-3.17c1.04-0.51,1.47-1.77,0.96-2.81l-7.5-15.27c-0.51-1.04-0.08-2.3,0.96-2.81
				l5.47-2.68c1.34-0.66,1.58-2.47,0.46-3.46l-27.12-23.74C134.69,113.08,132.51,114.16,132.62,116.02z"/>
		</g>
	</g>
</g>
<g id="_x31_-1新生學號查詢" class="st0">
	<g class="st1">
		<g>
			<g>
				<g>
					<path class="st8" d="M176.78,74.27l47.16,42.94c0.02-0.87,0.05-1.74,0.05-2.61c0-6.13-0.51-12.14-1.46-18.01
						c-8.6-52.69-54.33-92.91-109.45-92.91C51.82,3.68,2.17,53.34,2.17,114.6c0,45.57,27.49,84.69,66.78,101.75l-24.81-67.67
						L176.78,74.27z"/>
				</g>
				<path class="st8" d="M223.94,117.21c0,0.01,0,0.02,0,0.03l0.02-0.01L223.94,117.21z"/>
				<polygon class="st8" points="68.94,216.36 68.95,216.35 68.94,216.35 				"/>
				<g>
					<path class="st10" d="M176.78,74.27L44.13,148.68l24.81,67.67c0,0,0,0,0.01,0c8.39,3.64,17.31,6.3,26.63,7.78
						c5.7,0.9,11.55,1.38,17.5,1.38c31.37,0,59.68-13.05,79.86-33.99c3.95-4.1,7.59-8.51,10.88-13.18
						c12.22-17.37,19.59-38.39,20.12-61.11c0-0.01,0-0.02,0-0.03L176.78,74.27z"/>
				</g>
			</g>
		</g>
		<g>
			<g>
				<g>
					<g>
						<path class="st32" d="M167.62,157.84H58.55c-8.81,0-15.95-7.14-15.95-15.95V87.31c0-8.81,7.14-15.95,15.95-15.95h109.07
							c8.81,0,15.95,7.14,15.95,15.95v54.58C183.57,150.7,176.42,157.84,167.62,157.84z"/>
						<g>
							<path class="st51" d="M91.91,140.52H71.97c-8.81,0-15.95-7.14-15.95-15.95v-19.95c0-8.81,7.14-15.95,15.95-15.95h19.95
								c8.81,0,15.95,7.14,15.95,15.95v19.95C107.86,133.38,100.72,140.52,91.91,140.52z"/>
							<g>
								<circle class="st29" cx="82.26" cy="103.16" r="9.34"/>
								<path class="st29" d="M97.38,140.52c0.01-0.33,0.02-0.66,0.02-1c0-14.03-6.92-25.41-15.46-25.41s-15.46,11.37-15.46,25.41
									c0,0.34,0.01,0.67,0.02,1H97.38z"/>
							</g>
						</g>
					</g>
					<g>
						<g>
							<g>
								<line class="st23" x1="118.16" y1="112.34" x2="171.52" y2="112.34"/>
							</g>
							<g>
								<line class="st23" x1="118.16" y1="123.29" x2="171.52" y2="123.29"/>
							</g>
							<g>
								<line class="st23" x1="112.9" y1="134.24" x2="176.78" y2="134.24"/>
							</g>
							<g>
								<line class="st65" x1="117.03" y1="97.22" x2="151.24" y2="97.22"/>
							</g>
							<g>
								<line class="st65" x1="157.43" y1="97.22" x2="171.52" y2="97.22"/>
							</g>
						</g>
					</g>
				</g>
			</g>
			<g>
				<path class="st25" d="M192.48,164.06c-1.81-2.28-5.12-2.66-7.4-0.85l-4.85,3.85c-2.28,1.81-2.66,5.12-0.85,7.4l13.55,17.08
					c3.95-4.1,7.59-8.51,10.88-13.18L192.48,164.06z"/>
				<g>
					<circle class="st46" cx="166.52" cy="144.8" r="36.05"/>
					<circle class="st25" cx="166.52" cy="144.8" r="25.95"/>
					<circle class="st6" cx="168.9" cy="122.6" r="7.23"/>
					<circle class="st6" cx="167.98" cy="135.79" r="4.01"/>
				</g>
			</g>
		</g>
	</g>
</g>
<g id="_x31_-0資料登錄">
	<g>
		<g>
			<path class="st8" d="M157.14,46.92L220.59,89c-11.55-48.68-55.3-84.9-107.51-84.9C52.05,4.1,2.58,53.57,2.58,114.6
				c0,53.27,37.69,97.73,87.86,108.17l-36.21-43.95L157.14,46.92z"/>
			<path class="st10" d="M223.58,114.6c0-8.81-1.04-17.38-2.99-25.6l-66.9-50.37L46.64,178.82l43.8,43.95
				c7.31,1.52,14.88,2.32,22.63,2.32C174.11,225.1,223.58,175.62,223.58,114.6z"/>
		</g>
		<g>
			<g>
				<g>
					<path class="st32" d="M143.38,185.18H57.05c-7.93,0-14.42-6.49-14.42-14.42V47.63c0-7.93,6.49-14.42,14.42-14.42h86.34
						c7.93,0,14.42,6.49,14.42,14.42v123.13C157.8,178.69,151.31,185.18,143.38,185.18z"/>
					<path class="st5" d="M125.98,48.52H74.44c-0.86,0-1.56-0.7-1.56-1.56v-9.32c0-0.86,0.7-1.56,1.56-1.56h51.54
						c0.86,0,1.56,0.7,1.56,1.56v9.32C127.54,47.81,126.84,48.52,125.98,48.52z"/>
					<path class="st21" d="M141.28,172.01H59.15c-3.6,0-6.54-2.94-6.54-6.54V52.92c0-3.6,2.94-6.54,6.54-6.54h82.13
						c3.6,0,6.54,2.94,6.54,6.54v112.54C147.82,169.06,144.88,172.01,141.28,172.01z"/>
					<path class="st51" d="M121.37,37.99H79.06c-2.05,0-3.73,1.16-3.73,2.58v11.11c0,1.42,1.68,2.58,3.73,2.58h42.31
						c2.05,0,3.73-1.16,3.73-2.58V40.57C125.1,39.15,123.42,37.99,121.37,37.99z M120.86,50.04c0,1.1-1.31,2-2.9,2H82.47
						c-1.6,0-2.9-0.9-2.9-2v-7.83c0-1.1,1.31-2,2.9-2h35.49c1.6,0,2.9,0.9,2.9,2V50.04z"/>
				</g>
				<g>
					<g>
						<line class="st60" x1="65.56" y1="80.43" x2="71.38" y2="80.43"/>
						<line class="st61" x1="82.91" y1="80.43" x2="123.28" y2="80.43"/>
						<line class="st60" x1="129.05" y1="80.43" x2="134.87" y2="80.43"/>
					</g>
				</g>
				<g>
					<g>
						<line class="st60" x1="65.56" y1="91.91" x2="71.38" y2="91.91"/>
						<line class="st61" x1="82.91" y1="91.91" x2="123.28" y2="91.91"/>
						<line class="st60" x1="129.05" y1="91.91" x2="134.87" y2="91.91"/>
					</g>
				</g>
				<line class="st60" x1="58.73" y1="108.66" x2="141.7" y2="108.66"/>
				<line class="st60" x1="58.73" y1="62.73" x2="141.7" y2="62.73"/>
				<g>
					<g>
						<g>
							<line class="st60" x1="100.09" y1="125.76" x2="138.16" y2="125.76"/>
						</g>
						<g>
							<line class="st60" x1="100.09" y1="134.85" x2="138.16" y2="134.85"/>
						</g>
						<g>
							<line class="st60" x1="100.09" y1="143.93" x2="138.16" y2="143.93"/>
						</g>
						<g>
							<line class="st60" x1="100.09" y1="153.02" x2="138.16" y2="153.02"/>
						</g>
					</g>
				</g>
				<ellipse class="st22" cx="78.86" cy="139.39" rx="16.59" ry="16.26"/>
			</g>
			<g>
				<g>
					<ellipse class="st6" cx="141.57" cy="137.16" rx="19.56" ry="19.97"/>
					<path class="st6" d="M141.57,160.92c-20.52,0-37.16,12.79-37.16,28.56h74.31C178.72,173.71,162.09,160.92,141.57,160.92z"/>
				</g>
			</g>
		</g>
	</g>
</g>
</svg>
