<?xml version="1.0" encoding="utf-8"?>
<!-- Generator: Adobe Illustrator 26.0.0, SVG Export Plug-In . SVG Version: 6.00 Build 0)  -->
<svg version="1.1" xmlns="http://www.w3.org/2000/svg" xmlns:xlink="http://www.w3.org/1999/xlink" x="0px" y="0px"
	 viewBox="0 0 227.2 228.3" style="enable-background:new 0 0 227.2 228.3;" xml:space="preserve">
<style type="text/css">
	.st0{display:none;}
	.st1{display:inline;}
	.st2{fill:#9ACAC3;}
	.st3{fill:#BF2E11;}
	.st4{fill:#6AB5B5;}
	.st5{fill:#9E6944;}
	.st6{fill:#FFFFFF;}
	.st7{fill:#FFF1E6;}
	.st8{fill:#6ECFC2;}
	.st9{fill:#67FF74;}
	.st10{fill:#0DAF9A;}
	.st11{fill:#F6CB85;}
	.st12{fill:#C69473;stroke:#FFFFFF;stroke-width:3;stroke-linecap:round;stroke-linejoin:round;stroke-miterlimit:10;}
	.st13{fill:#EAE0D5;stroke:#FFFFFF;stroke-width:3;stroke-linecap:round;stroke-linejoin:round;stroke-miterlimit:10;}
	.st14{fill:#1E94A0;}
	.st15{fill:#C69473;stroke:#FFFFFF;stroke-width:6;stroke-linecap:round;stroke-linejoin:round;stroke-miterlimit:10;}
	.st16{fill:#EAE0D5;stroke:#FFFFFF;stroke-width:6;stroke-linecap:round;stroke-linejoin:round;stroke-miterlimit:10;}
	.st17{fill:#F4BD61;}
	.st18{fill:#C6AC8F;}
	.st19{fill:#F0EFEB;}
	.st20{fill:#004E6D;}
	.st21{fill:#E7D8C9;}
	.st22{fill:#C69473;}
	.st23{fill:none;stroke:#CB8854;stroke-width:3;stroke-miterlimit:10;}
	.st24{fill:none;stroke:#CB8854;stroke-width:3;stroke-miterlimit:10;stroke-dasharray:4.7855,4.7855;}
	.st25{fill:#22333B;}
	.st26{fill:#EDDCD2;}
	.st27{fill:#F1CC8B;}
	.st28{fill:#7ABCBA;}
	.st29{fill:#FEFEFF;}
	.st30{fill:none;}
	.st31{fill:#D9A691;}
	.st32{fill:#F7EDE3;}
	.st33{fill:#6B6BCE;}
	.st34{fill:#E3C8B8;}
	.st35{fill:#F6F6F7;}
	.st36{fill:#E6BEAE;}
	.st37{fill:#59FFC0;}
	.st38{fill:none;stroke:#004E6D;stroke-width:0.5161;stroke-miterlimit:10;}
	.st39{fill:#F9F9F9;stroke:#6ECFC2;stroke-width:1.6578;stroke-miterlimit:10;}
	.st40{fill:#5EFF62;}
	.st41{fill:#EAE0D5;stroke:#FFFFFF;stroke-width:6;stroke-miterlimit:10;}
	.st42{fill:none;stroke:#FFFFFF;stroke-width:9;stroke-linecap:round;stroke-linejoin:round;stroke-miterlimit:10;}
	.st43{fill:#6AC600;}
	.st44{fill:none;stroke:#22333B;stroke-width:6;stroke-linecap:round;stroke-linejoin:round;stroke-miterlimit:10;}
	.st45{fill:#4BE8FF;}
	.st46{fill:#FFFFFF;stroke:#22333B;stroke-width:3;stroke-miterlimit:10;}
	.st47{fill:#EAE0D5;}
	.st48{fill:#5E503F;}
	.st49{fill:#FFFFFF;stroke:#9E6944;stroke-width:3;stroke-miterlimit:10;}
	.st50{fill:none;stroke:#9E6944;stroke-width:3;stroke-miterlimit:10;}
	.st51{fill:#CB8854;}
	.st52{fill:none;stroke:#CB8854;stroke-width:1.9198;stroke-miterlimit:10;}
	.st53{fill:none;stroke:#CB8854;stroke-width:1.9198;stroke-miterlimit:10;stroke-dasharray:4.9892,4.9892;}
	.st54{fill:none;stroke:#CB8854;stroke-width:0.9599;stroke-miterlimit:10;}
	.st55{fill:none;stroke:#CB8854;stroke-width:1.5;stroke-miterlimit:10;}
	.st56{fill:none;stroke:#CB8854;stroke-width:0.7199;stroke-miterlimit:10;}
	.st57{fill:none;stroke:#CB8854;stroke-width:0.7199;stroke-miterlimit:10;stroke-dasharray:4.4756,4.4756;}
	.st58{fill:none;stroke:#CB8854;stroke-width:1.9198;stroke-miterlimit:10;stroke-dasharray:4.8733,4.8733;}
	.st59{fill:none;stroke:#CB8854;stroke-width:0.7199;stroke-miterlimit:10;stroke-dasharray:4.6623,4.6623;}
	.st60{fill:none;stroke:#CB8854;stroke-width:2.3278;stroke-miterlimit:10;}
	.st61{fill:none;stroke:#CB8854;stroke-width:2.3278;stroke-miterlimit:10;stroke-dasharray:11.533,11.533;}
	.st62{display:inline;fill:none;stroke:#CB8854;stroke-width:2.3278;stroke-miterlimit:10;}
	.st63{display:inline;fill:#C69473;}
	.st64{fill:#DD6C52;}
	.st65{fill:none;stroke:#CB8854;stroke-width:15;stroke-miterlimit:10;}
	.st66{fill:#FFDEC2;}
	.st67{fill:#FF9C39;}
</style>
<g id="圖層_1" class="st0">
	<g id="_x38_-5">
		<g class="st1">
			<g>
				<path class="st2" d="M160.3,49.5l63.2,54.7c-0.2-2.6-0.6-5.2-1-7.7c-8.6-52.7-54.3-92.9-109.4-92.9C51.8,3.7,2.2,53.3,2.2,114.6
					c0,53,37.2,97.3,86.9,108.3l-23.2-43.2L160.3,49.5z"/>
				<path class="st3" d="M89.1,222.9L89.1,222.9C89.1,222.9,89.1,222.9,89.1,222.9L89.1,222.9z"/>
				<path class="st3" d="M223.5,104.3L223.5,104.3C223.5,104.3,223.5,104.3,223.5,104.3L223.5,104.3z"/>
				<path class="st4" d="M223.5,104.3C223.5,104.3,223.5,104.3,223.5,104.3l-63.2-54.7L65.9,179.7l23.2,43.2c0,0,0,0,0,0
					c2.1,0.5,4.3,0.9,6.5,1.2c5.7,0.9,11.6,1.4,17.5,1.4c61.3,0,110.9-49.7,110.9-110.9C224,111.1,223.8,107.7,223.5,104.3z"/>
			</g>
			<g>
				<rect x="65.9" y="49.5" class="st5" width="94.4" height="130.1"/>
				<g>
					<g>
						<g>
							<rect x="75.6" y="62.9" class="st6" width="16.8" height="19.7"/>
							<rect x="104.7" y="62.9" class="st6" width="16.8" height="19.7"/>
							<rect x="133.8" y="62.9" class="st6" width="16.8" height="19.7"/>
						</g>
					</g>
					<g>
						<rect x="75.6" y="89.8" class="st6" width="16.8" height="19.7"/>
						<rect x="104.7" y="89.8" class="st6" width="16.8" height="19.7"/>
						<rect x="133.8" y="89.8" class="st6" width="16.8" height="19.7"/>
					</g>
					<g>
						<g>
							<rect x="75.6" y="116.8" class="st6" width="16.8" height="19.7"/>
							<rect x="104.7" y="116.8" class="st6" width="16.8" height="19.7"/>
							<rect x="133.8" y="116.8" class="st6" width="16.8" height="19.7"/>
						</g>
					</g>
				</g>
				<g>
					<rect x="96.6" y="145.3" class="st6" width="15" height="30.1"/>
					<rect x="114.6" y="145.3" class="st6" width="15" height="30.1"/>
				</g>
			</g>
		</g>
	</g>
	<g id="_x38_-0">
		<g class="st1">
			<g>
				<g>
					<g>
						<path class="st2" d="M79.5,96.9L109,76.2l30.6,9.6l23.1-13.2l61.2,45.4c0-1.1,0.1-2.2,0.1-3.3c0-6.1-0.5-12.1-1.5-18
							c-8.6-52.7-54.3-92.9-109.4-92.9C51.8,3.7,2.2,53.3,2.2,114.6c0,52.2,36.1,96,84.7,107.8l-23.5-65.7L79.5,96.9z"/>
					</g>
					<path class="st2" d="M86.9,222.4L86.9,222.4C86.9,222.4,86.9,222.4,86.9,222.4L86.9,222.4z"/>
					<path class="st2" d="M223.9,117.9C223.9,117.9,223.9,117.9,223.9,117.9L223.9,117.9L223.9,117.9z"/>
					<g>
						<path class="st4" d="M162.7,72.5l-23.1,13.2L109,76.2L79.5,96.9l-16.1,59.8l23.5,65.7c0,0,0,0,0,0c2.8,0.7,5.7,1.3,8.7,1.8
							c5.7,0.9,11.6,1.4,17.5,1.4c60.1,0,109.1-47.9,110.8-107.6c0,0,0,0,0,0L162.7,72.5z"/>
					</g>
				</g>
			</g>
			<path class="st7" d="M171.5,125.9l-14.2-8.2c-0.1,0-0.1,0-0.1-0.1c0.1-1,0.1-2,0.1-3c0-1.6-0.1-3.2-0.3-4.7l13.7-7.9
				c3.7-2.2,5-6.9,2.9-10.7l-10.9-18.8c-2.1-3.7-6.9-5-10.7-2.9l-14.2,8.2c0,0-0.1,0.1-0.1,0.1c-2.1-1.4-4.4-2.7-6.8-3.7V58.4
				c0-4.3-3.5-7.8-7.8-7.8h-21.7c-4.3,0-7.8,3.5-7.8,7.8v16.4c0,0.1,0,0.1,0,0.2c-2.3,1.1-4.5,2.5-6.6,4L73.4,71
				c-3.7-2.2-8.5-0.9-10.7,2.9L51.8,92.7c-2.2,3.7-0.9,8.5,2.9,10.7l14.2,8.2c0.1,0,0.1,0,0.2,0.1c-0.1,1-0.2,2-0.2,3
				c0,1.6,0.1,3.2,0.3,4.7l-13.7,7.9c-3.7,2.1-5,6.9-2.9,10.7l10.9,18.8c2.1,3.7,7,5,10.7,2.9l14.2-8.2c0,0,0.1-0.1,0.1-0.1
				c2.1,1.4,4.4,2.7,6.8,3.7v15.8c0,4.3,3.5,7.8,7.8,7.8h21.7c4.3,0,7.8-3.5,7.8-7.8v-16.4c0-0.1,0-0.1,0-0.1c2.3-1.1,4.5-2.5,6.6-4
				l13.7,7.9c3.7,2.1,8.5,0.9,10.7-2.9l10.9-18.8C176.5,132.8,175.2,128,171.5,125.9z M113.1,138.9c-13.4,0-24.3-10.9-24.3-24.3
				s10.9-24.3,24.3-24.3s24.3,10.9,24.3,24.3S126.5,138.9,113.1,138.9z"/>
		</g>
	</g>
	<g id="_x37_-4">
		<g class="st1">
			<g>
				<path class="st8" d="M178.4,75.9l45,27.6c-0.2-2.3-0.5-4.6-0.9-6.9c-8.6-52.7-54.3-92.9-109.4-92.9C51.8,3.7,2.2,53.3,2.2,114.6
					c0,45,26.9,83.8,65.4,101.2l-19.9-64.4L178.4,75.9z"/>
				<path class="st9" d="M67.6,215.8L67.6,215.8L67.6,215.8z"/>
				<path class="st9" d="M223.4,103.5L223.4,103.5C223.4,103.5,223.4,103.5,223.4,103.5L223.4,103.5z"/>
				<path class="st10" d="M223.4,103.5C223.4,103.5,223.4,103.5,223.4,103.5l-45-27.6L47.7,151.4l19.9,64.4c0,0,0,0,0,0
					c8.8,3.9,18.2,6.8,28,8.4c5.7,0.9,11.6,1.4,17.5,1.4c61.3,0,110.9-49.7,110.9-110.9C224,110.9,223.8,107.2,223.4,103.5z"/>
			</g>
			<g>
				<g>
					<path class="st11" d="M174.1,74.3h-122c-3.7,0-6.8,3-6.8,6.8v67.7c0,3.7,3,6.8,6.8,6.8h53.7v13.2H78.2v7.3H148v-7.3h-27.6
						v-13.2h53.7c3.7,0,6.8-3,6.8-6.8V81.1C180.9,77.4,177.8,74.3,174.1,74.3z"/>
					<rect x="45.3" y="139.1" class="st6" width="135.6" height="3.4"/>
					<g>
						<circle class="st6" cx="113.1" cy="149" r="3.8"/>
						<circle class="st6" cx="124" cy="149" r="2.4"/>
						<circle class="st6" cx="102.2" cy="149" r="2.4"/>
					</g>
				</g>
				<g>
					<rect x="62.4" y="66.7" class="st12" width="101.3" height="61.6"/>
					<path class="st13" d="M113.9,128.3l-4.8-2.2C99,121.4,87.9,119,76.7,119h-3.2V53.2h8.4c9.8,0,19.3,3.1,27.2,8.8l4.7,3.4
						L113.9,128.3L113.9,128.3z"/>
					<path class="st13" d="M113.9,128.3l4.8-2.2c10.1-4.7,21.2-7.1,32.4-7.1h3.2V53.2h-8.4c-9.8,0-19.3,3.1-27.2,8.8l-4.7,3.4
						L113.9,128.3L113.9,128.3z"/>
				</g>
			</g>
		</g>
	</g>
	<g id="_x37_-3">
		<g class="st1">
			<g>
				<path class="st8" d="M185.1,80.9l38.9,33.7c0-6.1-0.5-12.1-1.5-18c-8.6-52.7-54.3-92.9-109.4-92.9C51.8,3.7,2.2,53.3,2.2,114.6
					c0,44.5,26.2,82.8,63.9,100.5l-24.2-47L185.1,80.9z"/>
				<path class="st14" d="M66.1,215.1L66.1,215.1C66.1,215.1,66.1,215.1,66.1,215.1L66.1,215.1z"/>
				<path class="st10" d="M185.1,80.9L41.9,168.1l24.2,47c0,0,0,0,0,0c9.2,4.3,19.1,7.4,29.5,9.1c5.7,0.9,11.6,1.4,17.5,1.4
					c61.3,0,110.9-49.7,110.9-110.9L185.1,80.9z"/>
			</g>
			<g>
				<g>
					<rect x="41.9" y="80.9" class="st15" width="143.2" height="87.1"/>
					<path class="st16" d="M114.6,168.1l-6.7-3.1c-14.4-6.6-30-10.1-45.8-10.1h-4.5V61.7h11.8c13.8,0,27.3,4.4,38.5,12.5l6.6,4.8
						L114.6,168.1L114.6,168.1z"/>
					<path class="st16" d="M114.6,168.1l6.7-3.1c14.4-6.6,30-10.1,45.8-10.1h4.5V61.7h-11.8c-13.8,0-27.3,4.4-38.5,12.5l-6.6,4.8
						L114.6,168.1L114.6,168.1z"/>
				</g>
			</g>
			<path class="st17" d="M196.1,147.7l-8-4.6c0,0-0.1,0-0.1,0c0-0.6,0.1-1.1,0.1-1.7c0-0.9-0.1-1.8-0.1-2.6l7.7-4.5
				c2.1-1.2,2.8-3.9,1.6-6l-6.1-10.6c-1.2-2.1-3.9-2.8-6-1.6l-8,4.6c0,0,0,0-0.1,0c-1.2-0.8-2.5-1.5-3.8-2.1v-8.9
				c0-2.4-2-4.4-4.4-4.4h-12.3c-2.4,0-4.4,2-4.4,4.4v9.3c0,0,0,0.1,0,0.1c-1.3,0.6-2.6,1.4-3.7,2.2l-7.8-4.5c-2.1-1.2-4.8-0.5-6,1.6
				l-6.1,10.6c-1.2,2.1-0.5,4.8,1.6,6l8,4.6c0,0,0.1,0,0.1,0c0,0.6-0.1,1.1-0.1,1.7c0,0.9,0.1,1.8,0.1,2.6l-7.7,4.5
				c-2.1,1.2-2.8,3.9-1.6,6l6.1,10.6c1.2,2.1,3.9,2.8,6,1.6l8-4.6c0,0,0,0,0.1,0c1.2,0.8,2.5,1.5,3.8,2.1v8.9c0,2.4,2,4.4,4.4,4.4
				h12.3c2.4,0,4.4-2,4.4-4.4v-9.3c0,0,0-0.1,0-0.1c1.3-0.6,2.6-1.4,3.7-2.2l7.8,4.5c2.1,1.2,4.8,0.5,6-1.6l6.1-10.6
				C198.9,151.6,198.2,148.9,196.1,147.7z M163.1,155.1c-7.6,0-13.7-6.1-13.7-13.7c0-7.6,6.1-13.7,13.7-13.7
				c7.6,0,13.7,6.2,13.7,13.7C176.8,148.9,170.6,155.1,163.1,155.1z"/>
		</g>
	</g>
	<g id="_x37_-2">
		<g class="st1">
			<g>
				<path class="st8" d="M161.1,49.7l62.5,64.7C223.5,53.4,174.1,4.1,113.1,4.1C52,4.1,2.5,53.6,2.5,114.6
					c0,47.4,29.8,87.8,71.7,103.5l-24.6-38.3L161.1,49.7z"/>
				<path class="st10" d="M223.6,114.6c0-0.1,0-0.1,0-0.2l-62.5-64.7L49.6,179.8l24.6,38.3c12.1,4.5,25.2,7,38.8,7
					C174.1,225.1,223.6,175.6,223.6,114.6z"/>
			</g>
			<g>
				<g>
					<g>
						<g>
							<path class="st18" d="M113.1,103.6h60.8c2.7,0,3.8-4.6,1.6-6.6l-27.7-26l-28.2-26.5c-3.7-3.4-9.4-3.4-13,0L78.4,71L50.8,97
								c-2.2,2.1-1.1,6.6,1.6,6.6H113.1z"/>
						</g>
						<g>
							<rect x="50.7" y="99.8" class="st18" width="125" height="65.1"/>
						</g>
					</g>
				</g>
				<path class="st19" d="M154.6,162.9H71.6c-4.7,0-8.6-3.9-8.6-8.6V55.5c0-4.7,3.9-8.6,8.6-8.6h83.1c4.7,0,8.6,3.9,8.6,8.6v98.8
					C163.2,159.1,159.3,162.9,154.6,162.9z"/>
				<g>
					<g>
						<path class="st20" d="M113.2,63.2h3.6c3.2,0.2,6.3,0.9,9.2,2.1c3.5,1.5,6.5,4.1,8.8,7.7c2.4,4.5,2.9,9.2,1.6,14.3
							c-0.7,3.2-2.8,6.5-6.4,9.8c-3.5,2.9-6.9,4-10.1,3.2c-1.2-0.2-2.2-0.7-2.9-1.4c-0.8-0.9-1.6-1-2.5-0.3
							c-3.3,2.2-7.1,2.4-11.2,0.9c-0.7-0.2-1.5-0.7-2.3-1.5c-2.7-2.8-3.8-6.1-3.2-10.1c0.5-3.1,2-6.2,4.6-9.2c4.3-5,9-6.9,13.9-5.7
							c0.8,0.2,1.5,0.4,2.1,0.8c0.9,0.7,1.4,0.8,1.6,0.4c0.5-1.1,1.4-1.6,2.8-1.6c1.6,0.1,2.8,1,3.4,2.7c0.2,0.4,0.2,0.8-0.1,1.2
							l-4.7,16.2c-0.2,0.3,0,0.7,0.5,1.1c2.2,1,4.3-0.1,6.5-3.1c2.4-3.3,3.2-6.8,2.7-10.6c-0.4-2.6-1.9-5-4.6-7.3
							c-2.8-2-5.9-3.2-9.2-3.3c-5.3-0.5-10.4,1-15.1,4.6c-1.6,1.2-3,2.6-4,4.2c-1.9,3.4-2.8,7-2.5,10.8c0.2,3.4,1.1,6.5,2.7,9.2
							c1.5,2.4,3.5,4.3,6,5.5c2.5,1.1,5.2,1.7,7.9,1.8h3.1c5.4-0.2,10-2.1,13.9-5.7c0.9-1.1,1.9-1.7,3.2-1.6c0.9,0,1.7,0.4,2.3,1.1
							c1.3,1.8,1.1,3.5-0.5,5.1c-4,3.7-8.6,5.9-13.9,6.6c-5.6,0.9-10.9,0.7-15.9-0.8c-3.4-0.9-6.4-2.7-9-5.4c-2.7-2.9-4.4-6-5.3-9.2
							c-0.5-2-0.9-4-1-6.1v-3.1c0.3-3.3,1.1-6.4,2.5-9.2c2.9-5.2,7.1-9,12.6-11.6c2.3-1.1,4.7-1.7,6.9-2
							C111.7,63.5,112.4,63.3,113.2,63.2z M112.8,78.4c-1.8,0.3-3.4,1.3-4.7,3c-2.4,3-3.5,6.2-3.2,9.5c0.1,0.8,0.4,1.6,0.8,2.3
							c0.5,0.9,1.2,1.4,2.1,1.7c2.7,0.3,5-0.7,7-3.2c0.4-0.5,0.7-0.9,0.7-1.2c0.7-2.7,1.5-5.4,2.3-8.1c0.2-0.4,0.1-1-0.1-1.7
							c-0.1-0.8-0.7-1.5-1.7-2.1C115.2,78.2,114.2,78.2,112.8,78.4z"/>
					</g>
				</g>
				<path class="st7" d="M176.3,98.5c0.6,1.5,0.4,3.5-0.9,4.6l-27.6,26l-28.2,26.5c-3.7,3.4-9.4,3.4-13,0l-28.2-26.5l-27.7-26
					c-1.6-1.5-1.4-4.3-0.2-5.7c-1.2,0.8-1.9,2.2-1.9,3.7v76.3c0,2.6,2.1,4.7,4.7,4.7h119.5c2.6,0,4.7-2.1,4.7-4.7V102
					C177.5,100.7,177.1,99.5,176.3,98.5z"/>
				<path class="st21" d="M113.1,181h60.8c2.7,0,3.8-4.6,1.6-6.6l-27.6-26l-28.2-26.5c-3.7-3.4-9.4-3.4-13,0l-28.2,26.5l-27.7,26
					c-2.2,2.1-1.1,6.6,1.6,6.6H113.1z"/>
			</g>
		</g>
	</g>
	<g id="_x37_-1">
		<g class="st1">
			<g>
				<g>
					<g>
						<path class="st8" d="M180.4,68l43.3,39.2c-0.2-3.6-0.6-7.1-1.2-10.6c-8.6-52.7-54.3-92.9-109.4-92.9
							C51.8,3.7,2.2,53.3,2.2,114.6c0,47.8,30.2,88.5,72.6,104.1L46.7,142L180.4,68z"/>
					</g>
					<path class="st8" d="M74.7,218.7L74.7,218.7C74.7,218.7,74.7,218.7,74.7,218.7L74.7,218.7z"/>
					<path class="st8" d="M223.8,107.2L223.8,107.2C223.7,107.2,223.7,107.2,223.8,107.2L223.8,107.2z"/>
					<g>
						<path class="st10" d="M223.7,107.2C223.7,107.2,223.7,107.2,223.7,107.2L180.4,68L46.7,142l28.1,76.6c0,0,0,0,0,0
							c6.7,2.5,13.6,4.3,20.8,5.4c5.7,0.9,11.6,1.4,17.5,1.4c61.3,0,110.9-49.7,110.9-110.9C224,112.1,223.9,109.7,223.7,107.2z"/>
					</g>
				</g>
			</g>
			<g>
				<g>
					<path class="st17" d="M174.1,63.6h-122c-3.7,0-6.8,3-6.8,6.8V138c0,3.7,3,6.8,6.8,6.8h53.7V158H78.2v7.3H148V158h-27.6v-13.2
						h53.7c3.7,0,6.8-3,6.8-6.8V70.3C180.9,66.6,177.8,63.6,174.1,63.6z"/>
					<rect x="45.3" y="128.3" class="st6" width="135.6" height="3.4"/>
					<g>
						<circle class="st6" cx="113.1" cy="138.3" r="3.8"/>
						<circle class="st6" cx="124" cy="138.3" r="2.4"/>
						<circle class="st6" cx="102.2" cy="138.3" r="2.4"/>
					</g>
				</g>
				<g>
					<rect x="68.9" y="73.4" class="st5" width="73.5" height="47.1"/>
					<rect x="68.9" y="80.5" class="st21" width="73.5" height="40"/>
				</g>
				<circle class="st22" cx="83.9" cy="99.7" r="10.9"/>
				<g>
					<g>
						<g>
							<g>
								<g>
									<line class="st23" x1="99" y1="88.8" x2="101.4" y2="88.8"/>
									<line class="st24" x1="106.2" y1="88.8" x2="132.5" y2="88.8"/>
									<line class="st23" x1="134.9" y1="88.8" x2="137.3" y2="88.8"/>
								</g>
							</g>
							<g>
								<g>
									<line class="st23" x1="99" y1="99.7" x2="101.4" y2="99.7"/>
									<line class="st24" x1="106.2" y1="99.7" x2="132.5" y2="99.7"/>
									<line class="st23" x1="134.9" y1="99.7" x2="137.3" y2="99.7"/>
								</g>
							</g>
							<g>
								<g>
									<line class="st23" x1="99" y1="110.6" x2="101.4" y2="110.6"/>
									<line class="st24" x1="106.2" y1="110.6" x2="132.5" y2="110.6"/>
									<line class="st23" x1="134.9" y1="110.6" x2="137.3" y2="110.6"/>
								</g>
							</g>
						</g>
					</g>
				</g>
				<g>
					<path class="st25" d="M136.1,113.2l2.2,36c0.1,1.5,1.7,2.4,3,1.8l5.5-2.7c1-0.5,2.3-0.1,2.8,1l7.5,15.3c0.5,1,1.8,1.5,2.8,1
						l6.4-3.2c1-0.5,1.5-1.8,1-2.8l-7.5-15.3c-0.5-1-0.1-2.3,1-2.8l5.5-2.7c1.3-0.7,1.6-2.5,0.5-3.5l-27.1-23.7
						C138.2,110.2,136,111.3,136.1,113.2z"/>
				</g>
			</g>
		</g>
	</g>
	<g id="_x37_-0">
		<g class="st1">
			<path class="st8" d="M120.3,114.9l54.9-62.7l47.4,44.4c-8.6-52.7-54.3-92.9-109.4-92.9C51.8,3.7,2.2,53.3,2.2,114.6
				c0,55.3,40.5,101.1,93.4,109.5L44.3,167L120.3,114.9z"/>
			<path class="st10" d="M224,114.6c0-6.1-0.5-12.1-1.5-18l-47.3-44.4l-54.9,62.7l-76,52.1l51.3,57.1c5.7,0.9,11.6,1.4,17.5,1.4
				C174.3,225.5,224,175.9,224,114.6z"/>
			<g>
				<g>
					<path class="st26" d="M155.5,169.5H49.4c-3.1,0-5.7-2.6-5.7-5.7V90.5c0-3.1,2.6-5.7,5.7-5.7h106.1c3.1,0,5.7,2.6,5.7,5.7v73.2
						C161.2,166.9,158.6,169.5,155.5,169.5z"/>
					<path class="st26" d="M90.2,89.6H55.5c-2.7,0-4.9-2.2-4.9-4.9v-5.4c0-2.7,2.2-4.9,4.9-4.9h34.7c2.7,0,4.9,2.2,4.9,4.9v5.4
						C95.1,87.3,92.9,89.6,90.2,89.6z"/>
					<path class="st27" d="M151.4,169.5H56.9c-2.8,0-5.1-2.3-5.1-5.1v-65c0-2.8,2.3-5.1,5.1-5.1h94.5c2.8,0,5.1,2.3,5.1,5.1v65
						C156.5,167.2,154.2,169.5,151.4,169.5z"/>
				</g>
				<g>
					<path class="st19" d="M143.2,39.8c-21.6,0-39.2,12.1-39.2,27c0,10.6,8.9,19.8,21.8,24.2c-1,2.8-2.6,5.9-5.1,7.7
						c0,0,10.1,0.9,15.5-5.3c2.2,0.3,4.6,0.4,6.9,0.4c21.6,0,39.2-12.1,39.2-27S164.9,39.8,143.2,39.8z"/>
					<g>
						<g>
							<circle class="st20" cx="127" cy="66.2" r="3.8"/>
							<circle class="st20" cx="143.2" cy="66.2" r="3.8"/>
							<circle class="st20" cx="159.5" cy="66.2" r="3.8"/>
						</g>
					</g>
				</g>
				<path class="st7" d="M156,169.5H50.2c-3.2,0-5.3-2.2-4.5-4.9l15.7-57.2c0.8-2.7,4-4.9,7.2-4.9h105.7c3.2,0,5.3,2.2,4.5,4.9
					l-15.7,57.2C162.5,167.3,159.2,169.5,156,169.5z"/>
			</g>
		</g>
	</g>
	<g id="_x36_-4">
		<g class="st1">
			<path class="st28" d="M78.6,157.9l63.6-9.8l17.9-54.9l56.7,57.6c4-11.4,6.1-23.5,6.1-36.2c0-60.7-49.2-109.8-109.8-109.8
				S3.3,54,3.3,114.6c0,57.8,44.6,105.2,101.3,109.5l-55.4-59.6L78.6,157.9z"/>
			<path class="st14" d="M216.8,150.8l-56.7-57.6l-17.9,54.9L78.6,158l-29.4,6.5l55.4,59.6c2.8,0.2,5.6,0.3,8.5,0.3
				C161,224.4,201.8,193.7,216.8,150.8z"/>
			<g>
				<g>
					<g>
						<g>
							<g>
								<circle class="st7" cx="149.8" cy="106.9" r="16.7"/>
							</g>
							<path class="st7" d="M176.8,164.4c0-0.5,0-1,0-1.4c0-20.2-12.4-36.6-27.6-36.6s-27.6,16.4-27.6,36.6c0,0.5,0,1,0,1.4H176.8z"
								/>
						</g>
					</g>
					<g>
						<g>
							<g>
								<circle class="st7" cx="77.8" cy="106.9" r="16.7"/>
							</g>
							<path class="st7" d="M104.8,164.4c0-0.5,0-1,0-1.4c0-20.2-12.4-36.6-27.6-36.6S49.6,142.8,49.6,163c0,0.5,0,1,0,1.4H104.8z"
								/>
						</g>
					</g>
				</g>
				<g>
					<circle class="st29" cx="113.8" cy="124.7" r="16.7"/>
					<path class="st29" d="M140.8,182.3c0-0.5,0-1,0-1.4c0-20.2-12.4-36.6-27.6-36.6s-27.6,16.4-27.6,36.6c0,0.5,0,1,0,1.4H140.8z"
						/>
				</g>
				<g>
					<path class="st29" d="M140.1,47c-18.3,0-33.2,8.7-33.2,19.5c0,7.7,7.5,14.3,18.5,17.5c-0.8,2-2.2,4.2-4.3,5.5
						c0,0,8.5,0.7,13.1-3.8c1.9,0.2,3.9,0.3,5.9,0.3c18.3,0,33.2-8.7,33.2-19.5S158.4,47,140.1,47z"/>
					<g>
						<ellipse class="st25" cx="126.3" cy="66.1" rx="3.2" ry="2.7"/>
						<ellipse class="st25" cx="140.1" cy="66.1" rx="3.2" ry="2.7"/>
						<ellipse class="st25" cx="153.8" cy="66.1" rx="3.2" ry="2.7"/>
					</g>
				</g>
				<g>
					<path class="st7" d="M75.9,40.4c14.7,0,26.5,8.2,26.5,18.3c0,7.2-6,13.4-14.8,16.4c0.7,1.9,1.7,4,3.4,5.2c0,0-6.8,0.6-10.5-3.6
						C79,76.9,77.5,77,75.9,77c-14.7,0-26.5-8.2-26.5-18.3S61.2,40.4,75.9,40.4z"/>
					<g>
						<circle class="st25" cx="86.9" cy="58.3" r="2.6"/>
						<circle class="st25" cx="75.9" cy="58.3" r="2.6"/>
						<circle class="st25" cx="64.9" cy="58.3" r="2.6"/>
					</g>
				</g>
			</g>
		</g>
	</g>
	<g id="_x36_-2">
		<g class="st1">
			<g>
				<polygon class="st30" points="49,164.6 56.1,163 56.1,163 				"/>
				<path class="st28" d="M49,164.6L49,164.6l7-1.6l-6.6-13l52.7-1.1l40.7-26.6l20.7-39.6l55,63.1c2.9-9.9,4.6-20.4,4.6-31.2
					c0-60.8-49.3-110.1-110.1-110.1C52.3,4.5,3,53.8,3,114.6c0,51.3,35.1,94.3,82.5,106.5L56.1,163L49,164.6z"/>
				<path class="st31" d="M218.6,145.8c0,0,0,0.1,0,0.1L218.6,145.8L218.6,145.8z"/>
				<path class="st31" d="M85.5,221.2L85.5,221.2C85.6,221.1,85.5,221.1,85.5,221.2L85.5,221.2z"/>
				<polygon class="st31" points="78.5,158.1 56.1,163 56.1,163 				"/>
				<path class="st14" d="M163.5,82.8l-20.7,39.6l-40.7,26.6L49.5,150l6.6,13l29.4,58.1c0,0,0.1,0,0.1,0c6.1,1.6,12.5,2.7,19,3.2
					c2.8,0.2,5.7,0.3,8.5,0.3c48.1,0,88.9-30.8,103.9-73.8c0.6-1.6,1-3.3,1.5-5c0,0,0-0.1,0-0.1L163.5,82.8z"/>
			</g>
			<g>
				<g>
					<g>
						<g>
							<g>
								<circle class="st7" cx="149.9" cy="92.4" r="16.7"/>
							</g>
							<path class="st7" d="M176.9,150.1c0-0.5,0-1,0-1.4c0-20.2-12.4-36.6-27.7-36.6s-27.7,16.4-27.7,36.6c0,0.5,0,1,0,1.4H176.9z"
								/>
						</g>
					</g>
					<g>
						<g>
							<g>
								<circle class="st7" cx="77.7" cy="92.4" r="16.7"/>
							</g>
							<path class="st7" d="M104.8,150.1c0-0.5,0-1,0-1.4c0-20.2-12.4-36.6-27.7-36.6s-27.7,16.4-27.7,36.6c0,0.5,0,1,0,1.4H104.8z"
								/>
						</g>
					</g>
				</g>
				<g>
					<circle class="st29" cx="113.8" cy="110.2" r="16.7"/>
					<path class="st29" d="M140.9,167.9c0-0.5,0-1,0-1.4c0-20.2-12.4-36.6-27.7-36.6s-27.7,16.4-27.7,36.6c0,0.5,0,1,0,1.4H140.9z"
						/>
				</g>
			</g>
		</g>
	</g>
	<g id="_x36_-1">
		<g class="st1">
			<g>
				<path class="st28" d="M169.8,49.3l52,43.1c-10.3-50.6-55-88.7-108.7-88.7C51.8,3.7,2.2,53.3,2.2,114.6
					c0,55.3,40.5,101.1,93.4,109.5c1.2,0.2,2.5,0.4,3.7,0.5l-30.6-44.7L169.8,49.3z"/>
				<polygon class="st9" points="99.3,224.6 99.3,224.6 99.3,224.6 				"/>
				<path class="st9" d="M221.8,92.3L221.8,92.3C221.7,92.3,221.7,92.3,221.8,92.3L221.8,92.3z"/>
				<path class="st14" d="M222.5,96.6c-0.2-1.4-0.5-2.8-0.8-4.2v0l-52-43.1L68.7,179.9l30.6,44.7h0c4.5,0.6,9.1,0.9,13.8,0.9
					c61.3,0,110.9-49.7,110.9-110.9C224,108.5,223.5,102.4,222.5,96.6z"/>
			</g>
			<g>
				<rect x="68.7" y="49.3" class="st21" width="101.1" height="130.7"/>
				<g>
					<path class="st25" d="M80.4,154.2L80.4,154.2c0,2.8-2.3,5.1-5.1,5.1H61.5c-2.8,0-5.1-2.3-5.1-5.1l0,0c0-2.8,2.3-5.1,5.1-5.1
						h13.8C78.1,149.1,80.4,151.4,80.4,154.2z"/>
					<path class="st25" d="M80.4,114.6L80.4,114.6c0,2.8-2.3,5.1-5.1,5.1H61.5c-2.8,0-5.1-2.3-5.1-5.1l0,0c0-2.8,2.3-5.1,5.1-5.1
						h13.8C78.1,109.5,80.4,111.8,80.4,114.6z"/>
					<path class="st25" d="M80.4,75L80.4,75c0,2.8-2.3,5.1-5.1,5.1H61.5c-2.8,0-5.1-2.3-5.1-5.1l0,0c0-2.8,2.3-5.1,5.1-5.1h13.8
						C78.1,69.8,80.4,72.2,80.4,75z"/>
				</g>
				<rect x="87.6" y="77.7" class="st32" width="70" height="36.9"/>
				<rect x="68.6" y="49.3" class="st25" width="101.1" height="8.4"/>
				<rect x="68.6" y="171.6" class="st25" width="101.1" height="8.4"/>
				<g>
					<line class="st23" x1="122" y1="124.5" x2="157.6" y2="124.5"/>
					<line class="st23" x1="122" y1="133.6" x2="157.6" y2="133.6"/>
				</g>
			</g>
		</g>
	</g>
	<g id="_x36_-0">
		<g class="st1">
			<g>
				<g>
					<g>
						<path class="st28" d="M109.7,50.7l113.8,74.8c0.4-3.6,0.5-7.2,0.5-10.9c0-6.1-0.5-12.1-1.5-18c-8.6-52.7-54.3-92.9-109.4-92.9
							C51.8,3.7,2.2,53.3,2.2,114.6c0,44.2,25.9,82.4,63.3,100.2l-19.1-59.4L109.7,50.7z"/>
					</g>
					<path class="st28" d="M65.5,214.8L65.5,214.8C65.5,214.8,65.5,214.8,65.5,214.8L65.5,214.8z"/>
					<polygon class="st28" points="223.4,125.5 223.4,125.5 223.5,125.5 					"/>
					<g>
						<path class="st14" d="M109.7,50.7L46.3,155.4l19.1,59.4c0,0,0,0,0,0c9.4,4.5,19.5,7.7,30.1,9.4c5.7,0.9,11.6,1.4,17.5,1.4
							c57.6,0,104.9-43.9,110.4-100v0L109.7,50.7z"/>
					</g>
				</g>
			</g>
			<g>
				<g>
					<path class="st5" d="M106.3,105.3l-4.2,5.5l-7.4,9.6l-7.4-9.6l-4.2-5.5c-21,5.6-36.6,25.8-36.7,50H143
						C142.9,131.2,127.3,110.9,106.3,105.3z"/>
					<g>
						<circle class="st29" cx="94.7" cy="73.2" r="27"/>
						<path class="st29" d="M94.6,120.4l7.4-9.6l4.2-5.5c-3.7-1-7.6-1.5-11.6-1.5c-4,0-7.9,0.5-11.7,1.5l4.2,5.5L94.6,120.4z"/>
					</g>
				</g>
				<path class="st17" d="M190.4,153.2l-8-4.6c0,0-0.1,0-0.1,0c0-0.6,0.1-1.1,0.1-1.7c0-0.9-0.1-1.8-0.1-2.6l7.7-4.5
					c2.1-1.2,2.8-3.9,1.6-6l-6.1-10.6c-1.2-2.1-3.9-2.8-6-1.6l-8,4.6c0,0,0,0-0.1,0c-1.2-0.8-2.5-1.5-3.8-2.1v-8.9
					c0-2.4-2-4.4-4.4-4.4h-12.3c-2.4,0-4.4,2-4.4,4.4v9.3c0,0,0,0.1,0,0.1c-1.3,0.6-2.6,1.4-3.7,2.2l-7.8-4.5
					c-2.1-1.2-4.8-0.5-6,1.6l-6.1,10.6c-1.2,2.1-0.5,4.8,1.6,6l8,4.6c0,0,0.1,0,0.1,0c0,0.6-0.1,1.1-0.1,1.7c0,0.9,0.1,1.8,0.1,2.6
					l-7.7,4.5c-2.1,1.2-2.8,3.9-1.6,6l6.1,10.6c1.2,2.1,3.9,2.8,6,1.6l8-4.6c0,0,0,0,0.1,0c1.2,0.8,2.5,1.5,3.8,2.1v8.9
					c0,2.4,2,4.4,4.4,4.4h12.3c2.4,0,4.4-2,4.4-4.4v-9.3c0,0,0-0.1,0-0.1c1.3-0.6,2.6-1.4,3.7-2.2l7.8,4.5c2.1,1.2,4.8,0.5,6-1.6
					l6.1-10.6C193.2,157.2,192.5,154.4,190.4,153.2z M157.4,160.6c-7.6,0-13.7-6.1-13.7-13.7c0-7.6,6.1-13.7,13.7-13.7
					s13.7,6.1,13.7,13.7C171.1,154.4,165,160.6,157.4,160.6z"/>
			</g>
		</g>
	</g>
	<g id="_x35_-5">
		<g class="st1">
			<g>
				<path class="st2" d="M139.8,143.4l-19.4,9.8l-40.8-47.1l48-79.8l93.4,76.1c-1.4-12.5-5-24.4-10.3-35.2
					C193.1,30.8,156,5.8,113,5.8C60.5,5.8,16.8,43.1,6.8,92.6c-1.5,7.2-2.3,14.6-2.3,22.2c0,39.9,21.5,74.7,53.5,93.6
					c0.8,0.5,1.7,1,2.5,1.4c0.3,0.2,0.6,0.3,0.8,0.5c2.8,1.5,5.6,2.9,8.5,4.1l9.6-18.1L139.8,143.4z"/>
				<path class="st33" d="M210,163.7L210,163.7L210,163.7C210,163.7,210,163.7,210,163.7z"/>
				<path class="st33" d="M98.3,222.4L98.3,222.4C98.3,222.4,98.3,222.4,98.3,222.4L98.3,222.4z"/>
				<path class="st33" d="M220.9,102.4L220.9,102.4L220.9,102.4z"/>
				<path class="st33" d="M122,223.1L122,223.1c-0.1,0-0.1,0-0.1,0L122,223.1z"/>
				<path class="st33" d="M69.9,214.5l0.2,0C70.1,214.5,70,214.5,69.9,214.5L69.9,214.5z"/>
				<path class="st4" d="M220.9,102.4L220.9,102.4l-93.4-76.1l-48,79.8l40.8,47.1l19.4-9.8l-60.2,52.9l-9.6,18.1
					c0.1,0,0.2,0.1,0.2,0.1c1.6,0.7,3.3,1.4,4.9,2c0.5,0.2,1,0.4,1.4,0.5c0.3,0.1,0.6,0.2,1,0.3c6.7,2.3,13.6,4,20.8,5c0,0,0,0,0,0
					c4.8,0.7,9.7,1,14.7,1c3,0,5.9-0.1,8.8-0.4c0,0,0.1,0,0.1,0c38.5-3.1,71.4-26.4,88-59.3c0,0,0,0,0,0
					c7.4-14.7,11.6-31.3,11.6-48.9C221.6,110.6,221.4,106.5,220.9,102.4z"/>
			</g>
			<g>
				<g>
					<path class="st34" d="M104.6,152.8l6.5,2c1.1,0.3,2.2,0.3,3.3,0l39.1-11c3.1-0.9,6.3,0.9,7.2,3.9l0,0c0.9,2.8-0.6,5.8-3.3,6.9
						l-33.9,13.7l-49.1,21.1c-2.1,0.9-4.5,0.5-6.2-1l-2.3-2.1L104.6,152.8z"/>
					<path class="st26" d="M106.9,147.3l7.2,1.6c1.2,0.3,2.4,0.2,3.6-0.2l41-15c3.2-1.2,6.8,0.4,8.1,3.6l0,0c1.1,2.9-0.1,6.2-3,7.7
						l-35.2,17.5l-50.9,26.7c-2.2,1.1-4.8,0.9-6.8-0.6l-2.6-2L106.9,147.3z"/>
					<path class="st29" d="M38.8,171.6l7.8-29.6c0.2-0.9,0.6-1.7,1.2-2.4l21.5-27c2.1-2.6,5.8-3.2,8.6-1.4l1.6,1
						c2.8,1.8,3.8,5.4,2.4,8.4l-7.2,14.9c-2.1,4.2,0.9,9.2,5.7,9.4l30.8,1c1.3,0,2.5-0.3,3.6-0.9l39.1-23.8c3.1-1.9,7.1-0.9,8.9,2.2
						l0,0c1.8,2.8,1.1,6.5-1.6,8.6L128.5,157l-47,37.9c-2,1.6-4.8,1.9-7.1,0.7L42.1,179C39.4,177.6,38,174.5,38.8,171.6z"/>
				</g>
				<path class="st35" d="M41.1,181.8l29.2,15.5c3.8,2,5.2,6.7,3.2,10.5l-3.6,6.7c-15.1-7-28.5-17.2-39.2-29.7
					C32.8,181.1,37.4,179.8,41.1,181.8z"/>
			</g>
			<g>
				<g>
					<g>
						<g>
							<g>
								<circle class="st29" cx="113.8" cy="41.2" r="20.3"/>
								<path class="st29" d="M146.6,106.1c0-0.5,0-1,0-1.6c0-21.9-15-39.6-33.6-39.6s-33.6,17.7-33.6,39.6c0,0.5,0,1,0,1.6H146.6z"
									/>
							</g>
						</g>
					</g>
				</g>
			</g>
		</g>
	</g>
	<g id="_x35_-3">
		<g class="st1">
			<g>
				<path class="st2" d="M223.9,110c-1.4-32.4-16.9-63.9-45.1-84.6c-6.3-4.6-12.9-8.4-19.7-11.5C112.4-7.8,55.3,5.7,23.6,48.8
					c-26,35.4-27.8,81-8.4,117.3c1.6,3.1,3.4,6.1,5.3,9L184.9,125L223.9,110z"/>
				<polygon class="st36" points="20.4,175.2 20.5,175.2 20.5,175.2 				"/>
				<path class="st36" d="M215.1,158.1L215.1,158.1C215.1,158.1,215.1,158.1,215.1,158.1L215.1,158.1z"/>
				<path class="st37" d="M223.9,110L223.9,110c0,0.1,0,0.1,0,0.2L223.9,110z"/>
				<path class="st4" d="M223.9,110.1c0-0.1,0-0.1,0-0.2l-39,15L20.5,175.2c0,0,0,0,0,0c7.1,10.9,16.2,20.7,27.3,28.9
					c49.3,36.2,118.6,25.5,154.8-23.8c5.1-7,9.3-14.4,12.6-22.1c0,0,0,0,0,0c1.5-3.5,2.8-7.1,4-10.8c0.1-0.3,0.2-0.7,0.3-1
					c0.1-0.5,0.3-1,0.4-1.5c1.4-4.9,2.5-9.9,3.1-15c0.1-0.3,0.1-0.7,0.1-1c0.1-1,0.2-1.9,0.3-2.9C224,120.7,224.1,115.4,223.9,110.1
					z"/>
			</g>
			<g>
				<g>
					<path class="st34" d="M149.6,130.7l-2.3,6.6c-0.4,1.1-1.1,2-2,2.7l-32.6,25.5c-2.6,2-3.1,5.7-1.2,8.3l0,0
						c1.8,2.4,5.1,3,7.7,1.4l31.7-19.6l47-27.6c2-1.2,3.1-3.4,2.9-5.8l-0.3-3.1L149.6,130.7z"/>
					<path class="st26" d="M143.7,129.2l-3,6.9c-0.5,1.1-1.3,2.1-2.3,2.8l-37.1,24.7c-2.9,1.9-3.8,5.9-1.9,8.8l0,0
						c1.7,2.7,5.2,3.7,8.1,2.2l35.7-18.4l52.7-25.8c2.2-1.1,3.7-3.4,3.6-5.9l-0.1-3.4L143.7,129.2z"/>
					<path class="st29" d="M204.8,87.9l-29.1-11.5c-0.9-0.3-1.8-0.5-2.7-0.5l-35.2,1.4c-3.4,0.1-6.1,2.8-6.4,6.2l-0.1,1.9
						c-0.2,3.4,2.1,6.4,5.4,7l16.6,3c4.7,0.9,7,6.3,4.3,10.3l-17.8,26c-0.7,1.1-1.8,1.9-2.9,2.4L93.7,152c-3.4,1.4-5,5.3-3.6,8.6
						l0,0c1.3,3.1,4.7,4.8,8,3.9l40.5-11.7l59.6-15.8c2.5-0.7,4.4-2.8,4.9-5.4l5.8-36.5C209.4,92,207.7,89,204.8,87.9z"/>
				</g>
				<path class="st35" d="M211.7,95.9l-4.9,33.3c-0.6,4.3,2.4,8.4,6.7,9l7.7,1.1c3.3-16.7,3-33.8-0.7-50.2
					C216.3,88.7,212.4,91.7,211.7,95.9z"/>
			</g>
			<g>
				<g>
					<path class="st34" d="M78.5,138.1l1.8-5.6c0.3-0.9,0.9-1.8,1.6-2.4l27.3-22.3c2.1-1.8,2.5-4.9,0.8-7.1l0,0
						c-1.6-2-4.4-2.5-6.5-1.1l-26.6,17.3l-39.5,24.4c-1.7,1-2.6,3-2.4,5l0.3,2.6L78.5,138.1z"/>
					<path class="st26" d="M83.7,139.2l2.4-5.9c0.4-1,1.1-1.8,1.9-2.4l31.1-21.7c2.4-1.7,3.1-5.1,1.5-7.5l0,0
						c-1.5-2.3-4.5-3-6.9-1.7l-30,16.4l-44.4,22.9c-1.9,1-3.1,3-3,5.1l0.1,2.9L83.7,139.2z"/>
					<path class="st29" d="M32.4,175.6l25,9.2c0.7,0.3,1.5,0.4,2.3,0.3l29.9-1.9c2.9-0.2,5.2-2.5,5.3-5.4l0.1-1.6
						c0.1-2.9-1.9-5.4-4.8-5.9l-14.2-2.2c-4.1-0.6-6.1-5.2-3.9-8.7L86.9,137c0.6-0.9,1.5-1.6,2.5-2.1l36.4-16
						c2.9-1.3,4.1-4.6,2.9-7.4l0,0c-1.2-2.7-4.1-4-6.9-3.2L87.5,119l-50.4,14.6c-2.2,0.6-3.7,2.4-4,4.7l-4.3,31.2
						C28.4,172.1,29.9,174.7,32.4,175.6z"/>
				</g>
				<path class="st35" d="M26.3,168.9l3.5-28.5c0.5-3.7-2.2-7.1-5.9-7.5l-20.3-0.8c-2.5,14.3,13,36.9,16.8,43.2
					C24.1,175.5,25.9,172.5,26.3,168.9z"/>
			</g>
		</g>
	</g>
	<g id="_x35_-2">
		<g class="st1">
			<g>
				<g>
					<g>
						<path class="st2" d="M161.1,49.7l62.5,64.7C223.5,53.4,174.1,4.1,113.1,4.1C52,4.1,2.5,53.6,2.5,114.6
							c0,47.4,29.8,87.8,71.7,103.5l-24.6-38.3L161.1,49.7z"/>
					</g>
					<g>
						<path class="st4" d="M223.6,114.6c0-0.1,0-0.1,0-0.2l-62.5-64.7L49.6,179.8l24.6,38.3c12.1,4.5,25.2,7,38.8,7
							C174.1,225.1,223.6,175.6,223.6,114.6z"/>
					</g>
				</g>
			</g>
			<g>
				<g>
					<g>
						<g>
							<path class="st18" d="M113.1,103.6h60.8c2.7,0,3.8-4.6,1.6-6.6l-27.7-26l-28.2-26.5c-3.7-3.4-9.4-3.4-13,0L78.4,71L50.8,97
								c-2.2,2.1-1.1,6.6,1.6,6.6H113.1z"/>
						</g>
						<g>
							<rect x="50.7" y="99.8" class="st18" width="125" height="65.1"/>
						</g>
					</g>
				</g>
				<path class="st19" d="M154.6,162.9H71.6c-4.7,0-8.6-3.9-8.6-8.6V55.5c0-4.7,3.9-8.6,8.6-8.6h83.1c4.7,0,8.6,3.9,8.6,8.6v98.8
					C163.2,159.1,159.3,162.9,154.6,162.9z"/>
				<path class="st7" d="M176.3,98.5c0.6,1.5,0.4,3.5-0.9,4.6l-27.6,26l-28.2,26.5c-3.7,3.4-9.4,3.4-13,0l-28.2-26.5l-27.7-26
					c-1.6-1.5-1.4-4.3-0.2-5.7c-1.2,0.8-1.9,2.2-1.9,3.7v76.3c0,2.6,2.1,4.7,4.7,4.7h119.5c2.6,0,4.7-2.1,4.7-4.7V102
					C177.5,100.7,177.1,99.5,176.3,98.5z"/>
				<g>
					<g>
						<circle class="st29" cx="113.1" cy="91.3" r="37.8"/>
						<g>
							<g>
								<path class="st20" d="M113.3,68.5c0.7-0.1,1.4,0.2,2.2,0.8c0.7,0.7,1.1,1.5,0.9,2.3c0,0.8,0.4,1.3,1.3,1.5
									c2,0.3,4,1.1,6.1,2.3c2.6,1.9,3.9,4.3,4.1,7.1c-0.2,1.7-1.3,2.6-3.2,2.8c-1.8,0-2.9-0.8-3.4-2.6c-0.7-1.6-1.9-2.8-3.6-3.5
									c-0.8-0.2-1.3,0.1-1.3,0.9v6.5c0,0.8,0.4,1.3,1.3,1.5c2.6,0.5,4.6,1.2,6.1,1.9c0.9,0.4,1.7,1,2.4,1.8c2.1,2.3,2.9,4.9,2.6,8
									c-0.4,3.2-2.2,5.7-5.4,7.6c-1.7,0.9-3.6,1.6-5.8,1.9c-0.8,0.1-1.3,0.6-1.3,1.5c0.2,1.4-0.4,2.4-1.8,3.2
									c-1.3,0.5-2.4,0.2-3.6-1.1c-0.4-0.7-0.6-1.3-0.5-2.1c0-0.8-0.4-1.3-1.3-1.5c-2.4-0.5-4.5-1.2-6.1-2.3
									c-2-1.4-3.4-2.8-4.2-4.4c-0.6-1.1-1.2-2.5-1.6-4.2c-0.2-0.9-0.1-1.7,0.2-2.4c0.2-0.5,0.6-1,1.3-1.4c1.3-0.6,2.4-0.5,3.5,0.3
									c0.6,0.5,1,1.2,1.2,2.1c0.9,3.2,2.8,5.2,5.7,6.1c0.8,0.2,1.3-0.2,1.3-1V94c0-0.8-0.4-1.3-1.3-1.5c-1.2-0.2-2.5-0.7-4-1.3
									c-2.7-1.1-4.5-2.8-5.4-4.9c-0.6-1.6-0.8-3.2-0.6-4.8c0.3-2.2,1.6-4.3,3.9-6.2c1.7-1.3,3.7-2,6.1-2.3
									c0.9-0.1,1.3-0.5,1.3-1.4C110.5,69.9,111.5,68.8,113.3,68.5z M108.9,79l-0.6,0.2c-1.6,0.5-2.7,1.5-3.2,3.1
									c-0.1,1.4,0.6,2.6,2.1,3.7c0.8,0.4,1.4,0.7,1.9,0.8c0.9,0.3,1.3,0,1.3-0.8v-5.8C110.5,79.3,110,78.9,108.9,79z M120.9,95.4
									c-0.7-0.6-1.7-1.2-3.2-1.6c-0.9-0.1-1.4,0.2-1.4,0.9v7.5c0,0.8,0.4,1.2,1.3,1.1c1.6-0.4,3-1,4-1.8c1.3-1.2,1.6-2.5,0.9-4
									C122.2,96.6,121.7,95.9,120.9,95.4z"/>
							</g>
						</g>
						<circle class="st38" cx="113.1" cy="91.3" r="31.5"/>
					</g>
				</g>
				<path class="st21" d="M113.1,181h60.8c2.7,0,3.8-4.6,1.6-6.6l-27.6-26l-28.2-26.5c-3.7-3.4-9.4-3.4-13,0l-28.2,26.5l-27.7,26
					c-2.2,2.1-1.1,6.6,1.6,6.6H113.1z"/>
			</g>
		</g>
	</g>
	<g id="_x35_-0">
		<g class="st1">
			<g>
				<circle class="st2" cx="113.1" cy="114.9" r="110.3"/>
				<path class="st2" d="M73.2,140.5l8.3-10l35.6,21.5l-16.1-37.1l-4.7-0.5L88,101.3l9.2,10.2l46.6-56.2l77.1,81.1
					c1.5-7.2,2.3-14.7,2.3-22.3c0-60.8-49.3-110-110-110c-60.8,0-110,49.3-110,110s49.2,110,110,110c1.8,0,3.6-0.1,5.4-0.1
					l-45.9-65.7L73.2,140.5z"/>
				<path class="st4" d="M220.9,136.4l-77.7-90l-46,65.1L76,94.5l41.2,57.5l-35.6-21.5l-8.3,10L65.5,153l60.1,70.5
					C169.3,221.5,211,184.7,220.9,136.4z"/>
			</g>
			<g>
				<g>
					<circle class="st29" cx="113.2" cy="70.9" r="43.9"/>
					<g>
						<path class="st20" d="M113.5,44.4c0.8-0.1,1.6,0.2,2.5,0.9c0.8,0.8,1.2,1.7,1.1,2.6c0,1,0.5,1.6,1.5,1.8
							c2.3,0.4,4.7,1.3,7.1,2.7c3,2.2,4.6,5,4.8,8.3c-0.2,2-1.5,3-3.7,3.2c-2,0-3.3-1-3.9-3c-0.8-1.9-2.2-3.3-4.2-4.1
							c-1-0.2-1.5,0.1-1.5,1.1v7.6c0,1,0.5,1.6,1.5,1.8c3,0.6,5.3,1.3,7.1,2.2c1,0.5,1.9,1.2,2.8,2.1c2.4,2.6,3.4,5.7,3,9.2
							c-0.5,3.7-2.6,6.6-6.2,8.8c-1.9,1.1-4.2,1.8-6.7,2.2c-1,0.2-1.5,0.7-1.5,1.7c0.2,1.6-0.5,2.8-2.1,3.7
							c-1.5,0.6-2.8,0.2-4.1-1.3c-0.4-0.8-0.7-1.6-0.6-2.4c0-1-0.5-1.5-1.5-1.7c-2.8-0.6-5.2-1.4-7.1-2.6c-2.3-1.6-3.9-3.3-4.9-5.1
							c-0.7-1.3-1.3-2.9-1.8-4.9c-0.2-1-0.1-1.9,0.2-2.8c0.2-0.6,0.7-1.1,1.5-1.6c1.5-0.7,2.8-0.6,4,0.3c0.7,0.6,1.2,1.4,1.4,2.4
							c1.1,3.7,3.3,6.1,6.6,7.1c1,0.2,1.5-0.2,1.5-1.2V74c0-1-0.5-1.6-1.5-1.8c-1.3-0.3-2.9-0.8-4.6-1.5c-3.1-1.3-5.2-3.2-6.3-5.7
							c-0.7-1.8-1-3.7-0.7-5.5c0.3-2.6,1.8-5,4.5-7.2c2-1.5,4.3-2.3,7.1-2.7c1-0.1,1.5-0.6,1.5-1.6C110.2,46,111.3,44.8,113.5,44.4z
							 M108.4,56.7l-0.7,0.2c-1.9,0.6-3.1,1.8-3.7,3.5c-0.1,1.6,0.7,3,2.4,4.3c0.9,0.5,1.6,0.8,2.2,1c1,0.3,1.5,0,1.5-0.9v-6.8
							C110.2,57,109.6,56.5,108.4,56.7z M122.3,75.6c-0.8-0.7-2-1.3-3.7-1.8c-1.1-0.2-1.6,0.2-1.6,1.1v8.6c0,1,0.5,1.4,1.5,1.2
							c1.9-0.4,3.4-1.2,4.6-2.1c1.5-1.3,1.8-2.9,1.1-4.7C123.8,77,123.1,76.2,122.3,75.6z"/>
					</g>
					<circle class="st38" cx="113.2" cy="70.9" r="36.5"/>
				</g>
				<g>
					<path class="st34" d="M121.7,153.4l-6.6,2c-1.1,0.3-2.3,0.3-3.4,0L72,144.3c-3.1-0.9-6.4,0.9-7.3,3.9l0,0
						c-0.9,2.9,0.6,5.9,3.3,7l34.4,13.9l49.8,21.5c2.1,0.9,4.6,0.5,6.4-1l2.3-2.1L121.7,153.4z"/>
					<path class="st26" d="M119.4,147.8l-7.3,1.6c-1.2,0.3-2.5,0.2-3.6-0.2l-41.7-15.3c-3.3-1.2-6.9,0.4-8.2,3.6l0,0
						c-1.2,3,0.1,6.3,3,7.8l35.8,17.8l51.7,27.2c2.2,1.2,4.9,0.9,6.9-0.6l2.7-2L119.4,147.8z"/>
					<path class="st29" d="M188.5,172.5l-7.9-30.1c-0.2-0.9-0.6-1.7-1.2-2.4l-21.9-27.4c-2.1-2.6-5.9-3.3-8.7-1.5l-1.6,1
						c-2.9,1.8-3.9,5.5-2.4,8.5l7.4,15.1c2.1,4.3-0.9,9.4-5.7,9.5l-31.3,1c-1.3,0-2.6-0.3-3.7-1l-39.8-24.1
						c-3.1-1.9-7.2-0.9-9.1,2.2l0,0c-1.8,2.9-1.1,6.6,1.6,8.7l33.2,25.6l47.8,38.5c2,1.6,4.9,1.9,7.2,0.7l32.8-16.8
						C187.9,178.6,189.3,175.5,188.5,172.5z"/>
				</g>
				<path class="st35" d="M186.2,182.8l-29.6,15.7c-3.9,2-5.3,6.8-3.3,10.7l3.6,6.8c15.4-7.1,28.9-17.5,39.8-30.1
					C194.6,182.2,190,180.8,186.2,182.8z"/>
			</g>
		</g>
	</g>
	<g id="_x34_-1">
		<g class="st1">
			<g>
				<path class="st8" d="M160.3,49.5l63.2,54.7c-0.2-2.6-0.6-5.2-1-7.7c-8.6-52.7-54.3-92.9-109.4-92.9C51.8,3.7,2.2,53.3,2.2,114.6
					c0,53,37.2,97.3,86.9,108.3l-23.2-43.2L160.3,49.5z"/>
				<path class="st3" d="M89.1,222.9L89.1,222.9C89.1,222.9,89.1,222.9,89.1,222.9L89.1,222.9z"/>
				<path class="st3" d="M223.5,104.3L223.5,104.3C223.5,104.3,223.5,104.3,223.5,104.3L223.5,104.3z"/>
				<path class="st10" d="M223.5,104.3C223.5,104.3,223.5,104.3,223.5,104.3l-63.2-54.7L65.9,179.7l23.2,43.2c0,0,0,0,0,0
					c2.1,0.5,4.3,0.9,6.5,1.2c5.7,0.9,11.6,1.4,17.5,1.4c61.3,0,110.9-49.7,110.9-110.9C224,111.1,223.8,107.7,223.5,104.3z"/>
			</g>
			<g>
				<g>
					<rect x="65.9" y="49.5" class="st5" width="94.4" height="130.1"/>
					<g>
						<g>
							<g>
								<rect x="75.6" y="62.9" class="st6" width="16.8" height="19.7"/>
								<rect x="104.7" y="62.9" class="st6" width="16.8" height="19.7"/>
								<rect x="133.8" y="62.9" class="st6" width="16.8" height="19.7"/>
							</g>
						</g>
						<g>
							<rect x="75.6" y="89.8" class="st6" width="16.8" height="19.7"/>
							<rect x="104.7" y="89.8" class="st6" width="16.8" height="19.7"/>
							<rect x="133.8" y="89.8" class="st6" width="16.8" height="19.7"/>
						</g>
						<g>
							<g>
								<rect x="75.6" y="116.8" class="st6" width="16.8" height="19.7"/>
								<rect x="104.7" y="116.8" class="st6" width="16.8" height="19.7"/>
								<rect x="133.8" y="116.8" class="st6" width="16.8" height="19.7"/>
							</g>
						</g>
					</g>
					<g>
						<rect x="96.6" y="145.3" class="st6" width="15" height="30.1"/>
						<rect x="114.6" y="145.3" class="st6" width="15" height="30.1"/>
					</g>
				</g>
				<path class="st17" d="M183.6,160.5l-8-4.6c0,0-0.1,0-0.1,0c0-0.6,0.1-1.1,0.1-1.7c0-0.9-0.1-1.8-0.1-2.6l7.7-4.5
					c2.1-1.2,2.8-3.9,1.6-6l-6.1-10.6c-1.2-2.1-3.9-2.8-6-1.6l-8,4.6c0,0,0,0-0.1,0c-1.2-0.8-2.5-1.5-3.8-2.1v-8.9
					c0-2.4-2-4.4-4.4-4.4H144c-2.4,0-4.4,2-4.4,4.4v9.3c0,0,0,0.1,0,0.1c-1.3,0.6-2.6,1.4-3.7,2.2l-7.8-4.5c-2.1-1.2-4.8-0.5-6,1.6
					l-6.1,10.6c-1.2,2.1-0.5,4.8,1.6,6l8,4.6c0,0,0.1,0,0.1,0c0,0.6-0.1,1.1-0.1,1.7c0,0.9,0.1,1.8,0.1,2.6l-7.7,4.5
					c-2.1,1.2-2.8,3.9-1.6,6l6.1,10.6c1.2,2.1,3.9,2.8,6,1.6l8-4.6c0,0,0,0,0.1,0c1.2,0.8,2.5,1.5,3.8,2.1v8.9c0,2.4,2,4.4,4.4,4.4
					h12.3c2.4,0,4.4-2,4.4-4.4v-9.3c0,0,0-0.1,0-0.1c1.3-0.6,2.6-1.4,3.7-2.2l7.8,4.5c2.1,1.2,4.8,0.5,6-1.6l6.1-10.6
					C186.4,164.5,185.7,161.8,183.6,160.5z M150.6,167.9c-7.6,0-13.7-6.1-13.7-13.7c0-7.6,6.1-13.7,13.7-13.7s13.7,6.1,13.7,13.7
					C164.3,161.8,158.2,167.9,150.6,167.9z"/>
			</g>
		</g>
	</g>
	<g id="_x34_-0">
		<g class="st1">
			<path class="st8" d="M57.2,166.5l112.1-3.3V52.8l51,38.9C209.8,42.2,165.8,5,113.1,5C52.5,5,3.5,54.1,3.5,114.6
				c0,55.8,41.7,101.8,95.6,108.7l-45.7-48.6L57.2,166.5z"/>
			<path class="st10" d="M222.7,114.6c0-7.8-0.8-15.5-2.4-22.9l-51-38.9v110.4l-112.1,3.3l-3.8,8.2L99,223.3c4.6,0.6,9.3,0.9,14,0.9
				C173.6,224.2,222.7,175.1,222.7,114.6z"/>
			<g>
				<g>
					<path class="st29" d="M105.9,122.3c-5.2,1.7-9.8,3.8-13.5,6.4v17.1h13.5V122.3z"/>
					<path class="st20" d="M158.7,145.6c0-14.1-16.7-25.5-37.2-25.5c-4.9,0-9.6,0.7-13.9,1.8v23.9h51.2
						C158.7,145.7,158.7,145.6,158.7,145.6z"/>
					<path class="st29" d="M87.7,145.8H65.5c-1.2,0-2.2-1-2.2-2.1v-0.3c0-1.2,1-2.1,2.2-2.1h22.2c1.2,0,2.2,1,2.2,2.1v0.3
						C89.9,144.8,88.9,145.8,87.7,145.8z"/>
					<circle class="st39" cx="79.5" cy="134.2" r="10.4"/>
				</g>
				<rect x="60" y="145.8" class="st39" width="104.4" height="24.9"/>
				<g>
					<path class="st29" d="M105.9,57.6c-5.2,1.7-9.8,3.8-13.5,6.4v17.1h13.5V57.6z"/>
					<path class="st20" d="M158.7,80.9c0-14.1-16.7-25.5-37.2-25.5c-4.9,0-9.6,0.7-13.9,1.8v23.9h51.2
						C158.7,81.1,158.7,81,158.7,80.9z"/>
					<path class="st29" d="M87.7,81.1H65.5c-1.2,0-2.2-1-2.2-2.2v-0.3c0-1.2,1-2.2,2.2-2.2h22.2c1.2,0,2.2,1,2.2,2.2V79
						C89.9,80.2,88.9,81.1,87.7,81.1z"/>
					<circle class="st39" cx="79.5" cy="69.5" r="10.4"/>
				</g>
				<rect x="60" y="81.1" class="st39" width="104.4" height="24.9"/>
				<path class="st39" d="M57.1,177.9h-0.4c-2.5,0-4.6-2.1-4.6-4.6V55.9c0-2.5,2-4.6,4.6-4.6h0.4c2.5,0,4.6,2,4.6,4.6v117.5
					C61.7,175.9,59.6,177.9,57.1,177.9z"/>
				<path class="st39" d="M169.4,177.9H169c-2.5,0-4.6-2.1-4.6-4.6V55.9c0-2.5,2.1-4.6,4.6-4.6h0.4c2.5,0,4.6,2,4.6,4.6v117.5
					C174,175.9,172,177.9,169.4,177.9z"/>
			</g>
		</g>
	</g>
	<g id="_x33_-4新生英文檢定與抵免">
		<g class="st1">
			<g>
				<path class="st28" d="M144.9,57.6l78.7,65.5c0.2-2.8,0.4-5.7,0.4-8.5c0-6.1-0.5-12.1-1.5-18c-8.6-52.7-54.3-92.9-109.4-92.9
					C51.8,3.7,2.2,53.3,2.2,114.6c0,53.9,38.4,98.7,89.3,108.8l-25.8-70L144.9,57.6z"/>
				<path class="st40" d="M223.6,123.1c0,0.2,0,0.4-0.1,0.6l0.4-0.3L223.6,123.1z"/>
				<path class="st40" d="M91.5,223.4L91.5,223.4C91.5,223.4,91.5,223.4,91.5,223.4L91.5,223.4z"/>
				<path class="st14" d="M144.9,57.6l-79.3,95.7l25.8,70c0,0,0,0,0,0c1.4,0.3,2.7,0.5,4.1,0.7c5.7,0.9,11.6,1.4,17.5,1.4
					c58.2,0,105.9-44.8,110.5-101.8c0-0.2,0-0.4,0.1-0.6L144.9,57.6z"/>
			</g>
			<g>
				<g>
					<path class="st22" d="M150,175.5H89.4c-7,0-12.6-5.6-12.6-12.6V81.6c0-7,5.6-12.6,12.6-12.6H150c7,0,12.6,5.6,12.6,12.6v81.3
						C162.6,169.9,156.9,175.5,150,175.5z"/>
					<g>
						<path class="st41" d="M86.9,53.7h48.2c7.9,0,14.2,6.4,14.2,14.2v78c0,7.9-6.4,14.2-14.2,14.2H77.8c-7.9,0-14.2-6.4-14.2-14.2
							V76.7L86.9,53.7z"/>
						<path class="st41" d="M82.2,55.6c4.1-4.1,11.1-1.2,11.1,4.6l0,0v15.5c0,4.4-3.5,7.9-7.9,7.9H69.9c0,0-0.1,0-0.1,0
							c-5.7-0.1-8.3-7.3-4.2-11.3L82.2,55.6z"/>
					</g>
					<g>
						<line class="st42" x1="84.8" y1="93.2" x2="128.1" y2="93.2"/>
						<line class="st42" x1="84.8" y1="111.9" x2="128.1" y2="111.9"/>
						<line class="st42" x1="84.8" y1="130.7" x2="128.1" y2="130.7"/>
					</g>
				</g>
			</g>
			<g>
				
					<rect x="110.6" y="122.4" transform="matrix(0.5 -0.866 0.866 0.5 -42.6653 191.1929)" class="st25" width="67.2" height="20.2"/>
				<path class="st25" d="M175.6,89.9l-10.1-5.8c-2.1-1.2-4.7-0.5-5.9,1.6l-1.6,2.8l-1.6,2.8l-2.1,3.7l3.7,2.2l10.1,5.8l3.7,2.1
					l2.1-3.7l1.6-2.8l1.6-2.8C178.4,93.7,177.7,91.1,175.6,89.9z"/>
				<path class="st25" d="M134.2,170.1l-2.6-1.5l-12.4-7.1l-2.6-1.5l-1.6,12.4l0,0l-1.1,8.9c-0.2,1.7,1.8,2.9,3.2,1.8l6-4.6l0,0
					L134.2,170.1z"/>
				<rect x="160.1" y="91.6" transform="matrix(0.5 -0.866 0.866 0.5 -7.0785 191.1986)" class="st6" width="4" height="20.2"/>
				<rect x="124.5" y="153.3" transform="matrix(0.5 -0.866 0.866 0.5 -78.252 191.1972)" class="st6" width="4" height="20.2"/>
			</g>
		</g>
	</g>
	<g id="_x33_-3新_x28_轉學_x29_生學分抵免">
		<g class="st1">
			<g>
				<path class="st28" d="M141.5,55.6l81.7,45.1c-0.2-1.4-0.4-2.7-0.6-4.1c-8.6-52.7-54.3-92.9-109.4-92.9
					C51.8,3.7,2.2,53.3,2.2,114.6c0,51.7,35.3,95,83.1,107.4l-24.5-72.7L141.5,55.6z"/>
				<polygon class="st43" points="85.3,222 85.3,222 85.3,222 				"/>
				<polygon class="st43" points="223.1,100.6 223.1,100.6 223.1,100.6 				"/>
				<path class="st14" d="M223.1,100.6L223.1,100.6l-81.7-45.1l-80.7,93.7L85.3,222h0c3.4,0.9,6.8,1.6,10.3,2.1
					c5.7,0.9,11.6,1.4,17.5,1.4c61.3,0,110.9-49.7,110.9-110.9C224,109.9,223.7,105.2,223.1,100.6z"/>
			</g>
			<g>
				<g>
					<path class="st22" d="M145.8,172.7H85.2c-7,0-12.6-5.6-12.6-12.6V78.8c0-7,5.6-12.6,12.6-12.6h60.6c7,0,12.6,5.6,12.6,12.6
						v81.3C158.4,167.1,152.8,172.7,145.8,172.7z"/>
					<g>
						<path class="st41" d="M82.7,50.9H131c7.9,0,14.2,6.4,14.2,14.2v78c0,7.9-6.4,14.2-14.2,14.2H73.6c-7.9,0-14.2-6.4-14.2-14.2
							V73.9L82.7,50.9z"/>
						<path class="st41" d="M78.1,52.9c4.1-4.1,11.1-1.2,11.1,4.6l0,0V73c0,4.4-3.5,7.9-7.9,7.9H65.8c0,0-0.1,0-0.1,0
							c-5.7-0.1-8.3-7.3-4.2-11.3L78.1,52.9z"/>
					</g>
					<g>
						<line class="st42" x1="80.7" y1="90.4" x2="123.9" y2="90.4"/>
						<line class="st42" x1="80.7" y1="109.1" x2="123.9" y2="109.1"/>
						<line class="st42" x1="80.7" y1="127.9" x2="115.5" y2="127.9"/>
					</g>
				</g>
				<circle class="st7" cx="143.9" cy="155.4" r="22.9"/>
				<polyline class="st44" points="131.7,156.2 139.2,163.8 156.1,147 				"/>
			</g>
		</g>
	</g>
	<g id="_x33_-2課程地圖">
		<g class="st1">
			<g>
				<path class="st28" d="M166,66.3l58,48.3c0-6.1-0.5-12.1-1.5-18c-8.6-52.7-54.3-92.9-109.4-92.9C51.8,3.7,2.2,53.3,2.2,114.6
					c0,49.1,31.9,90.7,76.2,105.3l-30.3-57L166,66.3z"/>
				<path class="st45" d="M78.3,219.9L78.3,219.9C78.3,219.9,78.3,219.9,78.3,219.9L78.3,219.9z"/>
				<path class="st14" d="M166,66.3L48,162.9l30.3,57c0,0,0,0,0,0c5.6,1.8,11.3,3.3,17.2,4.2c5.7,0.9,11.6,1.4,17.5,1.4
					c30,0,57.1-11.9,77.1-31.2c4.1-3.9,7.9-8.2,11.3-12.7c14.2-18.6,22.6-41.8,22.6-67L166,66.3z"/>
			</g>
			<g>
				<rect x="48" y="83.7" class="st15" width="130.2" height="79.2"/>
				<path class="st16" d="M114.1,162.9l-6.1-2.8c-13.1-6-27.3-9.2-41.7-9.2h-4.1V66.3H73c12.6,0,24.8,4,35,11.4l6,4.4V162.9z"/>
				<path class="st16" d="M114.1,162.9l6.1-2.8c13.1-6,27.3-9.2,41.7-9.2h4.1V66.3h-10.8c-12.6,0-24.9,4-35,11.4l-6,4.4V162.9z"/>
			</g>
			<g>
				<path class="st25" d="M201.4,181.6l-18.1-22.8c-1.8-2.3-5.1-2.7-7.4-0.9l-4.9,3.9c-2.3,1.8-2.7,5.1-0.9,7.4l19.9,25.1
					C194.2,190.4,198,186.1,201.4,181.6z"/>
				<circle class="st46" cx="157.4" cy="139.6" r="36.1"/>
				<circle class="st25" cx="157.4" cy="139.6" r="25.9"/>
				<circle class="st6" cx="159.8" cy="117.4" r="7.2"/>
				<circle class="st6" cx="158.8" cy="130.6" r="4"/>
			</g>
		</g>
	</g>
	<g id="_x33_-1新生選課">
		<g class="st1">
			<g>
				<g>
					<g>
						<path class="st28" d="M146.3,53.2l77,73.7c0.4-4,0.7-8.1,0.7-12.2c0-6.1-0.5-12.1-1.5-18c-8.6-52.7-54.3-92.9-109.4-92.9
							C51.8,3.7,2.2,53.3,2.2,114.6c0,55.3,40.5,101.1,93.4,109.5c3.1,0.5,6.3,0.9,9.5,1.1l-42.7-78.4L146.3,53.2z"/>
					</g>
					<path class="st28" d="M105.2,225.5l0.3-0.3c-0.2,0-0.3,0-0.5,0L105.2,225.5z"/>
					<path class="st28" d="M223.3,126.8C223.3,126.8,223.3,126.8,223.3,126.8L223.3,126.8L223.3,126.8z"/>
					<g>
						<path class="st14" d="M146.3,53.2l-83.9,93.7l42.7,78.4c0.2,0,0.3,0,0.5,0c2.5,0.2,5,0.3,7.5,0.3
							c57.1,0,104.1-43.2,110.2-98.7c0,0,0,0,0,0L146.3,53.2z"/>
					</g>
				</g>
			</g>
			<g>
				<g>
					<path class="st22" d="M148.7,169.5H88.2c-7,0-12.6-5.6-12.6-12.6V75.6c0-7,5.6-12.6,12.6-12.6h60.6c7,0,12.6,5.6,12.6,12.6
						v81.3C161.3,163.8,155.7,169.5,148.7,169.5z"/>
					<g>
						<path class="st41" d="M85.7,47.7h48.2c7.9,0,14.2,6.4,14.2,14.2v78c0,7.9-6.4,14.2-14.2,14.2H76.6c-7.9,0-14.2-6.4-14.2-14.2
							V70.7L85.7,47.7z"/>
						<path class="st41" d="M81,49.6c4.1-4.1,11.1-1.2,11.1,4.6l0,0v15.5c0,4.4-3.5,7.9-7.9,7.9H68.7c0,0-0.1,0-0.1,0
							c-5.7-0.1-8.3-7.3-4.2-11.3L81,49.6z"/>
					</g>
					<g>
						<line class="st42" x1="83.6" y1="87.1" x2="126.9" y2="87.1"/>
						<line class="st42" x1="83.6" y1="105.9" x2="126.9" y2="105.9"/>
						<line class="st42" x1="83.6" y1="124.7" x2="126.9" y2="124.7"/>
					</g>
				</g>
				<path class="st25" d="M132.4,129.1l2.2,36c0.1,1.5,1.7,2.4,3,1.8l5.5-2.7c1-0.5,2.3-0.1,2.8,1l7.5,15.3c0.5,1,1.8,1.5,2.8,1
					l6.4-3.2c1-0.5,1.5-1.8,1-2.8l-7.5-15.3c-0.5-1-0.1-2.3,1-2.8l5.5-2.7c1.3-0.7,1.6-2.5,0.5-3.5l-27.1-23.7
					C134.5,126.1,132.3,127.2,132.4,129.1z"/>
			</g>
		</g>
	</g>
	<g id="_x33_-0選課">
		<g class="st1">
			<g>
				<path class="st28" d="M174.9,58l48.1,63c0.1-2.1,0.2-4.3,0.2-6.4c0-60.8-49.3-110.1-110.1-110.1S2.9,53.8,2.9,114.6
					c0,57.6,44.2,104.9,100.6,109.7l-69.6-61.2L174.9,58z"/>
				<path class="st14" d="M223,121l-48.1-63L33.9,163.1l69.6,61.2c3.2,0.3,6.4,0.4,9.6,0.4C171.8,224.7,219.7,178.9,223,121z"/>
			</g>
			<g>
				<g>
					<g>
						<path class="st47" d="M170.5,155.4H46c-2.9,0-5.3-2.4-5.3-5.3V60.9c0-2.9,2.4-5.3,5.3-5.3h124.6c2.9,0,5.3,2.4,5.3,5.3v89.2
							C175.8,153,173.4,155.4,170.5,155.4z"/>
						<path class="st22" d="M180.6,163.3H35.8c-1.1,0-2-0.9-2-2v-8.8c0-1.1,0.9-2,2-2h144.8c1.1,0,2,0.9,2,2v8.8
							C182.6,162.4,181.7,163.3,180.6,163.3z"/>
					</g>
					<g>
						<g>
							<g>
								<g>
									<path class="st25" d="M63.7,112.1c-0.3-0.3-0.4-0.6-0.4-1V91.9c0-0.4,0.1-0.8,0.4-1c0.3-0.3,0.6-0.4,1-0.4h12.7
										c0.4,0,0.7,0.1,1,0.4c0.3,0.3,0.4,0.6,0.4,1s-0.1,0.7-0.4,1c-0.3,0.3-0.6,0.4-1,0.4H66.6c-0.2,0-0.4,0.1-0.4,0.4v6.5h10
										c0.4,0,0.7,0.1,1,0.4c0.3,0.3,0.4,0.6,0.4,1c0,0.4-0.1,0.7-0.4,1c-0.3,0.3-0.6,0.4-1,0.4h-10v6.6c0,0.2,0.1,0.4,0.4,0.4
										h10.8c0.4,0,0.7,0.1,1,0.4c0.3,0.3,0.4,0.6,0.4,1s-0.1,0.7-0.4,1c-0.3,0.3-0.6,0.4-1,0.4H64.7
										C64.3,112.6,63.9,112.4,63.7,112.1z"/>
									<path class="st25" d="M83,99.4c-0.2-0.2-0.4-0.6-0.4-0.9c0-0.4,0.1-0.7,0.4-0.9s0.6-0.4,0.9-0.4h15.4
										c0.4,0,0.7,0.1,0.9,0.4s0.4,0.5,0.4,0.9c0,0.3-0.1,0.6-0.4,0.9s-0.5,0.4-0.9,0.4H83.9C83.6,99.8,83.2,99.7,83,99.4z
										 M83,106.5c-0.2-0.2-0.4-0.6-0.4-0.9c0-0.4,0.1-0.7,0.4-0.9s0.6-0.4,0.9-0.4h15.4c0.4,0,0.7,0.1,0.9,0.4s0.4,0.5,0.4,0.9
										c0,0.3-0.1,0.6-0.4,0.9s-0.5,0.4-0.9,0.4H83.9C83.6,106.9,83.2,106.7,83,106.5z"/>
									<path class="st25" d="M128.9,99.2c0.4,0.9,0.6,1.9,0.6,3v9.1c0,0.4-0.1,0.7-0.4,1c-0.3,0.3-0.6,0.4-1,0.4
										c-0.4,0-0.7-0.1-1-0.4s-0.4-0.6-0.4-1v-8.5c0-1.4-0.2-2.4-0.7-3s-1.3-0.9-2.4-0.9c-1,0-1.9,0.3-2.6,0.8
										c-0.7,0.5-1.3,1.3-2,2.2v9.5c0,0.4-0.2,0.7-0.4,1c-0.3,0.3-0.6,0.4-1,0.4s-0.7-0.1-1-0.4c-0.3-0.3-0.4-0.6-0.4-1v-8.5
										c0-1.4-0.2-2.4-0.7-3s-1.3-0.9-2.4-0.9c-1,0-1.9,0.3-2.6,0.8c-0.7,0.5-1.3,1.3-2,2.2v9.5c0,0.4-0.2,0.7-0.4,1
										c-0.3,0.3-0.6,0.4-1,0.4s-0.7-0.1-1-0.4c-0.3-0.3-0.4-0.6-0.4-1V97.7c0-0.4,0.1-0.8,0.4-1c0.3-0.3,0.6-0.4,1-0.4
										s0.8,0.2,1,0.4c0.3,0.3,0.4,0.6,0.4,1v1.2c0.7-0.9,1.4-1.6,2.2-2.1c0.8-0.5,1.9-0.7,3.1-0.7c1.1,0,2.1,0.3,3,0.9
										c0.8,0.6,1.5,1.4,1.8,2.3c1.3-2.2,3.2-3.2,5.8-3.2c1.2,0,2.2,0.3,3,0.9C128,97.5,128.5,98.3,128.9,99.2z"/>
									<path class="st25" d="M137.6,111.8c-1.3-0.7-2.4-1.7-3.1-3c-0.8-1.3-1.1-2.8-1.1-4.4c0-1.7,0.4-3.2,1.2-4.5
										c0.8-1.2,1.8-2.2,3.1-2.9c1.3-0.7,2.7-1,4.2-1c1.1,0,2,0.1,2.8,0.4s1.6,0.6,2.4,1.1c0.4,0.3,0.6,0.7,0.6,1.1
										c0,0.3-0.1,0.6-0.4,0.9s-0.5,0.4-0.9,0.4c-0.2,0-0.4-0.1-0.7-0.2c-0.7-0.4-1.4-0.6-1.8-0.8s-1.1-0.2-1.8-0.2
										c-1.8,0-3.2,0.5-4.2,1.5c-1,1-1.6,2.4-1.6,4.1c0,1.7,0.5,3.1,1.6,4.1c1,1,2.4,1.5,4.2,1.5c0.7,0,1.3-0.1,1.8-0.2
										s1.1-0.4,1.8-0.8c0.2-0.1,0.5-0.2,0.7-0.2c0.3,0,0.6,0.1,0.9,0.4c0.2,0.3,0.4,0.6,0.4,0.9c0,0.5-0.2,0.8-0.6,1.1
										c-0.8,0.5-1.6,0.9-2.4,1.1c-0.8,0.3-1.7,0.4-2.8,0.4C140.3,112.9,138.9,112.5,137.6,111.8z"/>
								</g>
							</g>
							<g>
								<path class="st25" d="M149.2,93.2c-0.2-0.2-0.2-0.4-0.2-0.6c0-0.6,0.2-1.1,0.5-1.6c0.3-0.4,0.7-0.8,1.1-1.2
									c0.4-0.3,1.1-0.8,1.9-1.3c0.6-0.4,1.1-0.8,1.6-1.1c0.9-0.7,1.4-1.4,1.4-2c0-0.7-0.2-1.1-0.6-1.5c-0.4-0.3-1.1-0.5-1.9-0.5
									c-1,0-1.9,0.2-2.8,0.6c-0.1,0.1-0.2,0.1-0.3,0.1c-0.2,0-0.3-0.1-0.4-0.2c-0.1-0.1-0.2-0.3-0.2-0.5c0-0.3,0.1-0.5,0.4-0.6
									c1.1-0.6,2.3-0.8,3.6-0.8c0.7,0,1.3,0.1,1.9,0.4c0.6,0.3,1,0.7,1.4,1.2s0.5,1.1,0.5,1.7c0,0.7-0.2,1.2-0.6,1.8
									c-0.4,0.5-0.8,1-1.2,1.4c-0.5,0.4-1.2,0.9-2.1,1.5c-0.8,0.6-1.4,1-1.8,1.3c-0.4,0.3-0.6,0.6-0.7,0.9h5.6
									c0.2,0,0.4,0.1,0.5,0.2s0.2,0.3,0.2,0.5s-0.1,0.4-0.2,0.5c-0.1,0.1-0.3,0.2-0.5,0.2h-6.2C149.6,93.4,149.4,93.3,149.2,93.2z
									"/>
							</g>
						</g>
					</g>
				</g>
				<g>
					<g>
						<g>
							<path class="st48" d="M187.1,156h-55.8c-1.6,0-2.9-1.3-2.9-2.9v-2.7c0-1.6,1.3-2.9,2.9-2.9h55.8c1.6,0,2.9,1.3,2.9,2.9v2.7
								C190,154.6,188.7,156,187.1,156z"/>
							<path class="st48" d="M181.9,175.8h-45.5c-0.7,0-1.2-0.5-1.2-1.2v-16.2c0-0.7,0.5-1.2,1.2-1.2h45.5c0.7,0,1.2,0.5,1.2,1.2
								v16.2C183.2,175.2,182.6,175.8,181.9,175.8z"/>
						</g>
					</g>
					<g>
						<circle class="st29" cx="159.2" cy="116.9" r="9.2"/>
						<g>
							<path class="st20" d="M163.2,127.9l-1.4,1.9l-2.5,3.3l-2.5-3.3l-1.4-1.9c-7.2,1.9-12.5,8.8-12.5,17.1h33
								C175.7,136.8,170.4,129.9,163.2,127.9z"/>
							<path class="st29" d="M159.2,133.1l2.5-3.3l1.4-1.9c-1.3-0.3-2.6-0.5-4-0.5s-2.7,0.2-4,0.5l1.4,1.9L159.2,133.1z"/>
						</g>
					</g>
				</g>
			</g>
		</g>
	</g>
	<g id="_x32_-2註冊繳費單列印">
		<g class="st1">
			<g>
				<g>
					<g>
						<path class="st2" d="M148,69.7l75.9,42.4c-0.1-5.3-0.6-10.4-1.4-15.5c-8.6-52.7-54.3-92.9-109.4-92.9
							C51.8,3.7,2.2,53.3,2.2,114.6c0,46.4,28.5,86.1,68.9,102.7L50.6,139L148,69.7z"/>
					</g>
					<path class="st2" d="M224,112.1L224,112.1C223.9,112.1,223.9,112.1,224,112.1L224,112.1z"/>
					<polygon class="st2" points="71.1,217.3 71.1,217.3 71.1,217.3 					"/>
					<g>
						<path class="st4" d="M223.9,112.1C223.9,112.1,223.9,112.1,223.9,112.1L148,69.7L50.7,139l20.5,78.3h0
							c7.8,3.2,15.9,5.5,24.5,6.9c5.7,0.9,11.6,1.4,17.5,1.4c61.3,0,110.9-49.7,110.9-110.9C224,113.8,224,112.9,223.9,112.1z"/>
					</g>
				</g>
			</g>
			<g>
				<path class="st49" d="M73.3,93.7v-13c0-7.1,5.7-12.8,12.8-12.8h55.5c7.1,0,12.8,5.7,12.8,12.8v13c0,7.1-5.7,12.8-12.8,12.8H86.1
					C79,106.5,73.3,100.8,73.3,93.7z"/>
				<path class="st5" d="M163.9,146.5H62.3c-7,0-12.8-5.7-12.8-12.8V96.5c0-7.1,5.7-12.8,12.8-12.8h101.6c7.1,0,12.8,5.7,12.8,12.8
					v37.2C176.6,140.8,170.9,146.5,163.9,146.5z"/>
				<g>
					<g>
						<g>
							<path class="st6" d="M73.3,169.2v-45.6c0-7.1,5.7-12.8,12.8-12.8h55.5c7.1,0,12.8,5.7,12.8,12.8v45.6
								c0,7.1-5.7,12.8-12.8,12.8H86.1C79,182,73.3,176.3,73.3,169.2z"/>
							<path class="st50" d="M73.3,169.2v-45.6c0-7.1,5.7-12.8,12.8-12.8h55.5c7.1,0,12.8,5.7,12.8,12.8v45.6
								c0,7.1-5.7,12.8-12.8,12.8H86.1C79,182,73.3,176.3,73.3,169.2z"/>
						</g>
						<g>
							<g>
								<g>
									<g>
										<line class="st50" x1="113.7" y1="142.8" x2="145.1" y2="142.8"/>
									</g>
									<g>
										<line class="st50" x1="113.7" y1="150.3" x2="145.1" y2="150.3"/>
									</g>
									<g>
										<line class="st50" x1="113.7" y1="157.8" x2="145.1" y2="157.8"/>
									</g>
									<g>
										<line class="st50" x1="113.7" y1="165.3" x2="145.1" y2="165.3"/>
									</g>
								</g>
							</g>
							<g>
								<ellipse class="st5" cx="96.2" cy="154" rx="13.7" ry="13.4"/>
							</g>
						</g>
					</g>
				</g>
				<path class="st6" d="M63.7,100.4H60c-1.3,0-2.4-1.1-2.4-2.4v-3.7c0-1.3,1.1-2.4,2.4-2.4h3.7c1.3,0,2.4,1.1,2.4,2.4v3.7
					C66.1,99.3,65.1,100.4,63.7,100.4z"/>
				<path class="st6" d="M75,100.4h-3.7c-1.3,0-2.4-1.1-2.4-2.4v-3.7c0-1.3,1.1-2.4,2.4-2.4H75c1.3,0,2.4,1.1,2.4,2.4v3.7
					C77.4,99.3,76.3,100.4,75,100.4z"/>
				<rect x="49.5" y="108.9" class="st5" width="127.2" height="23.1"/>
			</g>
		</g>
	</g>
	<g id="_x32_-1註冊須知" class="st1">
		<g>
			<g>
				<path class="st2" d="M156.4,42.4l67.1,61.8C218.2,47.8,170.8,3.7,113.1,3.7C51.8,3.7,2.2,53.3,2.2,114.6
					c0,59.8,47.3,108.6,106.6,110.8l-46-50.3L156.4,42.4z"/>
				<path class="st4" d="M224,114.6c0-3.5-0.2-7-0.5-10.5l-59.6-65.1L60.5,188.4l48.3,37c1.4,0.1,2.9,0.1,4.3,0.1
					C174.3,225.5,224,175.9,224,114.6z"/>
			</g>
			<g>
				<g>
					<g>
						<path class="st29" d="M156.5,192.3H69.7c-7.9,0-14.3-6.4-14.3-14.3V51.2c0-7.9,6.5-14.3,14.3-14.3h86.8
							c7.9,0,14.3,6.5,14.3,14.3V178C170.8,185.9,164.4,192.3,156.5,192.3z"/>
						<path class="st5" d="M138.9,52.5H87.2c-0.8,0-1.6-0.7-1.6-1.5v-9.6c0-0.8,0.7-1.5,1.6-1.5h51.7c0.9,0,1.6,0.7,1.6,1.5V51
							C140.5,51.8,139.8,52.5,138.9,52.5z"/>
						<path class="st21" d="M154.3,178.8H71.9c-3.6,0-6.5-2.9-6.5-6.5V56.9c0-3.6,2.9-6.5,6.5-6.5h82.4c3.6,0,6.5,2.9,6.5,6.5v115.5
							C160.8,175.9,157.9,178.8,154.3,178.8z"/>
						<path class="st51" d="M134.3,41.8H91.9c-2.1,0-3.7,1.2-3.7,2.6v11.4c0,1.5,1.7,2.6,3.7,2.6h42.4c2.1,0,3.7-1.2,3.7-2.6V44.4
							C138,43,136.4,41.8,134.3,41.8z M133.8,54.1c0,1.1-1.3,2-2.9,2H95.3c-1.6,0-2.9-0.9-2.9-2v-8c0-1.1,1.3-2,2.9-2h35.6
							c1.6,0,2.9,0.9,2.9,2L133.8,54.1L133.8,54.1z"/>
					</g>
					<g>
						<g>
							<g>
								<g>
									<line class="st52" x1="88.1" y1="77.2" x2="90.5" y2="77.2"/>
									<line class="st53" x1="95.5" y1="77.2" x2="142.9" y2="77.2"/>
									<line class="st52" x1="145.4" y1="77.2" x2="147.8" y2="77.2"/>
								</g>
							</g>
							<line class="st54" x1="71.5" y1="118.9" x2="154.7" y2="118.9"/>
							<line class="st54" x1="71.5" y1="67.1" x2="154.7" y2="67.1"/>
							<rect x="75.1" y="73" class="st55" width="8.4" height="8.4"/>
							<g>
								<g>
									<line class="st52" x1="88.1" y1="92.2" x2="90.5" y2="92.2"/>
									<line class="st53" x1="95.5" y1="92.2" x2="142.9" y2="92.2"/>
									<line class="st52" x1="145.4" y1="92.2" x2="147.8" y2="92.2"/>
								</g>
							</g>
							<g>
								<g>
									<line class="st52" x1="88.1" y1="107.1" x2="90.5" y2="107.1"/>
									<line class="st53" x1="95.5" y1="107.1" x2="142.9" y2="107.1"/>
									<line class="st52" x1="145.4" y1="107.1" x2="147.8" y2="107.1"/>
								</g>
							</g>
							<rect x="75.1" y="87.9" class="st55" width="8.4" height="8.4"/>
							<rect x="75.1" y="102.9" class="st55" width="8.4" height="8.4"/>
						</g>
						<g>
							<g>
								<g>
									<g>
										<line class="st56" x1="88.1" y1="129" x2="90.5" y2="129"/>
										<line class="st57" x1="95" y1="129" x2="146.5" y2="129"/>
										<line class="st56" x1="148.7" y1="129" x2="151.1" y2="129"/>
									</g>
								</g>
								<g>
									<g>
										<line class="st56" x1="88.1" y1="133.3" x2="90.5" y2="133.3"/>
										<line class="st57" x1="95" y1="133.3" x2="146.5" y2="133.3"/>
										<line class="st56" x1="148.7" y1="133.3" x2="151.1" y2="133.3"/>
									</g>
								</g>
							</g>
							<rect x="75.1" y="126.9" class="st55" width="8.4" height="8.4"/>
							<g>
								<g>
									<g>
										<line class="st56" x1="88.1" y1="147.1" x2="90.5" y2="147.1"/>
										<line class="st57" x1="95" y1="147.1" x2="146.5" y2="147.1"/>
										<line class="st56" x1="148.7" y1="147.1" x2="151.1" y2="147.1"/>
									</g>
								</g>
								<g>
									<g>
										<line class="st56" x1="88.1" y1="151.4" x2="90.5" y2="151.4"/>
										<line class="st57" x1="95" y1="151.4" x2="146.5" y2="151.4"/>
										<line class="st56" x1="148.7" y1="151.4" x2="151.1" y2="151.4"/>
									</g>
								</g>
							</g>
							<rect x="75.1" y="145" class="st55" width="8.4" height="8.4"/>
							<g>
								<g>
									<g>
										<line class="st56" x1="88.1" y1="165.2" x2="90.5" y2="165.2"/>
										<line class="st57" x1="95" y1="165.2" x2="146.5" y2="165.2"/>
										<line class="st56" x1="148.7" y1="165.2" x2="151.1" y2="165.2"/>
									</g>
								</g>
								<g>
									<g>
										<line class="st56" x1="88.1" y1="169.4" x2="90.5" y2="169.4"/>
										<line class="st57" x1="95" y1="169.4" x2="146.5" y2="169.4"/>
										<line class="st56" x1="148.7" y1="169.4" x2="151.1" y2="169.4"/>
									</g>
								</g>
							</g>
							<rect x="75.1" y="163.1" class="st55" width="8.4" height="8.4"/>
						</g>
					</g>
				</g>
				<g>
					
						<ellipse transform="matrix(7.088900e-02 -0.9975 0.9975 7.088900e-02 -21.0981 307.7693)" class="st6" cx="154.7" cy="165.2" rx="29.5" ry="29.5"/>
					<g>
						<g>
							<path class="st5" d="M152.1,185.6c-0.7-0.7-1.1-1.6-1.1-2.6c0-1,0.4-1.8,1.1-2.5s1.6-1.1,2.5-1.1c1,0,1.9,0.4,2.6,1.1
								c0.7,0.7,1.1,1.6,1.1,2.5c0,1-0.4,1.9-1.1,2.6c-0.7,0.7-1.6,1.1-2.6,1.1C153.7,186.6,152.8,186.3,152.1,185.6z M153.1,174.2
								c-0.4-0.3-0.6-0.8-0.6-1.3l-1.1-19.9v-6c0-0.9,0.3-1.6,0.9-2.3c0.6-0.6,1.4-0.9,2.3-0.9s1.6,0.3,2.2,0.9
								c0.6,0.6,0.9,1.4,0.9,2.3v6l-1.1,19.9c0,0.6-0.2,1-0.6,1.3s-0.9,0.5-1.4,0.5C154,174.7,153.5,174.6,153.1,174.2z"/>
						</g>
					</g>
				</g>
			</g>
		</g>
	</g>
	<g id="_x32_-0註冊">
		<g class="st1">
			<path class="st2" d="M155.6,43.7l65.8,60.6C216.2,49,169.7,5.8,113.1,5.8C53,5.8,4.3,54.5,4.3,114.6
				c0,58.7,46.4,106.5,104.6,108.7L63.7,174L155.6,43.7z"/>
			<path class="st4" d="M221.9,114.6c0-3.5-0.2-6.9-0.5-10.3l-58.5-63.8L61.5,187l47.4,36.3c1.4,0.1,2.8,0.1,4.2,0.1
				C173.2,223.4,221.9,174.7,221.9,114.6z"/>
			<g>
				<path class="st29" d="M155.4,190.8H70.8c-7.9,0-14.3-6.4-14.3-14.3V52.7c0-7.9,6.5-14.3,14.3-14.3h84.6
					c7.9,0,14.3,6.5,14.3,14.3v123.8C169.7,184.4,163.3,190.8,155.4,190.8z"/>
				<path class="st5" d="M138.4,53.7H87.8c-0.8,0-1.6-0.7-1.6-1.5v-9.4c0-0.8,0.7-1.5,1.6-1.5h50.7c0.9,0,1.6,0.7,1.6,1.5v9.4
					C140,53,139.3,53.7,138.4,53.7z"/>
				<path class="st21" d="M153.4,177.6H72.8c-3.6,0-6.5-2.9-6.5-6.5v-113c0-3.6,2.9-6.5,6.5-6.5h80.6c3.6,0,6.5,2.9,6.5,6.5v113
					C159.9,174.7,157,177.6,153.4,177.6z"/>
				<path class="st51" d="M133.9,43.2H92.3c-2,0-3.7,1.2-3.7,2.6v11.2c0,1.4,1.7,2.6,3.7,2.6h41.6c2,0,3.7-1.2,3.7-2.6V45.8
					C137.6,44.3,135.9,43.2,133.9,43.2z M133.4,55.2c0,1.1-1.3,2-2.9,2H95.6c-1.6,0-2.8-0.9-2.8-2v-7.9c0-1.1,1.3-2,2.8-2h34.9
					c1.6,0,2.9,0.9,2.9,2V55.2z"/>
			</g>
			<g>
				<g>
					<g>
						<g>
							<line class="st52" x1="79" y1="85.7" x2="81.4" y2="85.7"/>
							<line class="st58" x1="86.3" y1="85.7" x2="142.3" y2="85.7"/>
							<line class="st52" x1="144.8" y1="85.7" x2="147.2" y2="85.7"/>
						</g>
					</g>
					<g>
						<g>
							<line class="st52" x1="79" y1="97.3" x2="81.4" y2="97.3"/>
							<line class="st58" x1="86.3" y1="97.3" x2="142.3" y2="97.3"/>
							<line class="st52" x1="144.8" y1="97.3" x2="147.2" y2="97.3"/>
						</g>
					</g>
					<line class="st54" x1="72.3" y1="114.1" x2="153.9" y2="114.1"/>
					<line class="st54" x1="72.3" y1="68" x2="153.9" y2="68"/>
				</g>
				<g>
					<g>
						<g>
							<line class="st56" x1="113" y1="131.2" x2="115.4" y2="131.2"/>
							<line class="st59" x1="120" y1="131.2" x2="145.7" y2="131.2"/>
							<line class="st56" x1="148" y1="131.2" x2="150.4" y2="131.2"/>
						</g>
					</g>
					<g>
						<g>
							<line class="st56" x1="113" y1="140.3" x2="115.4" y2="140.3"/>
							<line class="st59" x1="120" y1="140.3" x2="145.7" y2="140.3"/>
							<line class="st56" x1="148" y1="140.3" x2="150.4" y2="140.3"/>
						</g>
					</g>
					<g>
						<g>
							<line class="st56" x1="113" y1="149.4" x2="115.4" y2="149.4"/>
							<line class="st59" x1="120" y1="149.4" x2="145.7" y2="149.4"/>
							<line class="st56" x1="148" y1="149.4" x2="150.4" y2="149.4"/>
						</g>
					</g>
					<g>
						<g>
							<line class="st56" x1="113" y1="158.6" x2="115.4" y2="158.6"/>
							<line class="st59" x1="120" y1="158.6" x2="145.7" y2="158.6"/>
							<line class="st56" x1="148" y1="158.6" x2="150.4" y2="158.6"/>
						</g>
					</g>
				</g>
				<circle class="st22" cx="92.1" cy="144.9" r="16.3"/>
			</g>
			<g class="st0">
				<g class="st1">
					<path class="st32" d="M156.2,190.6H69.9c-7.9,0-14.4-6.5-14.4-14.4V53c0-7.9,6.5-14.4,14.4-14.4h86.3c7.9,0,14.4,6.5,14.4,14.4
						v123.1C170.7,184.1,164.2,190.6,156.2,190.6z"/>
					<path class="st5" d="M138.9,53.9H87.3c-0.9,0-1.6-0.7-1.6-1.6V43c0-0.9,0.7-1.6,1.6-1.6h51.5c0.9,0,1.6,0.7,1.6,1.6v9.3
						C140.4,53.2,139.7,53.9,138.9,53.9z"/>
					<path class="st21" d="M154.1,177.4H72c-3.6,0-6.5-2.9-6.5-6.5V58.3c0-3.6,2.9-6.5,6.5-6.5h82.1c3.6,0,6.5,2.9,6.5,6.5v112.5
						C160.7,174.5,157.7,177.4,154.1,177.4z"/>
					<path class="st51" d="M134.2,43.4H91.9c-2.1,0-3.7,1.2-3.7,2.6v11.1c0,1.4,1.7,2.6,3.7,2.6h42.3c2.1,0,3.7-1.2,3.7-2.6V46
						C138,44.6,136.3,43.4,134.2,43.4z M133.7,55.4c0,1.1-1.3,2-2.9,2H95.3c-1.6,0-2.9-0.9-2.9-2v-7.8c0-1.1,1.3-2,2.9-2h35.5
						c1.6,0,2.9,0.9,2.9,2L133.7,55.4L133.7,55.4z"/>
				</g>
				<g class="st1">
					<g>
						<line class="st60" x1="78.4" y1="85.8" x2="84.2" y2="85.8"/>
						<line class="st61" x1="95.8" y1="85.8" x2="136.1" y2="85.8"/>
						<line class="st60" x1="141.9" y1="85.8" x2="147.7" y2="85.8"/>
					</g>
				</g>
				<g class="st1">
					<g>
						<line class="st60" x1="78.4" y1="97.3" x2="84.2" y2="97.3"/>
						<line class="st61" x1="95.8" y1="97.3" x2="136.1" y2="97.3"/>
						<line class="st60" x1="141.9" y1="97.3" x2="147.7" y2="97.3"/>
					</g>
				</g>
				<line class="st62" x1="71.6" y1="114.1" x2="154.6" y2="114.1"/>
				<line class="st62" x1="71.6" y1="68.1" x2="154.6" y2="68.1"/>
				<g class="st1">
					<g>
						<g>
							<line class="st60" x1="113" y1="131.2" x2="151" y2="131.2"/>
						</g>
						<g>
							<line class="st60" x1="113" y1="140.2" x2="151" y2="140.2"/>
						</g>
						<g>
							<line class="st60" x1="113" y1="149.3" x2="151" y2="149.3"/>
						</g>
						<g>
							<line class="st60" x1="113" y1="158.4" x2="151" y2="158.4"/>
						</g>
					</g>
				</g>
				<ellipse class="st63" cx="91.7" cy="144.8" rx="16.6" ry="16.3"/>
			</g>
		</g>
	</g>
	<g id="_x31_-2新生資料登錄">
		<g class="st1">
			<g>
				<path class="st8" d="M121.6,55.4l97.6,26.9C205.4,36.8,163.1,3.7,113.1,3.7C51.8,3.7,2.2,53.3,2.2,114.6
					c0,46,28,85.4,67.8,102.2l-24.7-67.2L121.6,55.4z"/>
				<path class="st64" d="M219.2,82.4L219.2,82.4L219.2,82.4z"/>
				<polygon class="st64" points="70,216.8 70,216.8 70,216.8 				"/>
				<path class="st10" d="M222.5,96.6c-0.8-4.9-1.9-9.6-3.3-14.2l0,0l-97.6-26.9l-76.3,94.1L70,216.8l0,0c8.1,3.4,16.7,5.9,25.6,7.3
					c5.7,0.9,11.6,1.4,17.5,1.4c61.3,0,110.9-49.7,110.9-110.9C224,108.5,223.5,102.4,222.5,96.6z"/>
			</g>
			<g>
				<g>
					<path class="st11" d="M174.1,75.1h-122c-3.7,0-6.8,3-6.8,6.8v67.7c0,3.7,3,6.8,6.8,6.8h53.7v13.2H78.2v7.3H148v-7.3h-27.6
						v-13.2h53.7c3.7,0,6.8-3,6.8-6.8V81.9C180.9,78.2,177.8,75.1,174.1,75.1z"/>
					<rect x="45.3" y="139.9" class="st6" width="135.6" height="3.4"/>
					<g>
						<circle class="st6" cx="113.1" cy="149.8" r="3.8"/>
						<circle class="st6" cx="124" cy="149.8" r="2.4"/>
						<circle class="st6" cx="102.2" cy="149.8" r="2.4"/>
					</g>
				</g>
				<g>
					<circle class="st29" cx="111.8" cy="69.8" r="17.4"/>
					<path class="st29" d="M139.9,129.7c0-0.5,0-1,0-1.5c0-21-12.9-38.1-28.8-38.1s-28.8,17-28.8,38.1c0,0.5,0,1,0,1.5H139.9z"/>
				</g>
				<path class="st25" d="M132.6,116l2.2,36c0.1,1.5,1.7,2.4,3,1.8l5.5-2.7c1-0.5,2.3-0.1,2.8,1l7.5,15.3c0.5,1,1.8,1.5,2.8,1
					l6.4-3.2c1-0.5,1.5-1.8,1-2.8l-7.5-15.3c-0.5-1-0.1-2.3,1-2.8l5.5-2.7c1.3-0.7,1.6-2.5,0.5-3.5l-27.1-23.7
					C134.7,113.1,132.5,114.2,132.6,116z"/>
			</g>
		</g>
	</g>
	<g id="_x31_-1新生學號查詢">
		<g class="st1">
			<g>
				<g>
					<g>
						<path class="st8" d="M176.8,74.3l47.2,42.9c0-0.9,0.1-1.7,0.1-2.6c0-6.1-0.5-12.1-1.5-18c-8.6-52.7-54.3-92.9-109.4-92.9
							C51.8,3.7,2.2,53.3,2.2,114.6c0,45.6,27.5,84.7,66.8,101.8l-24.8-67.7L176.8,74.3z"/>
					</g>
					<path class="st8" d="M223.9,117.2C223.9,117.2,223.9,117.2,223.9,117.2L223.9,117.2L223.9,117.2z"/>
					<polygon class="st8" points="68.9,216.4 68.9,216.4 68.9,216.4 					"/>
					<g>
						<path class="st10" d="M176.8,74.3L44.1,148.7l24.8,67.7c0,0,0,0,0,0c8.4,3.6,17.3,6.3,26.6,7.8c5.7,0.9,11.6,1.4,17.5,1.4
							c31.4,0,59.7-13.1,79.9-34c3.9-4.1,7.6-8.5,10.9-13.2c12.2-17.4,19.6-38.4,20.1-61.1c0,0,0,0,0,0L176.8,74.3z"/>
					</g>
				</g>
			</g>
			<g>
				<g>
					<g>
						<g>
							<path class="st32" d="M167.6,157.8H58.5c-8.8,0-16-7.1-16-15.9V87.3c0-8.8,7.1-15.9,16-15.9h109.1c8.8,0,15.9,7.1,15.9,15.9
								v54.6C183.6,150.7,176.4,157.8,167.6,157.8z"/>
							<g>
								<path class="st51" d="M91.9,140.5H72c-8.8,0-16-7.1-16-15.9v-19.9c0-8.8,7.1-15.9,16-15.9h19.9c8.8,0,15.9,7.1,15.9,15.9
									v19.9C107.9,133.4,100.7,140.5,91.9,140.5z"/>
								<g>
									<circle class="st29" cx="82.3" cy="103.2" r="9.3"/>
									<path class="st29" d="M97.4,140.5c0-0.3,0-0.7,0-1c0-14-6.9-25.4-15.5-25.4s-15.5,11.4-15.5,25.4c0,0.3,0,0.7,0,1H97.4z"/>
								</g>
							</g>
						</g>
						<g>
							<g>
								<g>
									<line class="st23" x1="118.2" y1="112.3" x2="171.5" y2="112.3"/>
								</g>
								<g>
									<line class="st23" x1="118.2" y1="123.3" x2="171.5" y2="123.3"/>
								</g>
								<g>
									<line class="st23" x1="112.9" y1="134.2" x2="176.8" y2="134.2"/>
								</g>
								<g>
									<line class="st65" x1="117" y1="97.2" x2="151.2" y2="97.2"/>
								</g>
								<g>
									<line class="st65" x1="157.4" y1="97.2" x2="171.5" y2="97.2"/>
								</g>
							</g>
						</g>
					</g>
				</g>
				<g>
					<path class="st25" d="M192.5,164.1c-1.8-2.3-5.1-2.7-7.4-0.9l-4.9,3.9c-2.3,1.8-2.7,5.1-0.9,7.4l13.6,17.1
						c3.9-4.1,7.6-8.5,10.9-13.2L192.5,164.1z"/>
					<g>
						<circle class="st46" cx="166.5" cy="144.8" r="36.1"/>
						<circle class="st25" cx="166.5" cy="144.8" r="25.9"/>
						<circle class="st6" cx="168.9" cy="122.6" r="7.2"/>
						<circle class="st6" cx="168" cy="135.8" r="4"/>
					</g>
				</g>
			</g>
		</g>
	</g>
	<g id="_x31_-0資料登錄">
		<g class="st1">
			<g>
				<path class="st8" d="M157.1,46.9L220.6,89C209,40.3,165.3,4.1,113.1,4.1C52,4.1,2.6,53.6,2.6,114.6c0,53.3,37.7,97.7,87.9,108.2
					l-36.2-43.9L157.1,46.9z"/>
				<path class="st10" d="M223.6,114.6c0-8.8-1-17.4-3-25.6l-66.9-50.4L46.6,178.8l43.8,43.9c7.3,1.5,14.9,2.3,22.6,2.3
					C174.1,225.1,223.6,175.6,223.6,114.6z"/>
			</g>
			<g>
				<g>
					<g>
						<path class="st32" d="M143.4,185.2H57c-7.9,0-14.4-6.5-14.4-14.4V47.6c0-7.9,6.5-14.4,14.4-14.4h86.3
							c7.9,0,14.4,6.5,14.4,14.4v123.1C157.8,178.7,151.3,185.2,143.4,185.2z"/>
						<path class="st5" d="M126,48.5H74.4c-0.9,0-1.6-0.7-1.6-1.6v-9.3c0-0.9,0.7-1.6,1.6-1.6H126c0.9,0,1.6,0.7,1.6,1.6V47
							C127.5,47.8,126.8,48.5,126,48.5z"/>
						<path class="st21" d="M141.3,172H59.2c-3.6,0-6.5-2.9-6.5-6.5V52.9c0-3.6,2.9-6.5,6.5-6.5h82.1c3.6,0,6.5,2.9,6.5,6.5v112.5
							C147.8,169.1,144.9,172,141.3,172z"/>
						<path class="st51" d="M121.4,38H79.1c-2.1,0-3.7,1.2-3.7,2.6v11.1c0,1.4,1.7,2.6,3.7,2.6h42.3c2.1,0,3.7-1.2,3.7-2.6V40.6
							C125.1,39.2,123.4,38,121.4,38z M120.9,50c0,1.1-1.3,2-2.9,2H82.5c-1.6,0-2.9-0.9-2.9-2v-7.8c0-1.1,1.3-2,2.9-2H118
							c1.6,0,2.9,0.9,2.9,2C120.9,42.2,120.9,50,120.9,50z"/>
					</g>
					<g>
						<g>
							<line class="st60" x1="65.6" y1="80.4" x2="71.4" y2="80.4"/>
							<line class="st61" x1="82.9" y1="80.4" x2="123.3" y2="80.4"/>
							<line class="st60" x1="129.1" y1="80.4" x2="134.9" y2="80.4"/>
						</g>
					</g>
					<g>
						<g>
							<line class="st60" x1="65.6" y1="91.9" x2="71.4" y2="91.9"/>
							<line class="st61" x1="82.9" y1="91.9" x2="123.3" y2="91.9"/>
							<line class="st60" x1="129.1" y1="91.9" x2="134.9" y2="91.9"/>
						</g>
					</g>
					<line class="st60" x1="58.7" y1="108.7" x2="141.7" y2="108.7"/>
					<line class="st60" x1="58.7" y1="62.7" x2="141.7" y2="62.7"/>
					<g>
						<g>
							<g>
								<line class="st60" x1="100.1" y1="125.8" x2="138.2" y2="125.8"/>
							</g>
							<g>
								<line class="st60" x1="100.1" y1="134.9" x2="138.2" y2="134.9"/>
							</g>
							<g>
								<line class="st60" x1="100.1" y1="143.9" x2="138.2" y2="143.9"/>
							</g>
							<g>
								<line class="st60" x1="100.1" y1="153" x2="138.2" y2="153"/>
							</g>
						</g>
					</g>
					<ellipse class="st22" cx="78.9" cy="139.4" rx="16.6" ry="16.3"/>
				</g>
				<g>
					<g>
						<ellipse class="st6" cx="141.6" cy="137.2" rx="19.6" ry="20"/>
						<path class="st6" d="M141.6,160.9c-20.5,0-37.2,12.8-37.2,28.6h74.3C178.7,173.7,162.1,160.9,141.6,160.9z"/>
					</g>
				</g>
			</g>
		</g>
	</g>
	<g id="_x32_-1註冊須知_00000034807915725275319270000012131234398180841147_" class="st1">
		<g>
			<g>
				<path class="st2" d="M156.4,42.4l67.1,61.8C218.2,47.8,170.8,3.7,113.1,3.7C51.8,3.7,2.2,53.3,2.2,114.6
					c0,59.8,47.3,108.6,106.6,110.8l-46-50.3L156.4,42.4z"/>
				<path class="st4" d="M224,114.6c0-3.5-0.2-7-0.5-10.5l-59.6-65.1L60.5,188.4l48.3,37c1.4,0.1,2.9,0.1,4.3,0.1
					C174.3,225.5,224,175.9,224,114.6z"/>
			</g>
			<g>
				<g>
					<g>
						<path class="st29" d="M156.5,192.3H69.7c-7.9,0-14.3-6.4-14.3-14.3V51.2c0-7.9,6.5-14.3,14.3-14.3h86.8
							c7.9,0,14.3,6.5,14.3,14.3V178C170.8,185.9,164.4,192.3,156.5,192.3z"/>
						<path class="st5" d="M138.9,52.5H87.2c-0.8,0-1.6-0.7-1.6-1.5v-9.6c0-0.8,0.7-1.5,1.6-1.5h51.7c0.9,0,1.6,0.7,1.6,1.5V51
							C140.5,51.8,139.8,52.5,138.9,52.5z"/>
						<path class="st21" d="M154.3,178.8H71.9c-3.6,0-6.5-2.9-6.5-6.5V56.9c0-3.6,2.9-6.5,6.5-6.5h82.4c3.6,0,6.5,2.9,6.5,6.5v115.5
							C160.8,175.9,157.9,178.8,154.3,178.8z"/>
						<path class="st51" d="M134.3,41.8H91.9c-2.1,0-3.7,1.2-3.7,2.6v11.4c0,1.5,1.7,2.6,3.7,2.6h42.4c2.1,0,3.7-1.2,3.7-2.6V44.4
							C138,43,136.4,41.8,134.3,41.8z M133.8,54.1c0,1.1-1.3,2-2.9,2H95.3c-1.6,0-2.9-0.9-2.9-2v-8c0-1.1,1.3-2,2.9-2h35.6
							c1.6,0,2.9,0.9,2.9,2L133.8,54.1L133.8,54.1z"/>
					</g>
					<g>
						<g>
							<g>
								<g>
									<line class="st52" x1="88.1" y1="77.2" x2="90.5" y2="77.2"/>
									<line class="st53" x1="95.5" y1="77.2" x2="142.9" y2="77.2"/>
									<line class="st52" x1="145.4" y1="77.2" x2="147.8" y2="77.2"/>
								</g>
							</g>
							<line class="st54" x1="71.5" y1="118.9" x2="154.7" y2="118.9"/>
							<line class="st54" x1="71.5" y1="67.1" x2="154.7" y2="67.1"/>
							<rect x="75.1" y="73" class="st55" width="8.4" height="8.4"/>
							<g>
								<g>
									<line class="st52" x1="88.1" y1="92.2" x2="90.5" y2="92.2"/>
									<line class="st53" x1="95.5" y1="92.2" x2="142.9" y2="92.2"/>
									<line class="st52" x1="145.4" y1="92.2" x2="147.8" y2="92.2"/>
								</g>
							</g>
							<g>
								<g>
									<line class="st52" x1="88.1" y1="107.1" x2="90.5" y2="107.1"/>
									<line class="st53" x1="95.5" y1="107.1" x2="142.9" y2="107.1"/>
									<line class="st52" x1="145.4" y1="107.1" x2="147.8" y2="107.1"/>
								</g>
							</g>
							<rect x="75.1" y="87.9" class="st55" width="8.4" height="8.4"/>
							<rect x="75.1" y="102.9" class="st55" width="8.4" height="8.4"/>
						</g>
						<g>
							<g>
								<g>
									<g>
										<line class="st56" x1="88.1" y1="129" x2="90.5" y2="129"/>
										<line class="st57" x1="95" y1="129" x2="146.5" y2="129"/>
										<line class="st56" x1="148.7" y1="129" x2="151.1" y2="129"/>
									</g>
								</g>
								<g>
									<g>
										<line class="st56" x1="88.1" y1="133.3" x2="90.5" y2="133.3"/>
										<line class="st57" x1="95" y1="133.3" x2="146.5" y2="133.3"/>
										<line class="st56" x1="148.7" y1="133.3" x2="151.1" y2="133.3"/>
									</g>
								</g>
							</g>
							<rect x="75.1" y="126.9" class="st55" width="8.4" height="8.4"/>
							<g>
								<g>
									<g>
										<line class="st56" x1="88.1" y1="147.1" x2="90.5" y2="147.1"/>
										<line class="st57" x1="95" y1="147.1" x2="146.5" y2="147.1"/>
										<line class="st56" x1="148.7" y1="147.1" x2="151.1" y2="147.1"/>
									</g>
								</g>
								<g>
									<g>
										<line class="st56" x1="88.1" y1="151.4" x2="90.5" y2="151.4"/>
										<line class="st57" x1="95" y1="151.4" x2="146.5" y2="151.4"/>
										<line class="st56" x1="148.7" y1="151.4" x2="151.1" y2="151.4"/>
									</g>
								</g>
							</g>
							<rect x="75.1" y="145" class="st55" width="8.4" height="8.4"/>
							<g>
								<g>
									<g>
										<line class="st56" x1="88.1" y1="165.2" x2="90.5" y2="165.2"/>
										<line class="st57" x1="95" y1="165.2" x2="146.5" y2="165.2"/>
										<line class="st56" x1="148.7" y1="165.2" x2="151.1" y2="165.2"/>
									</g>
								</g>
								<g>
									<g>
										<line class="st56" x1="88.1" y1="169.4" x2="90.5" y2="169.4"/>
										<line class="st57" x1="95" y1="169.4" x2="146.5" y2="169.4"/>
										<line class="st56" x1="148.7" y1="169.4" x2="151.1" y2="169.4"/>
									</g>
								</g>
							</g>
							<rect x="75.1" y="163.1" class="st55" width="8.4" height="8.4"/>
						</g>
					</g>
				</g>
				<g>
					
						<ellipse transform="matrix(7.088900e-02 -0.9975 0.9975 7.088900e-02 -21.0981 307.7693)" class="st6" cx="154.7" cy="165.2" rx="29.5" ry="29.5"/>
					<g>
						<g>
							<path class="st5" d="M152.1,185.6c-0.7-0.7-1.1-1.6-1.1-2.6c0-1,0.4-1.8,1.1-2.5s1.6-1.1,2.5-1.1c1,0,1.9,0.4,2.6,1.1
								c0.7,0.7,1.1,1.6,1.1,2.5c0,1-0.4,1.9-1.1,2.6c-0.7,0.7-1.6,1.1-2.6,1.1C153.7,186.6,152.8,186.3,152.1,185.6z M153.1,174.2
								c-0.4-0.3-0.6-0.8-0.6-1.3l-1.1-19.9v-6c0-0.9,0.3-1.6,0.9-2.3c0.6-0.6,1.4-0.9,2.3-0.9s1.6,0.3,2.2,0.9
								c0.6,0.6,0.9,1.4,0.9,2.3v6l-1.1,19.9c0,0.6-0.2,1-0.6,1.3s-0.9,0.5-1.4,0.5C154,174.7,153.5,174.6,153.1,174.2z"/>
						</g>
					</g>
				</g>
			</g>
		</g>
	</g>
</g>
<g id="圖層_2">
	<path class="st2" d="M156.4,42.4l67.1,61.8C218.2,47.8,170.8,3.7,113.1,3.7C51.8,3.7,2.2,53.3,2.2,114.6
		c0,59.8,47.3,108.6,106.6,110.8l-46-50.3L156.4,42.4z"/>
	<path class="st4" d="M225,114.6c0-3.5-0.2-7-0.5-10.5l-45.7-58.8L50.2,191.7l59.6,33.7c1.4,0.1,2.9,0.1,4.3,0.1
		C175.4,225.5,225,175.9,225,114.6z"/>
	<g>
		<path class="st6" d="M50.2,186.3c0,3.4,2.7,6.1,6.1,6.1h121.2c3.4,0,6.1-2.7,6.1-6.1V76.9H50.2V186.3z"/>
		<path class="st5" d="M177.5,42.2H56.3c-3.4,0-6.1,2.7-6.1,6.1v28.6h133.4V48.4C183.6,45,180.9,42.2,177.5,42.2z"/>
		<g>
			<g>
				<circle class="st51" cx="87.3" cy="60.4" r="7"/>
				<g>
					<path class="st6" d="M85.8,56.7L85.8,56.7c-2,0-3.7-1.6-3.7-3.7V37.8c0-1.8,1.2-3.4,2.9-3.7c2.3-0.5,4.4,1.3,4.4,3.6v4.6h6.2
						V38c0-5.2-3.9-9.8-9.2-10.2C80.7,27.4,76,32,76,37.6v15.1c0,5.1,3.8,9.6,8.9,10.1c0.5,0.1,1.1,0.1,1.6,0
						c3.9-0.3,3.6-6.2-0.3-6.2H85.8L85.8,56.7z"/>
				</g>
			</g>
			<g>
				<circle class="st51" cx="143.3" cy="60.4" r="7"/>
				<g>
					<path class="st6" d="M141.8,56.7L141.8,56.7c-2,0-3.7-1.6-3.7-3.7V37.8c0-1.8,1.2-3.4,2.9-3.7c2.3-0.5,4.4,1.3,4.4,3.6v4.6h6.2
						V38c0-5.2-3.9-9.8-9.2-10.2c-5.7-0.4-10.5,4.2-10.5,9.8v15.1c0,5.1,3.8,9.6,8.9,10.1c0.5,0.1,1.1,0.1,1.6,0
						c3.9-0.3,3.6-6.2-0.3-6.2H141.8L141.8,56.7z"/>
				</g>
			</g>
		</g>
		<g>
			<g>
				<rect x="70.3" y="93.5" class="st66" width="20" height="20"/>
				<rect x="70.3" y="122.9" class="st66" width="20" height="20"/>
				<rect x="70.3" y="152.2" class="st66" width="20" height="20"/>
			</g>
			<g>
				<rect x="104.1" y="93.5" class="st67" width="20" height="20"/>
				<rect x="104.1" y="122.9" class="st66" width="20" height="20"/>
				<rect x="104.1" y="152.2" class="st66" width="20" height="20"/>
			</g>
			<g>
				<rect x="138" y="93.5" class="st67" width="20" height="20"/>
				<rect x="138" y="122.9" class="st67" width="20" height="20"/>
				<rect x="138" y="152.2" class="st66" width="20" height="20"/>
			</g>
		</g>
	</g>
</g>
</svg>
