<?xml version="1.0" encoding="utf-8"?>
<!-- Generator: Adobe Illustrator 23.0.3, SVG Export Plug-In . SVG Version: 6.00 Build 0)  -->
<svg version="1.1" xmlns="http://www.w3.org/2000/svg" xmlns:xlink="http://www.w3.org/1999/xlink" x="0px" y="0px"
	 viewBox="0 0 116.17 115.66" style="enable-background:new 0 0 116.17 115.66;" xml:space="preserve">
<style type="text/css">
	.st0{display:none;}
	.st1{display:inline;fill:#74B3B1;}
	.st2{display:inline;}
	.st3{fill:#238E99;}
	.st4{fill:#F7ECE2;}
	.st5{fill:#74B3B1;}
	.st6{display:inline;fill:#F7ECE2;}
	.st7{fill:#F7ECE2;stroke:#238E99;stroke-miterlimit:10;}
	.st8{fill:#F7ECE2;stroke:#238E99;stroke-width:0.8901;stroke-miterlimit:10;}
	.st9{fill:#F7ECE2;stroke:#238E99;stroke-width:0.5501;stroke-miterlimit:10;}
	.st10{fill:#F7ECE2;stroke:#238E99;stroke-width:3.2497;stroke-miterlimit:10;}
	.st11{fill:#F7ECE2;stroke:#238E99;stroke-width:3.7789;stroke-miterlimit:10;}
	.st12{fill:#F7ECE2;stroke:#238E99;stroke-width:1.1545;stroke-miterlimit:10;}
	.st13{fill:#F7ECE2;stroke:#F7ECE2;stroke-width:0.587;stroke-miterlimit:10;}
	.st14{fill:#F6ECE3;}
	.st15{fill:#F0C685;}
	.st16{fill:none;stroke:#F0C685;stroke-width:3.8206;stroke-miterlimit:10;}
	.st17{fill:none;stroke:#F7ECE2;stroke-width:2.5385;stroke-miterlimit:10;}
	.st18{fill:none;stroke:#1CA797;stroke-width:3.5318;stroke-miterlimit:10;}
	.st19{fill:#F7ECE2;stroke:#74B3B1;stroke-width:0.8901;stroke-miterlimit:10;}
	.st20{fill:#F7ECE2;stroke:#74B3B1;stroke-width:0.5501;stroke-miterlimit:10;}
	.st21{fill:#F7ECE2;stroke:#74B3B1;stroke-miterlimit:10;}
	.st22{fill:#1CA797;}
	.st23{fill:none;stroke:#F0C685;stroke-width:2.4236;stroke-miterlimit:10;}
	.st24{fill:none;stroke:#F7ECE2;stroke-width:3.9135;stroke-miterlimit:10;}
	.st25{fill:#EFC9BF;}
</style>
<g id="圖層_2" class="st0">
	<circle class="st1" cx="106.6" cy="-253.66" r="102.26"/>
</g>
<g id="圖層_17" class="st0">
	<g class="st2">
		<g>
			<g>
				<path class="st3" d="M412.58-85.35l4.18-1.45l-0.55-3.12l-0.03-0.18l-0.55-3.12l-4.24,0.07c-0.4-0.91-0.88-1.77-1.43-2.58
					l2.12-3.54l-2.43-2.04l-0.14-0.12l-2.43-2.04l-3.02,2.61c-0.94-0.47-1.94-0.84-2.98-1.11l-0.62-3.85h-3.17h-0.18h-3.17
					l-0.62,3.85c-1.06,0.27-2.07,0.66-3.02,1.14l-2.94-2.54l-2.43,2.04l-0.14,0.12l-2.43,2.04l2.07,3.46
					c-0.58,0.85-1.08,1.75-1.48,2.7l-4.06-0.06l-0.55,3.12l-0.03,0.18l-0.55,3.12l4.07,1.41c0.11,0.94,0.3,1.86,0.57,2.75
					l-3.37,2.74l1.58,2.74l0.09,0.16l1.58,2.74l4.3-1.64c0.61,0.58,1.27,1.11,1.98,1.58l-0.87,4.53l2.98,1.08l0.17,0.06l2.98,1.08
					l2.32-4.17c0.35,0.02,0.69,0.04,1.05,0.04c0.45,0,0.9-0.02,1.34-0.06l2.31,4.14l2.98-1.08l0.17-0.06l2.98-1.08l-0.9-4.66
					c0.67-0.47,1.29-0.99,1.88-1.55l4.36,1.66l1.58-2.74l0.09-0.16l1.58-2.74l-3.52-2.86C412.31-83.59,412.49-84.46,412.58-85.35z
					 M403.76-87c0,3.61-2.93,6.54-6.54,6.54c-3.61,0-6.54-2.93-6.54-6.54c0-3.61,2.93-6.54,6.54-6.54
					C400.83-93.54,403.76-90.61,403.76-87z"/>
				<g>
					<circle class="st3" cx="397.28" cy="-86.61" r="11.81"/>
				</g>
				<circle class="st3" cx="397.28" cy="-86.61" r="7.85"/>
			</g>
		</g>
		<g>
			<path class="st4" d="M411-85.48l3.75-1.3l-0.49-2.8l-0.03-0.16l-0.49-2.8l-3.8,0.06c-0.35-0.82-0.78-1.59-1.28-2.32l1.9-3.17
				l-2.18-1.83l-0.12-0.1l-2.18-1.83l-2.7,2.34c-0.85-0.42-1.74-0.76-2.67-1l-0.55-3.45h-2.84h-0.16h-2.84l-0.55,3.45
				c-0.95,0.24-1.85,0.59-2.71,1.02l-2.63-2.28l-2.18,1.83l-0.12,0.1l-2.18,1.83l1.86,3.1c-0.52,0.76-0.97,1.57-1.33,2.42
				l-3.64-0.06l-0.49,2.8l-0.03,0.16l-0.49,2.8l3.65,1.27c0.1,0.85,0.27,1.67,0.51,2.46l-3.02,2.46l1.42,2.46l0.08,0.14l1.42,2.46
				l3.86-1.47c0.55,0.52,1.14,1,1.77,1.42l-0.78,4.06l2.67,0.97l0.15,0.06l2.67,0.97l2.08-3.74c0.31,0.02,0.62,0.04,0.94,0.04
				c0.4,0,0.8-0.02,1.2-0.06l2.07,3.72l2.67-0.97l0.15-0.06l2.67-0.97l-0.8-4.18c0.6-0.42,1.16-0.89,1.68-1.39l3.91,1.49l1.42-2.46
				l0.08-0.14l1.42-2.46l-3.15-2.56C410.76-83.9,410.91-84.68,411-85.48z M403.09-86.96c0,3.24-2.62,5.86-5.86,5.86
				c-3.24,0-5.86-2.62-5.86-5.86c0-3.24,2.62-5.86,5.86-5.86C400.46-92.82,403.09-90.2,403.09-86.96z"/>
			<circle class="st3" cx="397.28" cy="-86.61" r="10.58"/>
			<circle class="st4" cx="397.28" cy="-86.61" r="7.03"/>
		</g>
	</g>
	<g class="st2">
		<path class="st4" d="M530.05-60.16l6.84-2.37l-0.9-5.11l-0.05-0.29l-0.9-5.11l-6.93,0.11c-0.65-1.49-1.43-2.9-2.34-4.23l3.46-5.79
			l-3.97-3.33l-0.23-0.19l-3.97-3.33l-4.94,4.27c-1.54-0.76-3.17-1.38-4.87-1.82l-1.01-6.31h-5.18h-0.29h-5.18l-1.01,6.31
			c-1.73,0.45-3.38,1.08-4.95,1.86l-4.81-4.16l-3.97,3.33l-0.23,0.19l-3.97,3.33l3.39,5.66c-0.95,1.38-1.76,2.86-2.42,4.42
			l-6.64-0.1l-0.9,5.11l-0.05,0.29l-0.9,5.11l6.67,2.31c0.17,1.55,0.49,3.05,0.93,4.5l-5.52,4.49l2.59,4.49l0.15,0.25l2.59,4.49
			l7.04-2.69c1.01,0.95,2.08,1.82,3.23,2.59l-1.43,7.42l4.87,1.77l0.28,0.1l4.87,1.77l3.8-6.83c0.57,0.04,1.14,0.06,1.71,0.06
			c0.74,0,1.47-0.04,2.19-0.1l3.78,6.78l4.87-1.77l0.28-0.1l4.87-1.77l-1.47-7.63c1.09-0.77,2.12-1.62,3.07-2.54l7.14,2.72
			l2.59-4.49l0.15-0.25l2.59-4.49l-5.76-4.68C529.61-57.27,529.89-58.7,530.05-60.16z M515.6-62.86c0,5.91-4.79,10.7-10.7,10.7
			s-10.7-4.79-10.7-10.7c0-5.91,4.79-10.7,10.7-10.7S515.6-68.76,515.6-62.86z"/>
		<circle class="st5" cx="505" cy="-62.23" r="19.32"/>
		<circle class="st4" cx="505" cy="-62.23" r="12.84"/>
	</g>
	<path class="st6" d="M461.54-254.41c0-8.81-4-16.68-10.27-21.9c-1.18-0.98-2.97-0.13-2.97,1.41v17.52l-15.27,11.04l-15.27-11.04
		v-17.53c0-1.52-1.78-2.38-2.95-1.41c-6.4,5.32-10.43,13.38-10.29,22.38c0.18,11.32,7.16,21.23,17.06,25.63v94.53c0,0,0,0,0,0
		s0,0,0,0v0.51c0,0.12,0.02,0.24,0.04,0.36c0.44,6,5.37,10.74,11.4,10.74s10.96-4.73,11.4-10.74c0.02-0.12,0.04-0.24,0.04-0.36
		v-0.51c0,0,0,0,0,0s0,0,0,0v-94.51C454.53-232.7,461.54-242.73,461.54-254.41z M433.03-126.76c-4.09,0-7.4-3.32-7.4-7.4
		c0-4.09,3.32-7.4,7.4-7.4s7.4,3.32,7.4,7.4C440.44-130.08,437.12-126.76,433.03-126.76z"/>
	<g class="st2">
		<g>
			<path class="st4" d="M515.47-183.15c0-4.46-3.73-8.07-8.32-8.07h-15.22c-4.6,0-8.32,3.61-8.32,8.07v43.87
				c0,0.35,0.03,0.69,0.07,1.02c-0.04,0.49-0.07,0.98-0.07,1.48c0,8.85,7.13,16.03,15.93,16.03c8.8,0,15.93-7.17,15.93-16.03
				c0-0.5-0.03-0.99-0.07-1.48c0.04-0.34,0.07-0.68,0.07-1.02V-183.15z"/>
			<g>
				<path class="st3" d="M493.36-135.3L493.36-135.3c-1.25,0-2.26-1.01-2.26-2.26v-43.21c0-1.25,1.01-2.26,2.26-2.26l0,0
					c1.25,0,2.26,1.01,2.26,2.26v43.21C495.62-136.32,494.61-135.3,493.36-135.3z"/>
				<path class="st3" d="M505.72-135.3L505.72-135.3c-1.25,0-2.26-1.01-2.26-2.26v-43.21c0-1.25,1.01-2.26,2.26-2.26l0,0
					c1.25,0,2.26,1.01,2.26,2.26v43.21C507.98-136.32,506.97-135.3,505.72-135.3z"/>
			</g>
			<path class="st4" d="M512.12-192.81h-25.16c-1.49,0-2.71-1.22-2.71-2.71v-0.15c0-1.49,1.22-2.71,2.71-2.71h25.16
				c1.49,0,2.71,1.22,2.71,2.71v0.15C514.83-194.03,513.61-192.81,512.12-192.81z"/>
		</g>
		<path class="st7" d="M504.96-267.42l-2.1-8.54c-0.15-0.62-0.71-1.05-1.35-1.05h-2.73c-0.64,0-1.19,0.44-1.35,1.05l-2.1,8.54
			c-0.06,0.24-0.05,0.48,0.01,0.72l1.71,5.88v57.7c0,1.7,1.39,3.09,3.09,3.09h0c1.7,0,3.09-1.39,3.09-3.09v-57.7l1.71-5.88
			C505.01-266.94,505.02-267.19,504.96-267.42z"/>
	</g>
	<g class="st2">
		<g>
			<path class="st8" d="M445.81-9.1c1.85-1.85,1.98-4.71,0.31-6.38l-5.56-5.56c-1.68-1.68-4.54-1.54-6.38,0.31L415.99-2.55
				c-0.14,0.14-0.27,0.3-0.4,0.45c-0.22,0.19-0.43,0.38-0.64,0.59c-3.67,3.67-4.04,9.25-0.83,12.46c3.21,3.21,8.79,2.84,12.46-0.83
				c0.21-0.21,0.4-0.42,0.59-0.64c0.16-0.12,0.31-0.25,0.45-0.4L445.81-9.1z"/>
			<g>
				<path class="st3" d="M417.91,2.67l-0.02-0.02c-0.45-0.45-0.45-1.18,0-1.63l18.16-18.16c0.45-0.45,1.18-0.45,1.63,0l0.02,0.02
					c0.45,0.45,0.45,1.18,0,1.63L419.54,2.67C419.09,3.12,418.36,3.12,417.91,2.67z"/>
				<path class="st3" d="M422.43,7.18l-0.02-0.02c-0.45-0.45-0.45-1.18,0-1.63l18.16-18.16c0.45-0.45,1.18-0.45,1.63,0l0.02,0.02
					c0.45,0.45,0.45,1.18,0,1.63L424.06,7.18C423.61,7.63,422.88,7.63,422.43,7.18z"/>
			</g>
			<path class="st8" d="M448.52-14.41l-9.04-9.04c-0.58-0.58-0.58-1.54,0-2.12l0.19-0.19c0.58-0.58,1.54-0.58,2.12,0l9.04,9.04
				c0.58,0.58,0.58,1.54,0,2.12l-0.19,0.19C450.06-13.82,449.1-13.82,448.52-14.41z"/>
			<path class="st9" d="M476.9-47.87l2.77-4.31c0.2-0.31,0.18-0.7-0.05-0.93l-1-1c-0.23-0.23-0.62-0.26-0.93-0.05l-4.31,2.77
				c-0.12,0.08-0.22,0.18-0.29,0.3l-1.81,3.06l-23.92,23.92c-0.7,0.7-0.77,1.79-0.15,2.41l0,0c0.62,0.62,1.7,0.55,2.41-0.15
				l23.92-23.92l3.06-1.81C476.72-47.65,476.83-47.75,476.9-47.87z"/>
		</g>
		<path class="st7" d="M438.7-50.95c-3.41-3.41-8.01-4.91-12.46-4.51c-0.84,0.08-1.2,1.1-0.61,1.7l6.79,6.79l-1.64,10.19
			l-10.19,1.64l-6.79-6.79c-0.59-0.59-1.61-0.23-1.69,0.6c-0.42,4.54,1.14,9.22,4.68,12.66c4.46,4.32,11,5.45,16.54,3.32
			l36.62,36.62c0,0,0,0,0,0c0,0,0,0,0,0l0.2,0.2c0.05,0.05,0.1,0.09,0.16,0.12c2.5,2.15,6.24,2.08,8.58-0.26s2.41-6.08,0.26-8.58
			c-0.04-0.05-0.08-0.11-0.12-0.16l-0.2-0.2c0,0,0,0,0,0c0,0,0,0,0,0l-36.61-36.61C444.39-39.83,443.22-46.43,438.7-50.95z
			 M477.1,9.54c-1.58,1.58-4.15,1.58-5.74,0c-1.58-1.58-1.58-4.15,0-5.74c1.58-1.58,4.15-1.58,5.74,0
			C478.69,5.38,478.69,7.95,477.1,9.54z"/>
	</g>
	<g class="st2">
		<path class="st10" d="M436.54,97.44v-1.76c0-8.29,5.03-15.07,11.17-15.07h10.02c6.14,0,11.17,6.78,11.17,15.07v1.76"/>
		<circle class="st11" cx="452.72" cy="74.39" r="11.1"/>
	</g>
	<g class="st2">
		<path class="st4" d="M436.52,73.13c5.7-4.6,9.36-11.64,9.36-19.53c0-13.85-11.23-25.08-25.08-25.08
			c-13.85,0-25.08,11.23-25.08,25.08s11.23,25.08,25.08,25.08c3.27,0,6.4-0.63,9.27-1.78l9.33,3.71L436.52,73.13z"/>
		<g>
			<path class="st3" d="M417.41,39.5c0.51-0.62,0.97-0.92,1.37-0.92h3.34c0.43,0,0.98,0.34,1.65,1.01c0.32,0.35,0.48,0.72,0.48,1.13
				v8.44c-0.7,3.3-1.34,6.6-1.93,9.89c-0.13,0.62-0.4,0.92-0.8,0.92h-1.69c-0.43,0-0.71-0.2-0.84-0.6l-1.93-9.89
				c-0.08-0.21-0.12-0.52-0.12-0.92v-7.84C416.92,40.3,417.08,39.9,417.41,39.5z M418.05,61.9c0.43-0.43,0.84-0.64,1.25-0.64h3.02
				c0.43,0,0.84,0.19,1.25,0.56c0.7,0.7,1.05,1.25,1.05,1.65v2.9c0.24,0.4-0.13,0.95-1.13,1.65c-0.43,0.4-0.84,0.6-1.25,0.6h-2.94
				c-0.4,0-0.82-0.2-1.25-0.6c-0.83-0.62-1.15-1.15-0.97-1.61v-2.94C416.84,63.12,417.16,62.6,418.05,61.9z"/>
		</g>
	</g>
	<g class="st2">
		<path class="st12" d="M624.79-202.09l-22.78-22.78h-62.53c-5.19,0-9.43,4.24-9.43,9.43v100.97c0,5.19,4.24,9.43,9.43,9.43h76.62
			c5.19,0,9.43-4.24,9.43-9.43v-86.95C625.28-201.64,625.03-201.86,624.79-202.09z"/>
		<path class="st3" d="M625.98-200.61h-20.23c-2.07,0-3.74-1.67-3.74-3.74v-21.09"/>
	</g>
	<circle class="st1" cx="463.3" cy="244.08" r="56.02"/>
	<g class="st2">
		<path class="st13" d="M478.73,223.62l-11.58-11.58h-31.79c-2.64,0-4.8,2.16-4.8,4.8v51.34c0,2.64,2.16,4.8,4.8,4.8h38.96
			c2.64,0,4.8-2.16,4.8-4.8v-44.21C478.98,223.85,478.85,223.74,478.73,223.62z"/>
		<path class="st5" d="M478.81,224h-10.16c-1.44-0.47-1.42-1.36-1.44-2.35l0.06-9.24"/>
		<g>
			<path class="st5" d="M463.48,224.52h-5.2v-5.2c0-0.99-0.81-1.8-1.8-1.8h-3.29c-0.99,0-1.8,0.81-1.8,1.8v5.2h-5.2
				c-0.99,0-1.8,0.81-1.8,1.8v3.29c0,0.99,0.81,1.8,1.8,1.8h5.2v5.2c0,0.99,0.81,1.8,1.8,1.8h3.29c0.99,0,1.8-0.81,1.8-1.8v-5.2h5.2
				c0.99,0,1.8-0.81,1.8-1.8v-3.29C465.28,225.33,464.47,224.52,463.48,224.52z"/>
			<path class="st5" d="M470.53,248.84h-31.38c-1.02,0-1.85-0.83-1.85-1.85l0,0c0-1.02,0.83-1.85,1.85-1.85h31.38
				c1.02,0,1.85,0.83,1.85,1.85l0,0C472.38,248,471.54,248.84,470.53,248.84z"/>
			<path class="st5" d="M470.53,256.67h-31.38c-1.02,0-1.85-0.83-1.85-1.85l0,0c0-1.02,0.83-1.85,1.85-1.85h31.38
				c1.02,0,1.85,0.83,1.85,1.85l0,0C472.38,255.83,471.54,256.67,470.53,256.67z"/>
			<path class="st5" d="M470.53,264.5h-31.38c-1.02,0-1.85-0.83-1.85-1.85l0,0c0-1.02,0.83-1.85,1.85-1.85h31.38
				c1.02,0,1.85,0.83,1.85,1.85l0,0C472.38,263.67,471.54,264.5,470.53,264.5z"/>
		</g>
	</g>
	<g class="st2">
		<path class="st4" d="M490.86,269.55c-1.75,2.05-4.42,3.36-7.4,3.36c-2.98,0-5.65-1.31-7.4-3.36c-3.79,1.67-6.55,6.32-6.55,11.76
			v1.45h27.89v-1.45C497.41,275.86,494.66,271.22,490.86,269.55z"/>
		<ellipse class="st4" cx="483.46" cy="262.69" rx="8.23" ry="7.87"/>
	</g>
	<g class="st2">
		<g>
			<path class="st4" d="M632.59-367.67c-20.12,0-36.43,15.26-36.43,34.08c0,8.85,6.27,22.1,15.79,32.61
				c6.36,7.03,6.84,13.11,8.15,17.43c0.46,1.51,1.94,2.55,3.63,2.55h9.29h0.42h8.48c1.75,0,3.28-1.12,3.67-2.71
				c1.04-4.31,1.36-10.33,7.64-17.27c9.51-10.51,15.79-23.76,15.79-32.61C669.02-352.41,652.71-367.67,632.59-367.67z"/>
			<path class="st4" d="M643.55-277.31h-10.2h-0.33h-10.2c-2.09,0-3.68,1.72-3.33,3.61l1.04,5.49c0.28,1.48,1.68,2.56,3.33,2.56
				h0.22c0,0.03,0,0.07,0.01,0.1l0.69,3.65c0.19,0.98,1.12,1.7,2.21,1.7h6.08h0.22h6.08c1.09,0,2.02-0.72,2.21-1.7l0.69-3.65
				c0.01-0.03,0-0.07,0.01-0.1h0.22c1.64,0,3.05-1.08,3.33-2.56l1.04-5.49C647.23-275.59,645.64-277.31,643.55-277.31z"/>
		</g>
		<path class="st4" d="M632.19-391.37h-0.56c-1.67,0-3.04-1.37-3.04-3.04v-20.47c0-1.67,1.37-3.04,3.04-3.04h0.56
			c1.67,0,3.04,1.37,3.04,3.04v20.47C635.23-392.74,633.87-391.37,632.19-391.37z"/>
		<path class="st4" d="M593.96-374.92l-0.4,0.4c-1.18,1.18-3.12,1.18-4.3,0L574.79-389c-1.18-1.18-1.18-3.12,0-4.3l0.4-0.4
			c1.18-1.18,3.12-1.18,4.3,0l14.48,14.48C595.14-378.04,595.14-376.1,593.96-374.92z"/>
		<path class="st4" d="M578.55-336.25v0.56c0,1.67-1.37,3.04-3.04,3.04h-20.47c-1.67,0-3.04-1.37-3.04-3.04v-0.56
			c0-1.67,1.37-3.04,3.04-3.04h20.47C577.19-339.29,578.55-337.92,578.55-336.25z"/>
		<path class="st4" d="M595.01-298.01l0.4,0.4c1.18,1.18,1.18,3.12,0,4.3l-14.48,14.48c-1.18,1.18-3.12,1.18-4.3,0l-0.4-0.4
			c-1.18-1.18-1.18-3.12,0-4.3l14.48-14.48C591.89-299.19,593.82-299.19,595.01-298.01z"/>
		<path class="st4" d="M671.92-299.06l0.4-0.4c1.18-1.18,3.12-1.18,4.3,0l14.48,14.48c1.18,1.18,1.18,3.12,0,4.3l-0.4,0.4
			c-1.18,1.18-3.12,1.18-4.3,0l-14.48-14.48C670.73-295.94,670.73-297.88,671.92-299.06z"/>
		<path class="st4" d="M687.32-337.73v-0.56c0-1.67,1.37-3.04,3.04-3.04h20.47c1.67,0,3.04,1.37,3.04,3.04v0.56
			c0,1.67-1.37,3.04-3.04,3.04h-20.47C688.69-334.69,687.32-336.06,687.32-337.73z"/>
		<path class="st4" d="M670.87-375.97l-0.4-0.4c-1.18-1.18-1.18-3.12,0-4.3l14.48-14.48c1.18-1.18,3.12-1.18,4.3,0l0.4,0.4
			c1.18,1.18,1.18,3.12,0,4.3l-14.48,14.48C673.98-374.79,672.05-374.79,670.87-375.97z"/>
	</g>
	<g class="st2">
		<path class="st4" d="M637.06,30.69h-46.13c-24.15,11.68-41.3,39.8-41.3,62.44c0,29.36,28.81,53.17,64.36,53.17
			s64.36-23.8,64.36-53.17C678.35,70.48,661.21,42.37,637.06,30.69z"/>
		<path class="st14" d="M638.03,28.14h-48.07c-3.39,0-6.15-2.77-6.15-6.15v0c0-3.39,2.77-6.15,6.15-6.15h48.07
			c3.39,0,6.15,2.77,6.15,6.15v0C644.18,25.37,641.42,28.14,638.03,28.14z"/>
		<g>
			<path class="st14" d="M613.91-16.43h-12.85c-4.03,0-7.1,3.17-6.45,6.67l3.4,18.11c0.52,2.77,3.25,4.8,6.45,4.8h9.45h9.45
				c3.2,0,5.93-2.03,6.45-4.8l3.4-18.11c0.66-3.49-2.41-6.67-6.45-6.67H613.91z"/>
			<path class="st14" d="M577.17-8.61l6.14,17.19c0.94,2.63,5.86,4.56,11.63,4.56h7.6c-3.2,0-5.93-2.03-6.45-4.8l-3.4-18.11
				c-0.38-2.01,0.49-3.92,2.06-5.17h-5.95C581.53-14.94,575.99-11.92,577.17-8.61z"/>
			<path class="st14" d="M639.18-14.94h-5.95c1.57,1.25,2.44,3.16,2.06,5.17l-3.4,18.11c-0.52,2.77-3.25,4.8-6.45,4.8h7.6
				c5.77,0,10.69-1.93,11.63-4.56l6.14-17.19C652-11.92,646.46-14.94,639.18-14.94z"/>
		</g>
	</g>
	<g class="st2">
		<circle class="st15" cx="614.54" cy="93.98" r="32.36"/>
		<g>
			<path class="st4" d="M612.7,72.73c0-0.48,0.24-0.72,0.72-0.72h3.5c0.54,0,0.81,0.24,0.81,0.72v3.21c0,0.35,0.24,0.59,0.72,0.72
				c2.2,0.42,4.17,1.25,5.89,2.49c1.88,1.44,3.19,3.37,3.93,5.8c0.45,1.37,0.26,1.96-0.57,1.77h-7.43c-0.48,0-0.77-0.24-0.86-0.72
				c0.06-0.57-0.3-1.13-1.1-1.68c-0.51-0.26-0.7-0.08-0.57,0.53v4.74c0,0.38,0.24,0.69,0.72,0.91c6.29,2.59,9.73,6.07,10.3,10.44
				v1.92c-0.26,2.27-1.33,4.22-3.21,5.84c-1.79,1.37-4.22,2.32-7.28,2.83c-0.35,0.13-0.53,0.38-0.53,0.77v2.87
				c0,0.51-0.26,0.77-0.77,0.77h-3.5c-0.51,0-0.77-0.24-0.77-0.72v-2.92c0-0.38-0.26-0.64-0.77-0.77c-1.95-0.22-3.91-0.94-5.89-2.16
				c-3.07-1.95-4.97-4.69-5.7-8.24c-0.06-0.67,0.14-1.01,0.62-1.01h8.05c0.51,0,0.77,0.26,0.77,0.77c0.19,1.12,0.77,2.09,1.72,2.92
				c0.96,0.83,1.36,0.85,1.2,0.05V97.5c0.06-0.51-0.43-0.96-1.49-1.34l-2.97-1.58c-3.83-1.88-6.1-4.49-6.8-7.81V84.8
				c0.54-3.23,2.71-5.72,6.52-7.47c1.21-0.45,2.44-0.73,3.69-0.86c0.7-0.13,1.05-0.37,1.05-0.72V72.73z M612.7,84.61
				c0.16-0.73-0.34-0.73-1.49,0c-1.02,1.18-0.72,2.28,0.91,3.31c0.38,0.19,0.57,0.1,0.57-0.29V84.61z M617.78,99.08l-0.05,0.62v3.98
				c-0.13,0.74,0.34,0.83,1.39,0.29c1.15-0.99,1.39-2.06,0.72-3.21C619.32,100.02,618.64,99.46,617.78,99.08z"/>
		</g>
	</g>
	<g class="st2">
		<circle class="st16" cx="618.11" cy="251.23" r="46.38"/>
		<g>
			<circle class="st15" cx="618.11" cy="251.23" r="38.06"/>
			<g>
				<path class="st4" d="M615.94,226.25c0-0.56,0.28-0.85,0.85-0.85h4.11c0.64,0,0.96,0.28,0.96,0.85v3.77
					c0,0.41,0.28,0.7,0.85,0.85c2.59,0.49,4.9,1.46,6.93,2.93c2.22,1.69,3.76,3.96,4.62,6.82c0.53,1.62,0.3,2.31-0.68,2.08h-8.73
					c-0.56,0-0.9-0.28-1.01-0.85c0.07-0.68-0.36-1.33-1.3-1.97c-0.6-0.3-0.83-0.09-0.68,0.62v5.58c0,0.45,0.28,0.81,0.85,1.07
					c7.4,3.04,11.44,7.14,12.11,12.28v2.25c-0.3,2.67-1.56,4.96-3.77,6.87c-2.1,1.61-4.96,2.72-8.56,3.32
					c-0.41,0.15-0.62,0.45-0.62,0.9v3.38c0,0.6-0.3,0.9-0.9,0.9h-4.11c-0.6,0-0.9-0.28-0.9-0.85v-3.44c0-0.45-0.3-0.75-0.9-0.9
					c-2.29-0.26-4.6-1.11-6.93-2.54c-3.61-2.29-5.84-5.52-6.7-9.69c-0.08-0.79,0.17-1.18,0.73-1.18h9.46c0.6,0,0.9,0.3,0.9,0.9
					c0.23,1.32,0.9,2.46,2.03,3.44c1.13,0.98,1.6,1,1.41,0.06v-7.49c0.07-0.6-0.51-1.13-1.75-1.58l-3.49-1.86
					c-4.51-2.22-7.17-5.28-8-9.18v-2.31c0.64-3.79,3.19-6.72,7.66-8.79c1.43-0.53,2.87-0.86,4.34-1.01
					c0.83-0.15,1.24-0.43,1.24-0.85V226.25z M615.94,240.22c0.19-0.86-0.39-0.86-1.75,0c-1.2,1.39-0.85,2.69,1.07,3.89
					c0.45,0.23,0.68,0.11,0.68-0.34V240.22z M621.91,257.23l-0.06,0.73v4.68c-0.15,0.86,0.39,0.98,1.63,0.34
					c1.35-1.16,1.63-2.42,0.85-3.77C623.74,258.34,622.93,257.68,621.91,257.23z"/>
			</g>
		</g>
		<g>
			<path class="st4" d="M618.1,179.29l-45.85,9.21c-2,0.4-2,1.85,0,2.26l45.85,9.21c0.55,0.11,1.17,0.11,1.72,0l45.85-9.21
				c2-0.4,2-1.85,0-2.26l-45.85-9.21C619.26,179.18,618.65,179.18,618.1,179.29z"/>
			<path class="st4" d="M618.1,201.98l-28.87-5.8v16.98h0.01c0.12,3.88,13.38,7.03,29.73,7.03c16.35,0,29.61-3.14,29.73-7.03h0.01
				v-16.98l-28.87,5.8C619.26,202.09,618.65,202.09,618.1,201.98z"/>
			<path class="st4" d="M659.59,207.32h-0.54c-0.88,0-1.59-0.72-1.59-1.59v-13.69c0-0.88,0.72-1.59,1.59-1.59h0.54
				c0.88,0,1.59,0.72,1.59,1.59v13.69C661.18,206.61,660.46,207.32,659.59,207.32z"/>
			<path class="st4" d="M662.47,210.43v-5.45c0-1.27-1.42-2.31-3.16-2.31s-3.16,1.04-3.16,2.31v5.45H662.47z"/>
		</g>
	</g>
	<g class="st2">
		<g>
			<path class="st4" d="M413.53,114.02c0,10.44-7.29,18.91-16.27,18.91s-16.27-8.46-16.27-18.91"/>
			<g>
				<path class="st5" d="M415.04,113.48c0-10.46-7.83-18.94-17.49-18.94c-9.66,0-17.49,8.48-17.49,18.94"/>
				<g>
					<path class="st17" d="M378.76,113.13c0-10.64,8.28-19.27,18.49-19.27s18.49,8.63,18.49,19.27"/>
					<line class="st17" x1="375.39" y1="112.33" x2="380.06" y2="112.33"/>
					<line class="st17" x1="414.37" y1="112.33" x2="419.05" y2="112.33"/>
				</g>
			</g>
		</g>
		<g>
			<path class="st4" d="M407.96,132.18c-2.86,2.89-6.59,4.64-10.67,4.64c-4.1,0-7.84-1.76-10.7-4.66
				c-7.48,1.83-13.07,8.6-13.07,16.63v8.41c0,9.41,7.7,17.11,17.11,17.11h13.17c9.41,0,17.11-7.7,17.11-17.11v-8.41
				C420.92,140.79,415.38,134.04,407.96,132.18z"/>
			<g>
				<line class="st18" x1="397.22" y1="136.17" x2="397.22" y2="174.9"/>
				<path class="st5" d="M391.75,143.64H379.5c-0.57,0-1.03-0.46-1.03-1.03v0c0-0.57,0.46-1.03,1.03-1.03h12.25
					c0.57,0,1.03,0.46,1.03,1.03v0C392.78,143.18,392.32,143.64,391.75,143.64z"/>
				<path class="st5" d="M414.94,143.64h-12.25c-0.57,0-1.03-0.46-1.03-1.03v0c0-0.57,0.46-1.03,1.03-1.03h12.25
					c0.57,0,1.03,0.46,1.03,1.03v0C415.97,143.18,415.51,143.64,414.94,143.64z"/>
			</g>
		</g>
	</g>
	<g class="st2">
		<g>
			<path class="st4" d="M532.89,116.96h-14.8c-1.8,0-3.28-1.47-3.28-3.28V43.46c0-3.57,2.92-6.5,6.5-6.5h8.26
				c3.57,0,6.5,2.92,6.5,6.5v70.33C536.07,115.53,534.64,116.96,532.89,116.96z"/>
			<rect x="514.82" y="48.53" class="st5" width="21.25" height="4.17"/>
			<g>
				<path class="st5" d="M521.8,116.96L521.8,116.96c-0.78,0-1.43-0.64-1.43-1.43V53.45c0-0.78,0.64-1.43,1.43-1.43l0,0
					c0.78,0,1.43,0.64,1.43,1.43v62.09C523.22,116.32,522.58,116.96,521.8,116.96z"/>
				<path class="st5" d="M529.1,116.96L529.1,116.96c-0.78,0-1.43-0.64-1.43-1.43V53.45c0-0.78,0.64-1.43,1.43-1.43l0,0
					c0.78,0,1.43,0.64,1.43,1.43v62.09C530.52,116.32,529.88,116.96,529.1,116.96z"/>
			</g>
		</g>
		<g>
			<path class="st4" d="M527.74,142.36l8.42-19.5c0.71-1.65-0.5-3.48-2.29-3.48h-16.85c-1.79,0-3,1.84-2.29,3.48l8.42,19.5
				C524.02,144.37,526.87,144.37,527.74,142.36z"/>
			<polygon class="st5" points="520.41,136.01 530.48,136.01 531.7,133.2 519.2,133.2 			"/>
		</g>
	</g>
	<g class="st2">
		<g>
			<path class="st4" d="M354.66-703.31h-26.21c-4.03,0-7.32-3.29-7.32-7.32l0,0c0-4.03,3.29-7.32,7.32-7.32h26.21
				c4.03,0,7.32,3.29,7.32,7.32l0,0C361.98-706.61,358.69-703.31,354.66-703.31z"/>
			<path class="st4" d="M380.19-678.29h-77.28c-2.9,0-5.28-2.37-5.28-5.28v-9.53c0-2.9,2.37-5.28,5.28-5.28h77.28
				c2.9,0,5.28,2.37,5.28,5.28v9.53C385.47-680.66,383.1-678.29,380.19-678.29z"/>
		</g>
		<g>
			<path class="st4" d="M354.66-569.08h-26.21c-4.03,0-7.32,3.29-7.32,7.32v0c0,4.03,3.29,7.32,7.32,7.32h26.21
				c4.03,0,7.32-3.29,7.32-7.32v0C361.98-565.79,358.69-569.08,354.66-569.08z"/>
			<path class="st4" d="M380.19-594.1h-77.28c-2.9,0-5.28,2.37-5.28,5.28v9.53c0,2.9,2.37,5.28,5.28,5.28h77.28
				c2.9,0,5.28-2.37,5.28-5.28v-9.53C385.47-591.73,383.1-594.1,380.19-594.1z"/>
		</g>
		<path class="st4" d="M341.56-602.2L341.56-602.2c-3.19,0-5.8-2.61-5.8-5.8v-55.41c0-3.19,2.61-5.8,5.8-5.8l0,0
			c3.19,0,5.8,2.61,5.8,5.8v55.41C347.35-604.81,344.74-602.2,341.56-602.2z"/>
		<path class="st4" d="M360.4-665.83h-37.69c-1.97,0-3.57-1.61-3.57-3.57l0,0c0-1.97,1.61-3.57,3.57-3.57h37.69
			c1.97,0,3.57,1.61,3.57,3.57l0,0C363.98-667.44,362.37-665.83,360.4-665.83z"/>
		<path class="st4" d="M360.4-598.41h-37.69c-1.97,0-3.57-1.61-3.57-3.57l0,0c0-1.97,1.61-3.57,3.57-3.57h37.69
			c1.97,0,3.57,1.61,3.57,3.57l0,0C363.98-600.02,362.37-598.41,360.4-598.41z"/>
	</g>
	<g class="st2">
		<path class="st19" d="M-350.88,105.04l-9.04-9.04c-0.58-0.58-0.58-1.54,0-2.12l0.19-0.19c0.58-0.58,1.54-0.58,2.12,0l9.04,9.04
			c0.58,0.58,0.58,1.54,0,2.12l-0.19,0.19C-349.34,105.63-350.3,105.63-350.88,105.04z"/>
		<g>
			<g>
				<g>
					<path class="st19" d="M-353.59,110.34c1.85-1.85,1.98-4.71,0.31-6.38l-5.56-5.56c-1.68-1.68-4.54-1.54-6.38,0.31l-18.19,18.19
						c-0.14,0.14-0.27,0.3-0.4,0.45c-0.22,0.19-0.43,0.38-0.64,0.59c-3.67,3.67-4.04,9.25-0.83,12.46
						c3.21,3.21,8.79,2.84,12.46-0.83c0.21-0.21,0.4-0.42,0.59-0.64c0.16-0.12,0.31-0.25,0.45-0.4L-353.59,110.34z"/>
					<g>
						<path class="st5" d="M-381.48,122.12l-0.02-0.02c-0.45-0.45-0.45-1.18,0-1.63l18.16-18.16c0.45-0.45,1.18-0.45,1.63,0
							l0.02,0.02c0.45,0.45,0.45,1.18,0,1.63l-18.16,18.16C-380.31,122.57-381.03,122.57-381.48,122.12z"/>
						<path class="st5" d="M-376.97,126.63l-0.02-0.02c-0.45-0.45-0.45-1.18,0-1.63l18.16-18.16c0.45-0.45,1.18-0.45,1.63,0
							l0.02,0.02c0.45,0.45,0.45,1.18,0,1.63l-18.16,18.16C-375.79,127.08-376.52,127.08-376.97,126.63z"/>
					</g>
				</g>
				<path class="st20" d="M-322.49,71.57l2.77-4.31c0.2-0.31,0.18-0.7-0.05-0.93l-1-1c-0.23-0.23-0.62-0.26-0.93-0.05l-4.31,2.77
					c-0.12,0.08-0.22,0.18-0.29,0.3l-1.81,3.06l-23.92,23.92c-0.7,0.7-0.77,1.79-0.15,2.41l0,0c0.62,0.62,1.7,0.55,2.41-0.15
					l23.92-23.92l3.06-1.81C-322.68,71.79-322.57,71.69-322.49,71.57z"/>
			</g>
			<path class="st21" d="M-360.7,68.49c-3.41-3.41-8.01-4.91-12.46-4.51c-0.84,0.08-1.2,1.1-0.61,1.7l6.79,6.79l-1.64,10.19
				l-10.19,1.64l-6.79-6.79c-0.59-0.59-1.61-0.23-1.69,0.6c-0.42,4.54,1.14,9.22,4.68,12.66c4.46,4.32,11,5.45,16.54,3.32
				l36.62,36.62c0,0,0,0,0,0c0,0,0,0,0,0l0.2,0.2c0.05,0.05,0.1,0.09,0.16,0.12c2.5,2.15,6.24,2.08,8.58-0.26
				c2.34-2.34,2.41-6.08,0.26-8.58c-0.04-0.05-0.08-0.11-0.12-0.16l-0.2-0.2c0,0,0,0,0,0c0,0,0,0,0,0l-36.61-36.61
				C-355.01,79.62-356.18,73.02-360.7,68.49z M-322.3,128.98c-1.58,1.58-4.15,1.58-5.74,0c-1.58-1.58-1.58-4.15,0-5.74
				c1.58-1.58,4.15-1.58,5.74,0C-320.71,124.83-320.71,127.4-322.3,128.98z"/>
		</g>
	</g>
	<g class="st2">
		<path class="st4" d="M-348.88,347.59c-1.78,1.95-4.49,3.19-7.52,3.19s-5.74-1.24-7.52-3.19c-3.85,1.59-6.65,6-6.65,11.17v1.38
			h28.34v-1.38C-342.23,353.6-345.02,349.18-348.88,347.59z"/>
		<ellipse class="st4" cx="-356.7" cy="338.76" rx="6.5" ry="6.22"/>
		<g>
			<path class="st13" d="M-364,345.63c0.63,0.74,1.39,1.38,2.23,1.9c0.55-0.5,0.99-1.12,1.26-1.83c-2.57-1.33-4.31-3.93-4.31-6.92
				c0-3.12,1.9-5.8,4.64-7.08v-31.91c-0.13-0.11-0.26-0.22-0.38-0.34l-11.58-11.58h-31.79c-2.64,0-4.8,2.16-4.8,4.8v51.34
				c0,2.64,2.16,4.8,4.8,4.8h36.11C-366.78,347.37-365.47,346.28-364,345.63z"/>
			<path class="st5" d="M-360.49,299.83h-10.16c-1.44-0.47-1.42-1.36-1.44-2.35l0.06-9.24"/>
			<g>
				<path class="st5" d="M-375.82,300.35h-5.2v-5.2c0-0.99-0.81-1.8-1.8-1.8h-3.29c-0.99,0-1.8,0.81-1.8,1.8v5.2h-5.2
					c-0.99,0-1.8,0.81-1.8,1.8v3.29c0,0.99,0.81,1.8,1.8,1.8h5.2v5.2c0,0.99,0.81,1.8,1.8,1.8h3.29c0.99,0,1.8-0.81,1.8-1.8v-5.2
					h5.2c0.99,0,1.8-0.81,1.8-1.8v-3.29C-374.02,301.16-374.83,300.35-375.82,300.35z"/>
				<path class="st5" d="M-368.78,324.66h-31.38c-1.02,0-1.85-0.83-1.85-1.85l0,0c0-1.02,0.83-1.85,1.85-1.85h31.38
					c1.02,0,1.85,0.83,1.85,1.85l0,0C-366.92,323.82-367.76,324.66-368.78,324.66z"/>
				<path class="st5" d="M-368.78,332.49h-31.38c-1.02,0-1.85-0.83-1.85-1.85v0c0-1.02,0.83-1.85,1.85-1.85h31.38
					c1.02,0,1.85,0.83,1.85,1.85v0C-366.92,331.66-367.76,332.49-368.78,332.49z"/>
				<path class="st5" d="M-368.78,340.32h-31.38c-1.02,0-1.85-0.83-1.85-1.85l0,0c0-1.02,0.83-1.85,1.85-1.85h31.38
					c1.02,0,1.85,0.83,1.85,1.85l0,0C-366.92,339.49-367.76,340.32-368.78,340.32z"/>
			</g>
		</g>
	</g>
	<g class="st2">
		<path class="st4" d="M-266.01,293.5c-1.75,2.05-4.42,3.36-7.4,3.36c-2.98,0-5.65-1.31-7.4-3.36c-3.79,1.67-6.55,6.32-6.55,11.76
			v1.45h27.89v-1.45C-259.47,299.81-262.22,295.17-266.01,293.5z"/>
		<ellipse class="st4" cx="-273.41" cy="286.64" rx="8.23" ry="7.87"/>
	</g>
</g>
<g id="圖層_3" class="st0">
</g>
<g id="圖層_16" class="st0">
	<g class="st2">
		<circle class="st5" cx="58.09" cy="57.83" r="56.02"/>
		<g>
			<g>
				<path class="st4" d="M57.74,33.58h-0.26c-0.78,0-1.41-0.63-1.41-1.41v-9.49c0-0.78,0.63-1.41,1.41-1.41h0.26
					c0.78,0,1.41,0.63,1.41,1.41v9.49C59.15,32.94,58.52,33.58,57.74,33.58z"/>
				<path class="st4" d="M40.01,41.21l-0.18,0.18c-0.55,0.55-1.45,0.55-1.99,0l-6.71-6.71c-0.55-0.55-0.55-1.45,0-1.99l0.18-0.18
					c0.55-0.55,1.45-0.55,1.99,0l6.71,6.71C40.56,39.76,40.56,40.66,40.01,41.21z"/>
				<path class="st4" d="M32.87,59.14v0.26c0,0.78-0.63,1.41-1.41,1.41h-9.49c-0.78,0-1.41-0.63-1.41-1.41v-0.26
					c0-0.78,0.63-1.41,1.41-1.41h9.49C32.24,57.73,32.87,58.36,32.87,59.14z"/>
				<path class="st4" d="M40.5,76.86l0.18,0.18c0.55,0.55,0.55,1.45,0,1.99l-6.71,6.71c-0.55,0.55-1.45,0.55-1.99,0l-0.18-0.18
					c-0.55-0.55-0.55-1.45,0-1.99l6.71-6.71C39.05,76.32,39.95,76.32,40.5,76.86z"/>
				<path class="st4" d="M76.16,76.38l0.18-0.18c0.55-0.55,1.45-0.55,1.99,0l6.71,6.71c0.55,0.55,0.55,1.45,0,1.99l-0.18,0.18
					c-0.55,0.55-1.45,0.55-1.99,0l-6.71-6.71C75.61,77.82,75.61,76.93,76.16,76.38z"/>
				<path class="st4" d="M83.3,58.45v-0.26c0-0.78,0.63-1.41,1.41-1.41h9.49c0.78,0,1.41,0.63,1.41,1.41v0.26
					c0,0.78-0.63,1.41-1.41,1.41h-9.49C83.93,59.86,83.3,59.22,83.3,58.45z"/>
				<path class="st4" d="M75.67,40.72l-0.18-0.18c-0.55-0.55-0.55-1.45,0-1.99l6.71-6.71c0.55-0.55,1.45-0.55,1.99,0l0.18,0.18
					c0.55,0.55,0.55,1.45,0,1.99l-6.71,6.71C77.12,41.27,76.22,41.27,75.67,40.72z"/>
			</g>
			<g>
				<g>
					<path class="st4" d="M58.09,44.57c-9.33,0-16.89,7.07-16.89,15.8c0,4.1,2.91,10.25,7.32,15.12c2.95,3.26,3.17,6.08,3.78,8.08
						c0.21,0.7,0.9,1.18,1.68,1.18h4.31h0.19h3.93c0.81,0,1.52-0.52,1.7-1.26c0.48-2,0.63-4.79,3.54-8.01
						c4.41-4.87,7.32-11.02,7.32-15.12C74.97,51.64,67.41,44.57,58.09,44.57z"/>
					<path class="st4" d="M63.17,86.46h-4.73h-0.15h-4.73c-0.97,0-1.71,0.8-1.54,1.67l0.48,2.55c0.13,0.69,0.78,1.19,1.54,1.19h0.1
						c0,0.02,0,0.03,0,0.05l0.32,1.69c0.09,0.46,0.52,0.79,1.02,0.79h2.82h0.1h2.82c0.51,0,0.94-0.33,1.02-0.79l0.32-1.69
						c0-0.02,0-0.03,0-0.05h0.1c0.76,0,1.41-0.5,1.54-1.19l0.48-2.55C64.87,87.26,64.14,86.46,63.17,86.46z"/>
				</g>
				<path class="st22" d="M58.09,57.91c-4.67-4.93-9.21,0.44-8.75,4.38c0.46,3.91,3.29,6.5,8.69,8.75v0.05
					c0.02-0.01,0.04-0.02,0.06-0.02c0.02,0.01,0.04,0.02,0.06,0.02v-0.05c5.4-2.26,8.23-4.85,8.69-8.75
					C67.3,58.35,62.75,52.98,58.09,57.91z"/>
			</g>
		</g>
	</g>
</g>
<g id="圖層_15" class="st0">
	<g class="st2">
		<circle class="st5" cx="58.09" cy="57.83" r="56.02"/>
		<path class="st22" d="M112.56,44.3L91.38,25.44L25.89,89.49l20.52,22.65c3.77,0.8,7.67,1.23,11.68,1.23
			c30.94,0,56.02-25.08,56.02-56.02C114.1,52.85,113.56,48.49,112.56,44.3z"/>
		<path class="st19" d="M60.28,64.62l-9.04-9.04c-0.58-0.58-0.58-1.54,0-2.12l0.19-0.19c0.58-0.58,1.54-0.58,2.12,0l9.04,9.04
			c0.58,0.58,0.58,1.54,0,2.12l-0.19,0.19C61.82,65.2,60.87,65.2,60.28,64.62z"/>
		<path class="st4" d="M57.57,69.92c1.85-1.85,1.98-4.71,0.31-6.38l-5.56-5.56c-1.68-1.68-4.54-1.54-6.38,0.31L27.76,76.48
			c-0.14,0.14-0.27,0.3-0.4,0.45c-0.22,0.19-0.43,0.38-0.64,0.59c-3.67,3.67-4.04,9.25-0.83,12.46c3.21,3.21,8.79,2.84,12.46-0.83
			c0.21-0.21,0.4-0.42,0.59-0.64c0.16-0.12,0.31-0.25,0.45-0.4L57.57,69.92z"/>
		<g>
			<path class="st5" d="M29.68,81.7l-0.02-0.02c-0.45-0.45-0.45-1.18,0-1.63l18.16-18.16c0.45-0.45,1.18-0.45,1.63,0l0.02,0.02
				c0.45,0.45,0.45,1.18,0,1.63L31.31,81.7C30.86,82.15,30.13,82.15,29.68,81.7z"/>
			<path class="st5" d="M34.19,86.21l-0.02-0.02c-0.45-0.45-0.45-1.18,0-1.63L52.33,66.4c0.45-0.45,1.18-0.45,1.63,0l0.02,0.02
				c0.45,0.45,0.45,1.18,0,1.63L35.82,86.21C35.37,86.66,34.64,86.66,34.19,86.21z"/>
		</g>
		<path class="st4" d="M88.67,31.15l2.77-4.31c0.2-0.31,0.18-0.7-0.05-0.93l-1-1c-0.23-0.23-0.62-0.26-0.93-0.05l-4.31,2.77
			c-0.12,0.08-0.22,0.18-0.29,0.3L83.05,31L59.13,54.92c-0.7,0.7-0.77,1.79-0.15,2.41l0,0c0.62,0.62,1.7,0.55,2.41-0.15L85.3,33.26
			l3.06-1.81C88.49,31.37,88.59,31.27,88.67,31.15z"/>
		<path class="st21" d="M50.47,28.07c-3.41-3.41-8.01-4.91-12.46-4.51c-0.84,0.08-1.2,1.1-0.61,1.7l6.79,6.79l-1.64,10.19
			l-10.19,1.64l-6.79-6.79c-0.59-0.59-1.61-0.23-1.69,0.6c-0.42,4.54,1.14,9.22,4.68,12.66c4.46,4.32,11,5.45,16.54,3.32
			l36.62,36.62c0,0,0,0,0,0c0,0,0,0,0,0l0.2,0.2c0.05,0.05,0.1,0.09,0.16,0.12c2.5,2.15,6.24,2.08,8.58-0.26s2.41-6.08,0.26-8.58
			c-0.04-0.05-0.08-0.11-0.12-0.16l-0.2-0.2c0,0,0,0,0,0c0,0,0,0,0,0L53.97,44.8C56.15,39.2,54.99,32.59,50.47,28.07z M88.87,88.56
			c-1.58,1.58-4.15,1.58-5.74,0c-1.58-1.58-1.58-4.15,0-5.74c1.58-1.58,4.15-1.58,5.74,0C90.45,84.41,90.45,86.98,88.87,88.56z"/>
	</g>
</g>
<g id="圖層_14" class="st0">
	<g class="st2">
		<circle class="st5" cx="58.06" cy="57.83" r="56.02"/>
		<path class="st22" d="M22.95,65.97l36.88,47.83c30.14-0.91,54.3-25.61,54.3-55.98c0-1.42-0.07-2.82-0.17-4.22L62.73,25.39
			L22.95,65.97z"/>
		<g>
			<path class="st4" d="M85.36,78.58c-1.75,2.05-4.42,3.36-7.4,3.36s-5.65-1.31-7.4-3.36c-3.79,1.67-6.55,6.32-6.55,11.76v1.45H91.9
				v-1.45C91.9,84.9,89.15,80.25,85.36,78.58z"/>
			<ellipse class="st4" cx="77.95" cy="71.72" rx="8.23" ry="7.87"/>
		</g>
		<g>
			<path class="st4" d="M62.7,68.85c6.63-5.11,10.87-12.94,10.87-21.72c0-15.4-13.04-27.88-29.14-27.88S15.3,31.74,15.3,47.14
				s13.04,27.88,29.14,27.88c3.8,0,7.43-0.71,10.77-1.97l10.84,4.12L62.7,68.85z"/>
			<g>
				<path class="st5" d="M40.49,31.47c0.59-0.69,1.12-1.03,1.59-1.03h3.88c0.5,0,1.14,0.37,1.92,1.12c0.37,0.39,0.56,0.8,0.56,1.25
					v9.39c-0.81,3.67-1.56,7.33-2.24,11c-0.16,0.69-0.47,1.03-0.93,1.03H43.3c-0.5,0-0.83-0.22-0.98-0.67l-2.24-11
					c-0.09-0.24-0.14-0.58-0.14-1.03v-8.72C39.93,32.36,40.12,31.91,40.49,31.47z M41.24,56.37c0.5-0.48,0.98-0.72,1.45-0.72h3.5
					c0.5,0,0.98,0.21,1.45,0.63c0.81,0.78,1.21,1.39,1.21,1.83v3.22c0.28,0.45-0.16,1.06-1.31,1.83c-0.5,0.45-0.98,0.67-1.45,0.67
					h-3.41c-0.47,0-0.95-0.22-1.45-0.67c-0.97-0.69-1.34-1.28-1.12-1.79v-3.26C39.84,57.72,40.21,57.14,41.24,56.37z"/>
			</g>
		</g>
	</g>
</g>
<g id="圖層_13" class="st0">
	<g class="st2">
		<circle class="st5" cx="58.09" cy="57.83" r="56.02"/>
		<path class="st22" d="M111.6,74.47L71.02,35.81L22.84,83.08l20.93,28.91c4.57,1.21,9.37,1.86,14.32,1.86
			C83.24,113.85,104.51,97.28,111.6,74.47z"/>
		<g>
			<path class="st4" d="M82.11,83.81C80.33,85.76,77.62,87,74.59,87s-5.74-1.24-7.52-3.19c-3.85,1.59-6.65,6-6.65,11.17v1.38h28.34
				v-1.38C88.76,89.82,85.96,85.4,82.11,83.81z"/>
			<ellipse class="st4" cx="74.29" cy="74.98" rx="6.5" ry="6.22"/>
			<g>
				<path class="st13" d="M66.98,81.85c0.63,0.74,1.39,1.38,2.23,1.9c0.55-0.5,0.99-1.12,1.26-1.83c-2.57-1.33-4.31-3.93-4.31-6.92
					c0-3.12,1.9-5.8,4.64-7.08V36c-0.13-0.11-0.26-0.22-0.38-0.34L58.84,24.08H27.04c-2.64,0-4.8,2.16-4.8,4.8v51.34
					c0,2.64,2.16,4.8,4.8,4.8h36.11C64.2,83.59,65.51,82.5,66.98,81.85z"/>
				<path class="st5" d="M70.5,36.05H60.34c-1.44-0.47-1.42-1.36-1.44-2.35l0.06-9.24"/>
				<g>
					<path class="st5" d="M55.17,36.57h-5.2v-5.2c0-0.99-0.81-1.8-1.8-1.8h-3.29c-0.99,0-1.8,0.81-1.8,1.8v5.2h-5.2
						c-0.99,0-1.8,0.81-1.8,1.8v3.29c0,0.99,0.81,1.8,1.8,1.8h5.2v5.2c0,0.99,0.81,1.8,1.8,1.8h3.29c0.99,0,1.8-0.81,1.8-1.8v-5.2
						h5.2c0.99,0,1.8-0.81,1.8-1.8v-3.29C56.97,37.38,56.16,36.57,55.17,36.57z"/>
					<path class="st5" d="M62.21,60.88H30.83c-1.02,0-1.85-0.83-1.85-1.85v0c0-1.02,0.83-1.85,1.85-1.85h31.38
						c1.02,0,1.85,0.83,1.85,1.85v0C64.06,60.04,63.23,60.88,62.21,60.88z"/>
					<path class="st5" d="M62.21,68.71H30.83c-1.02,0-1.85-0.83-1.85-1.85v0c0-1.02,0.83-1.85,1.85-1.85h31.38
						c1.02,0,1.85,0.83,1.85,1.85v0C64.06,67.88,63.23,68.71,62.21,68.71z"/>
					<path class="st5" d="M62.21,76.54H30.83c-1.02,0-1.85-0.83-1.85-1.85l0,0c0-1.02,0.83-1.85,1.85-1.85h31.38
						c1.02,0,1.85,0.83,1.85,1.85l0,0C64.06,75.71,63.23,76.54,62.21,76.54z"/>
				</g>
			</g>
		</g>
	</g>
</g>
<g id="圖層_12" class="st0">
	<g class="st2">
		<circle class="st5" cx="58.09" cy="57.83" r="56.02"/>
		<path class="st22" d="M113.74,63.31L75.25,22.45L29.52,79.49l16.99,33.18c3.7,0.77,7.54,1.18,11.48,1.18
			C87.08,113.85,110.98,91.68,113.74,63.31z"/>
		<g>
			<g>
				<path class="st4" d="M68.9,41.76H47.27c-11.33,5.48-19.37,18.67-19.37,29.29C27.89,84.83,41.41,96,58.09,96
					s30.19-11.17,30.19-24.94C88.28,60.43,80.23,47.25,68.9,41.76z"/>
				<path class="st14" d="M69.36,40.57H46.81c-1.59,0-2.89-1.3-2.89-2.89v0c0-1.59,1.3-2.89,2.89-2.89h22.55
					c1.59,0,2.89,1.3,2.89,2.89v0C72.25,39.27,70.95,40.57,69.36,40.57z"/>
				<g>
					<path class="st14" d="M58.05,19.66h-6.03c-1.89,0-3.33,1.49-3.02,3.13l1.6,8.49c0.24,1.3,1.52,2.25,3.02,2.25h4.43h4.43
						c1.5,0,2.78-0.95,3.02-2.25l1.6-8.49c0.31-1.64-1.13-3.13-3.02-3.13H58.05z"/>
					<path class="st14" d="M40.81,23.33l2.88,8.07c0.44,1.23,2.75,2.14,5.46,2.14h3.56c-1.5,0-2.78-0.95-3.02-2.25l-1.6-8.49
						c-0.18-0.94,0.23-1.84,0.96-2.43h-2.79C42.86,20.36,40.26,21.78,40.81,23.33z"/>
					<path class="st14" d="M69.9,20.36h-2.79c0.74,0.59,1.14,1.48,0.96,2.43l-1.6,8.49c-0.24,1.3-1.52,2.25-3.02,2.25h3.56
						c2.71,0,5.02-0.9,5.46-2.14l2.88-8.07C75.91,21.78,73.31,20.36,69.9,20.36z"/>
				</g>
			</g>
			<circle class="st15" cx="58.34" cy="71.45" r="15.18"/>
			<g>
				<path class="st4" d="M57.48,61.49c0-0.22,0.11-0.34,0.34-0.34h1.64c0.25,0,0.38,0.11,0.38,0.34v1.51c0,0.17,0.11,0.28,0.34,0.34
					c1.03,0.19,1.96,0.58,2.76,1.17c0.88,0.67,1.5,1.58,1.84,2.72c0.21,0.64,0.12,0.92-0.27,0.83h-3.48c-0.22,0-0.36-0.11-0.4-0.34
					c0.03-0.27-0.14-0.53-0.52-0.79c-0.24-0.12-0.33-0.04-0.27,0.25v2.22c0,0.18,0.11,0.32,0.34,0.43c2.95,1.21,4.56,2.85,4.83,4.9
					v0.9c-0.12,1.06-0.62,1.98-1.51,2.74c-0.84,0.64-1.98,1.09-3.42,1.33c-0.16,0.06-0.25,0.18-0.25,0.36v1.35
					c0,0.24-0.12,0.36-0.36,0.36h-1.64c-0.24,0-0.36-0.11-0.36-0.34v-1.37c0-0.18-0.12-0.3-0.36-0.36c-0.91-0.1-1.84-0.44-2.76-1.01
					c-1.44-0.91-2.33-2.2-2.67-3.87c-0.03-0.31,0.07-0.47,0.29-0.47h3.78c0.24,0,0.36,0.12,0.36,0.36c0.09,0.52,0.36,0.98,0.81,1.37
					c0.45,0.39,0.64,0.4,0.56,0.02V73.1c0.03-0.24-0.2-0.45-0.7-0.63l-1.39-0.74c-1.8-0.88-2.86-2.1-3.19-3.66v-0.92
					c0.25-1.51,1.27-2.68,3.06-3.51c0.57-0.21,1.15-0.34,1.73-0.4c0.33-0.06,0.49-0.17,0.49-0.34V61.49z M57.48,67.06
					c0.07-0.34-0.16-0.34-0.7,0c-0.48,0.55-0.34,1.07,0.43,1.55c0.18,0.09,0.27,0.04,0.27-0.13V67.06z M59.86,73.85l-0.02,0.29V76
					c-0.06,0.34,0.16,0.39,0.65,0.13c0.54-0.46,0.65-0.97,0.34-1.51C60.59,74.29,60.26,74.03,59.86,73.85z"/>
			</g>
		</g>
	</g>
</g>
<g id="圖層_11" class="st0">
	<g class="st2">
		<circle class="st5" cx="58.09" cy="57.83" r="56.02"/>
		<path class="st22" d="M88.51,26.82l-28.6,5.53L32.3,83.61l22.04,30.1c1.24,0.08,2.48,0.14,3.74,0.14
			c29.45,0,53.57-22.72,55.83-51.59L88.51,26.82z"/>
		<g>
			<circle class="st23" cx="57.55" cy="66.24" r="29.42"/>
			<g>
				<circle class="st15" cx="57.55" cy="66.24" r="24.14"/>
				<g>
					<path class="st4" d="M56.17,50.39c0-0.36,0.18-0.54,0.54-0.54h2.61c0.4,0,0.61,0.18,0.61,0.54v2.39c0,0.26,0.18,0.44,0.54,0.54
						c1.64,0.31,3.11,0.93,4.4,1.86c1.41,1.07,2.38,2.51,2.93,4.32c0.33,1.02,0.19,1.47-0.43,1.32h-5.54
						c-0.36,0-0.57-0.18-0.64-0.54c0.05-0.43-0.23-0.85-0.82-1.25c-0.38-0.19-0.52-0.06-0.43,0.39v3.54c0,0.29,0.18,0.51,0.54,0.68
						c4.69,1.93,7.25,4.53,7.68,7.79v1.43c-0.19,1.69-0.99,3.14-2.39,4.36c-1.33,1.02-3.14,1.73-5.43,2.11
						c-0.26,0.09-0.39,0.29-0.39,0.57v2.14c0,0.38-0.19,0.57-0.57,0.57h-2.61c-0.38,0-0.57-0.18-0.57-0.54v-2.18
						c0-0.29-0.19-0.48-0.57-0.57c-1.45-0.17-2.92-0.7-4.4-1.61c-2.29-1.45-3.71-3.5-4.25-6.15c-0.05-0.5,0.11-0.75,0.46-0.75h6
						c0.38,0,0.57,0.19,0.57,0.57c0.14,0.83,0.57,1.56,1.29,2.18c0.71,0.62,1.01,0.63,0.89,0.04v-4.75c0.05-0.38-0.32-0.71-1.11-1
						l-2.22-1.18c-2.86-1.41-4.55-3.35-5.07-5.83V59.4c0.4-2.41,2.02-4.26,4.86-5.57c0.9-0.33,1.82-0.55,2.75-0.64
						c0.52-0.09,0.79-0.27,0.79-0.54V50.39z M56.17,59.26c0.12-0.55-0.25-0.55-1.11,0c-0.76,0.88-0.54,1.7,0.68,2.47
						c0.29,0.14,0.43,0.07,0.43-0.21V59.26z M59.96,70.05l-0.04,0.46v2.97c-0.1,0.55,0.25,0.62,1.04,0.21
						c0.86-0.74,1.04-1.54,0.54-2.39C61.12,70.75,60.6,70.34,59.96,70.05z"/>
				</g>
			</g>
			<g>
				<path class="st4" d="M57.54,20.6l-29.09,5.85c-1.27,0.26-1.27,1.18,0,1.43l29.09,5.85c0.35,0.07,0.74,0.07,1.09,0l29.09-5.85
					c1.27-0.26,1.27-1.18,0-1.43L58.63,20.6C58.28,20.53,57.89,20.53,57.54,20.6z"/>
				<path class="st4" d="M57.54,35l-18.32-3.68v10.77h0c0.08,2.46,8.49,4.46,18.86,4.46s18.78-1.99,18.86-4.46h0V31.32L58.63,35
					C58.28,35.07,57.89,35.07,57.54,35z"/>
				<path class="st4" d="M83.86,38.39h-0.34c-0.56,0-1.01-0.46-1.01-1.01v-8.69c0-0.56,0.46-1.01,1.01-1.01h0.34
					c0.56,0,1.01,0.46,1.01,1.01v8.69C84.87,37.93,84.42,38.39,83.86,38.39z"/>
				<path class="st4" d="M85.69,40.36V36.9c0-0.8-0.9-1.46-2-1.46s-2,0.66-2,1.46v3.46H85.69z"/>
			</g>
		</g>
	</g>
</g>
<g id="圖層_10" class="st0">
	<g class="st2">
		<path class="st5" d="M52.61,89.63l32-2.21l2.89-11.57l0.34-28.77l-0.55-16.26l26.79,27.75c0-0.25,0.02-0.49,0.02-0.74
			c0-30.94-25.08-56.02-56.02-56.02S2.07,26.89,2.07,57.83c0,27.49,19.8,50.33,45.91,55.09L28.57,84.46L52.61,89.63z"/>
		<path class="st22" d="M114.08,58.57L87.29,30.82l0.55,16.26L87.5,75.84l-2.89,11.57l-32,2.21l-24.04-5.17l19.41,28.47
			c3.28,0.6,6.65,0.93,10.11,0.93C88.77,113.85,113.69,89.17,114.08,58.57z"/>
		<g>
			<circle class="st24" cx="58.09" cy="57.83" r="15.57"/>
			<circle class="st4" cx="76.13" cy="38.95" r="3.66"/>
			<path class="st24" d="M74.8,88.8H41.37c-7.84,0-14.25-6.41-14.25-14.25V41.11c0-7.84,6.41-14.25,14.25-14.25H74.8
				c7.84,0,14.25,6.41,14.25,14.25v33.43C89.05,82.39,82.64,88.8,74.8,88.8z"/>
		</g>
	</g>
</g>
<g id="圖層_9" class="st0">
	<g class="st2">
		<g>
			<path class="st5" d="M58.09,37.14l12.34-12.73l42.07,20.1C106.52,20,84.43,1.81,58.09,1.81c-30.94,0-56.02,25.08-56.02,56.02
				s25.08,56.02,56.02,56.02c4.43,0,8.74-0.53,12.87-1.5l-20.78-21.5L58.09,37.14z"/>
			<path class="st22" d="M114.1,57.83c0-4.59-0.56-9.05-1.61-13.32l-42.07-20.1L58.09,37.14l-7.9,53.71l20.78,21.5
				C95.69,106.53,114.1,84.34,114.1,57.83z"/>
		</g>
		<g>
			<path class="st4" d="M60.96,25.31c2.09-0.42,3.99-0.72,5.7-0.9l3.28,0c0.81,0,1.21,0.45,1.21,1.36l-0.02,13.57
				c0.38,1.63-0.46,2.05-2.5,1.26l-2.99,0c-0.9-0.12-1.78,0.36-2.64,1.44c-0.48,1.21-0.24,1.69,0.71,1.45l6.2,0.01
				c0.81,0,1.21,0.48,1.21,1.45l-0.02,12.93c0,0.9-0.55,1.18-1.64,0.81l-5.77-0.01c-0.62,0-0.93,0.33-0.93,0.99l-0.04,29.67
				c0.14,1.27-0.15,1.9-0.86,1.9L50.9,91.23c-0.71,0-1.02-0.63-0.92-1.9l0.04-29.48c0.24-1.21-0.73-1.6-2.92-1.18
				c-0.52,0-0.97,0.06-1.35,0.18c-0.52,0.24-0.78-0.06-0.78-0.91l0.02-12.93c0-1.02,0.36-1.54,1.07-1.54l3.06,0
				c0.62,0,0.93-0.6,0.93-1.81C50.38,32.32,54.02,26.87,60.96,25.31z"/>
		</g>
	</g>
</g>
<g id="圖層_8" class="st0">
	<g class="st2">
		<g>
			<path class="st5" d="M84.11,25.83L113.8,52C110.89,23.8,87.05,1.81,58.09,1.81c-30.94,0-56.02,25.08-56.02,56.02
				c0,28.59,21.43,52.17,49.1,55.58L25.69,90.2L84.11,25.83z"/>
			<path class="st22" d="M114.1,57.83c0-1.97-0.1-3.91-0.3-5.83L84.11,25.83L25.69,90.2l25.48,23.21c2.27,0.28,4.58,0.44,6.92,0.44
				C89.02,113.85,114.1,88.77,114.1,57.83z"/>
		</g>
		<g>
			<g>
				<path class="st4" d="M45.45,79.03l-8.5-8.5c-1.04-1.04-1.04-2.73,0-3.77l40.37-40.37c2.05-2.05,5.41-2.05,7.47,0l4.75,4.75
					c2.05,2.05,2.05,5.41,0,7.47L49.1,79.03C48.1,80.03,46.46,80.03,45.45,79.03z"/>
				
					<rect x="70.67" y="34.92" transform="matrix(0.7071 0.7071 -0.7071 0.7071 49.1163 -45.3513)" class="st5" width="17.27" height="3.39"/>
				<g>
					<path class="st5" d="M39.07,72.65L39.07,72.65c-0.45-0.45-0.45-1.19,0-1.64l35.69-35.69c0.45-0.45,1.19-0.45,1.64,0l0,0
						c0.45,0.45,0.45,1.19,0,1.64L40.71,72.65C40.26,73.1,39.52,73.1,39.07,72.65z"/>
					<path class="st5" d="M43.27,76.84L43.27,76.84c-0.45-0.45-0.45-1.19,0-1.64l35.69-35.69c0.45-0.45,1.19-0.45,1.64,0v0
						c0.45,0.45,0.45,1.19,0,1.64L44.91,76.84C44.46,77.29,43.72,77.29,43.27,76.84z"/>
				</g>
			</g>
			<g>
				<path class="st4" d="M27.89,90.66l16.05-6.37c1.36-0.54,1.72-2.29,0.69-3.32l-9.68-9.68c-1.03-1.03-2.78-0.67-3.32,0.69
					l-6.37,16.05C24.6,89.68,26.23,91.32,27.89,90.66z"/>
				<polygon class="st5" points="27.32,82.8 33.11,88.59 35.43,87.67 28.24,80.49 				"/>
			</g>
		</g>
	</g>
</g>
<g id="圖層_7" class="st0">
	<g class="st2">
		<g>
			<path class="st5" d="M71.16,21.16l42.86,39.68c0.05-1,0.08-2,0.08-3.01c0-30.94-25.08-56.02-56.02-56.02
				c-30.94,0-56.02,25.08-56.02,56.02c0,28.73,21.63,52.4,49.5,55.63L35.73,87.28L61.5,61.75L71.16,21.16z"/>
			<path class="st22" d="M114.02,60.84L71.16,21.16L56.02,60.1L35.73,87.28l15.83,26.18c2.14,0.25,4.31,0.39,6.52,0.39
				C88.01,113.85,112.46,90.38,114.02,60.84z"/>
		</g>
		<g>
			<g>
				<path class="st4" d="M74.39,37.47c0,10.44-7.29,18.91-16.27,18.91s-16.27-8.46-16.27-18.91"/>
				<g>
					<path class="st5" d="M75.9,36.93c0-10.46-7.83-18.94-17.49-18.94s-17.49,8.48-17.49,18.94"/>
					<g>
						<path class="st17" d="M39.63,36.58c0-10.64,8.28-19.27,18.49-19.27s18.49,8.63,18.49,19.27"/>
						<line class="st17" x1="36.25" y1="35.78" x2="40.93" y2="35.78"/>
						<line class="st17" x1="75.24" y1="35.78" x2="79.92" y2="35.78"/>
					</g>
				</g>
			</g>
			<g>
				<path class="st4" d="M68.82,55.63c-2.86,2.89-6.59,4.64-10.67,4.64c-4.1,0-7.84-1.76-10.7-4.66
					c-7.48,1.83-13.07,8.6-13.07,16.63v8.41c0,9.41,7.7,17.11,17.11,17.11h13.17c9.41,0,17.11-7.7,17.11-17.11v-8.41
					C81.79,64.24,76.25,57.49,68.82,55.63z"/>
				<g>
					<line class="st18" x1="58.09" y1="59.62" x2="58.09" y2="98.35"/>
					<path class="st5" d="M52.62,67.09H40.36c-0.57,0-1.03-0.46-1.03-1.03l0,0c0-0.57,0.46-1.03,1.03-1.03h12.25
						c0.57,0,1.03,0.46,1.03,1.03l0,0C53.65,66.63,53.19,67.09,52.62,67.09z"/>
					<path class="st5" d="M75.81,67.09H63.55c-0.57,0-1.03-0.46-1.03-1.03l0,0c0-0.57,0.46-1.03,1.03-1.03h12.25
						c0.57,0,1.03,0.46,1.03,1.03l0,0C76.84,66.63,76.37,67.09,75.81,67.09z"/>
				</g>
			</g>
		</g>
	</g>
</g>
<g id="圖層_6" class="st0">
	<g class="st2">
		<g>
			<path class="st5" d="M45.14,62.69L69.6,76.51l2.43,4.12l18.23-25.32l22.86,12.95c0.64-3.38,0.99-6.87,0.99-10.43
				c0-30.94-25.08-56.02-56.02-56.02S2.07,26.89,2.07,57.83c0,26.43,18.3,48.56,42.92,54.46L24.8,86.77L45.14,62.69z"/>
			<path class="st22" d="M113.12,68.26L90.26,55.31L72.03,80.64l-2.43-4.12L45.14,62.69L24.8,86.77l20.18,25.52
				c4.2,1.01,8.58,1.55,13.1,1.55C85.46,113.85,108.23,94.21,113.12,68.26z"/>
		</g>
		<g>
			<g>
				<path class="st4" d="M49.65,77.55l3.43-1.19l-0.45-2.56l-0.03-0.15l-0.45-2.56l-3.48,0.05c-0.32-0.75-0.72-1.46-1.17-2.12
					l1.74-2.9l-1.99-1.67l-0.11-0.09l-1.99-1.67l-2.48,2.14c-0.77-0.38-1.59-0.69-2.44-0.91l-0.51-3.16h-2.6h-0.15h-2.6l-0.51,3.16
					c-0.87,0.22-1.7,0.54-2.48,0.93l-2.41-2.09l-1.99,1.67l-0.11,0.09l-1.99,1.67l1.7,2.84c-0.48,0.69-0.88,1.44-1.22,2.22
					l-3.33-0.05l-0.45,2.56l-0.03,0.15l-0.45,2.56l3.34,1.16c0.09,0.78,0.24,1.53,0.46,2.26l-2.77,2.25l1.3,2.25l0.07,0.13l1.3,2.25
					l3.53-1.35c0.5,0.48,1.04,0.91,1.62,1.3l-0.72,3.72l2.44,0.89l0.14,0.05l2.44,0.89l1.91-3.42c0.28,0.02,0.57,0.03,0.86,0.03
					c0.37,0,0.74-0.02,1.1-0.05l1.9,3.4l2.44-0.89l0.14-0.05l2.44-0.89l-0.74-3.83c0.55-0.38,1.06-0.81,1.54-1.27l3.58,1.37
					l1.3-2.25l0.07-0.13l1.3-2.25l-2.89-2.35C49.43,79,49.57,78.28,49.65,77.55z M42.4,76.2c0,2.96-2.4,5.37-5.37,5.37
					c-2.96,0-5.37-2.4-5.37-5.37c0-2.96,2.4-5.37,5.37-5.37C40,70.83,42.4,73.23,42.4,76.2z"/>
				<circle class="st5" cx="37.09" cy="76.51" r="9.69"/>
				<circle class="st4" cx="37.09" cy="76.51" r="6.44"/>
			</g>
			<g>
				<g>
					<path class="st4" d="M44.16,28.77l-8.5,8.5c-1.31,1.31-3.44,1.31-4.75,0l0,0c-1.31-1.31-1.31-3.44,0-4.75l8.5-8.5
						c1.31-1.31,3.44-1.31,4.75,0l0,0C45.47,25.33,45.47,27.46,44.16,28.77z"/>
					<path class="st4" d="M60.56,28.6L35.49,53.67c-0.94,0.94-2.48,0.94-3.42,0l-3.09-3.09c-0.94-0.94-0.94-2.48,0-3.42l25.06-25.06
						c0.94-0.94,2.48-0.94,3.42,0l3.09,3.09C61.5,26.12,61.5,27.66,60.56,28.6z"/>
				</g>
				<g>
					<path class="st4" d="M87.69,72.3l-8.5,8.5c-1.31,1.31-1.31,3.44,0,4.75h0c1.31,1.31,3.44,1.31,4.75,0l8.5-8.5
						c1.31-1.31,1.31-3.44,0-4.75v0C91.14,71,89,71,87.69,72.3z"/>
					<path class="st4" d="M87.86,55.91L62.8,80.97c-0.94,0.94-0.94,2.48,0,3.42l3.09,3.09c0.94,0.94,2.48,0.94,3.42,0l25.06-25.06
						c0.94-0.94,0.94-2.48,0-3.42l-3.09-3.09C90.34,54.97,88.8,54.97,87.86,55.91z"/>
				</g>
				<path class="st4" d="M72.7,65.81L72.7,65.81c-1.03,1.03-2.73,1.03-3.76,0L50.97,47.84c-1.03-1.03-1.03-2.73,0-3.76l0,0
					c1.03-1.03,2.73-1.03,3.76,0L72.7,62.05C73.74,63.09,73.74,64.78,72.7,65.81z"/>
				<path class="st4" d="M58.18,39.06L45.95,51.29c-0.64,0.64-1.68,0.64-2.32,0l0,0c-0.64-0.64-0.64-1.68,0-2.32l12.22-12.22
					c0.64-0.64,1.68-0.64,2.32,0h0C58.81,37.38,58.81,38.42,58.18,39.06z"/>
				<path class="st4" d="M80.04,60.93L67.82,73.15c-0.64,0.64-1.68,0.64-2.32,0l0,0c-0.64-0.64-0.64-1.68,0-2.32l12.22-12.22
					c0.64-0.64,1.68-0.64,2.32,0l0,0C80.68,59.25,80.68,60.29,80.04,60.93z"/>
			</g>
		</g>
	</g>
</g>
<g id="圖層_5">
	<g>
		<g>
			<path class="st5" d="M74.23,67.96L52.75,51.65l17.08-26.79l25.21,17.36l18.99,12.74C112.54,25.36,88.06,1.81,58.09,1.81
				c-30.94,0-56.02,25.08-56.02,56.02s25.08,56.02,56.02,56.02c0.03,0,0.06,0,0.09,0L32.89,83.57L74.23,67.96z"/>
			<path class="st22" d="M114.1,57.83c0-0.96-0.02-1.91-0.07-2.86L95.04,42.23L69.84,24.87L52.75,51.65l14.18,13.29l-2.38,4.14
				L42.23,52.76l-9.34,30.82l25.29,30.27C89.07,113.8,114.1,88.74,114.1,57.83z"/>
		</g>
		<g>
			<path class="st25" d="M58.09,27.73c-9.37-9.91-18.51,0.88-17.57,8.79c0.93,7.85,6.62,13.05,17.46,17.58v0.1
				c0.04-0.02,0.07-0.03,0.11-0.05c0.04,0.02,0.07,0.03,0.11,0.05v-0.1c10.84-4.53,16.53-9.73,17.46-17.58
				C76.59,28.61,67.46,17.82,58.09,27.73z"/>
			<g>
				<path class="st4" d="M69.14,85.43l-5.73-14.35l10.52-18.32l4.5,2.65l-4.21,12.56l13.44-10.65l2.48-17.23l5.41,2.37l-1.35,19.03
					L83.28,83.57l-7.88,3.84C73.12,88.53,70.36,87.66,69.14,85.43z"/>
				<path class="st4" d="M47.03,85.43l5.73-14.35L42.23,52.76l-4.5,2.65l4.21,12.56L28.49,57.32l-2.48-17.23l-5.41,2.37l1.35,19.03
					l10.93,22.09l7.88,3.84C43.05,88.53,45.81,87.66,47.03,85.43z"/>
			</g>
		</g>
	</g>
</g>
<g id="圖層_4" class="st0">
	<g class="st2">
		<circle class="st5" cx="58.09" cy="57.83" r="56.02"/>
		<g>
			<ellipse class="st4" cx="58.09" cy="80.9" rx="8.85" ry="8.22"/>
			<g>
				<g>
					<path class="st4" d="M76.39,70.66c-11.18-7.03-25.43-7.03-36.61,0c-1.07,0.67-2.47,0.53-3.17-0.41
						c-0.18-0.25-0.36-0.49-0.54-0.74c-0.7-0.93-0.28-2.42,0.97-3.21c12.85-8.08,29.23-8.08,42.08,0c1.25,0.79,1.67,2.28,0.97,3.21
						c-0.18,0.25-0.36,0.49-0.54,0.74C78.86,71.19,77.46,71.33,76.39,70.66z"/>
				</g>
				<g>
					<path class="st4" d="M84.41,58.12c-16.02-10.31-36.62-10.31-52.64,0c-1.26,0.81-2.94,0.64-3.76-0.47
						c-0.02-0.03-0.04-0.06-0.06-0.09c-0.83-1.11-0.38-2.85,1.05-3.76c17.71-11.4,40.49-11.4,58.2,0c1.42,0.91,1.87,2.65,1.05,3.76
						c-0.02,0.03-0.04,0.06-0.06,0.09C87.34,58.76,85.67,58.93,84.41,58.12z"/>
				</g>
				<g>
					<path class="st4" d="M90.49,44.07c-19.66-12.9-45.15-12.9-64.81,0c-1.29,0.84-3,0.67-3.84-0.47l0,0
						c-0.84-1.14-0.4-2.9,1.02-3.83c21.37-14.02,49.08-14.02,70.45,0c1.42,0.93,1.86,2.69,1.02,3.83l0,0
						C93.49,44.74,91.78,44.91,90.49,44.07z"/>
				</g>
			</g>
		</g>
	</g>
</g>
</svg>
