<?xml version="1.0" encoding="utf-8"?>
<!-- Generator: Adobe Illustrator 23.0.3, SVG Export Plug-In . SVG Version: 6.00 Build 0)  -->
<svg version="1.1" xmlns="http://www.w3.org/2000/svg" xmlns:xlink="http://www.w3.org/1999/xlink" x="0px" y="0px"
	 viewBox="0 0 20 20" style="enable-background:new 0 0 20 20;" xml:space="preserve">
<style type="text/css">
	.st0{fill:#F6DF9A;}
	.st1{fill:#FED147;}
	.st2{fill:#FFFFFF;}
	.st3{fill:#FEC447;}
</style>
<g id="圖層_3">
</g>
<g id="圖層_4">
</g>
<g id="圖層_5">
	<g>
		<g>
			<path class="st0" d="M10,0C4.48,0,0,4.48,0,10c0,5.52,4.48,10,10,10s10-4.48,10-10C20,4.48,15.52,0,10,0z M10,19.2
				c-5.08,0-9.2-4.12-9.2-9.2c0-5.08,4.12-9.2,9.2-9.2s9.2,4.12,9.2,9.2C19.2,15.08,15.08,19.2,10,19.2z"/>
			<path class="st1" d="M10,0v0.8c5.08,0,9.2,4.12,9.2,9.2c0,5.08-4.12,9.2-9.2,9.2V20c5.52,0,10-4.48,10-10C20,4.48,15.52,0,10,0z"
				/>
		</g>
		<circle class="st2" cx="10" cy="10" r="9.2"/>
	</g>
</g>
<g id="圖層_1">
</g>
<g id="圖層_2">
	<g>
		<path class="st1" d="M10.88,1.44l1.93,3.91c0.14,0.29,0.42,0.49,0.74,0.54l4.32,0.63c0.81,0.12,1.13,1.11,0.55,1.68l-3.12,3.04
			c-0.23,0.23-0.34,0.55-0.28,0.87l0.74,4.3c0.14,0.81-0.71,1.42-1.43,1.04l-3.86-2.03c-0.29-0.15-0.63-0.15-0.92,0l-3.86,2.03
			c-0.72,0.38-1.57-0.23-1.43-1.04l0.74-4.3c0.05-0.32-0.05-0.65-0.28-0.87L1.58,8.2C0.99,7.63,1.32,6.64,2.13,6.52l4.32-0.63
			c0.32-0.05,0.6-0.25,0.74-0.54l1.93-3.91C9.48,0.71,10.52,0.71,10.88,1.44z"/>
		<path class="st3" d="M18.42,8.2c0.59-0.57,0.26-1.56-0.55-1.68l-4.32-0.63c-0.32-0.05-0.6-0.25-0.74-0.54l-1.93-3.91
			C10.7,1.08,10.35,0.89,10,0.89v14.42c0.16,0,0.32,0.04,0.46,0.11l3.86,2.03c0.72,0.38,1.57-0.23,1.43-1.04l-0.74-4.3
			c-0.05-0.32,0.05-0.65,0.28-0.87L18.42,8.2z"/>
	</g>
</g>
</svg>
